<svg width="430" height="393" viewBox="0 0 430 393" fill="none" xmlns="http://www.w3.org/2000/svg">
<g opacity="0.2">
<path d="M32.8494 194.709L32.2397 195.543C34.755 192.576 37.8325 190.135 41.2949 188.362C50.474 182.461 63.6393 183.523 100.262 186.501L107.629 187.097C209.894 195.307 340.869 143.699 346.402 141.5C352.481 139.083 358.702 136.108 364.721 133.229C378.681 126.551 391.867 120.233 400.847 122.181C401.072 122.227 401.29 122.279 401.507 122.335C400.429 121.496 399.166 120.924 397.824 120.668C389.986 118.976 377.394 124.985 364.062 131.352C358.066 134.203 351.83 137.182 345.726 139.618C340.22 141.803 209.672 193.116 107.598 184.851C103.686 184.537 100.006 184.235 96.5573 183.945C50.05 180.103 44.0742 179.608 32.8494 194.709Z" fill="white"/>
<path d="M16.8554 248.458L17.9651 250.529C19.6466 252.617 21.7672 254.309 24.1763 255.485C26.5854 256.66 29.2239 257.291 31.9043 257.332L31.988 257.361C52.8217 260.169 73.8636 261.121 94.8657 260.206C147.823 258.358 200.226 248.781 250.414 231.779C374.233 190.031 412.972 153.995 407.926 134.185C407.611 132.88 407.146 131.615 406.541 130.417L406.138 129.678C405.827 129.149 405.467 128.65 405.062 128.188C403.796 126.723 402.07 125.732 400.166 125.377C392.257 123.67 379.559 129.746 366.115 136.177C360.048 139.079 353.774 142.08 347.593 144.547C342.038 146.756 210.373 198.654 107.348 190.359L99.9816 189.763C49.3745 185.657 45.2405 185.323 33.6077 201.007C26.6126 210.295 21.1121 220.62 17.3053 231.607L17.18 231.973C16.4112 234.511 15.9095 237.121 15.683 239.763C15.4532 242.133 15.6466 244.526 16.2541 246.828C16.419 247.384 16.6199 247.928 16.8554 248.458Z" fill="white"/>
<path d="M31.4967 260.56C52.4934 263.383 73.6983 264.348 94.8646 263.443C148.178 261.596 200.935 251.961 251.46 234.844C358.401 198.786 418.072 160.848 411.074 133.363C410.693 131.802 410.132 130.291 409.401 128.86L409.019 128.164C408.566 127.066 408.046 125.997 407.463 124.961C407.31 124.682 407.157 124.411 406.99 124.092L406.548 123.286C406.132 122.577 405.651 121.907 405.111 121.286C403.391 119.311 401.06 117.967 398.489 117.467C389.577 115.542 376.5 121.787 362.66 128.39C356.696 131.251 350.54 134.177 344.524 136.567C339.043 138.743 209.18 189.783 107.851 181.581C103.942 181.267 100.264 180.966 96.8181 180.677C49.7741 176.79 42.541 176.196 30.2383 192.746C23.5253 203.675 17.437 214.977 12.0027 226.595L13.9427 231.243L13.9709 231.395C13.1987 234.032 12.6934 236.74 12.4624 239.478C12.2022 242.229 12.4338 245.004 13.1467 247.674C13.3489 248.396 13.5998 249.103 13.8976 249.791L15.1321 252.11L15.2085 252.238C17.1299 254.753 19.5902 256.806 22.4088 258.246C25.2274 259.686 28.3327 260.477 31.4967 260.56ZM107.59 184.849C209.664 193.114 340.208 141.813 345.718 139.615C351.838 137.185 358.052 134.217 364.054 131.35C377.386 124.983 389.978 118.974 397.816 120.666C399.158 120.922 400.421 121.494 401.499 122.333C401.288 122.261 401.064 122.224 400.839 122.179C391.857 120.239 378.673 126.549 364.713 133.227C358.694 136.106 352.473 139.081 346.394 141.498C340.869 143.699 209.887 195.328 107.612 187.092L100.246 186.496C63.6379 183.527 50.474 182.462 41.2789 188.357C37.8165 190.13 34.739 192.571 32.2237 195.538L32.8334 194.705C44.0582 179.603 50.0354 180.095 96.5306 183.945C99.9996 184.227 103.686 184.528 107.59 184.849ZM17.1893 231.933L17.3145 231.566C21.1214 220.579 26.6219 210.254 33.6169 200.966C45.251 185.278 49.3838 185.616 99.9909 189.722L107.357 190.318C210.382 198.614 342.048 146.716 347.602 144.506C353.784 142.049 360.055 139.046 366.125 136.136C379.568 129.705 392.267 123.629 400.175 125.336C402.079 125.691 403.805 126.682 405.071 128.148C405.476 128.609 405.836 129.108 406.148 129.637L406.55 130.376C407.155 131.575 407.62 132.839 407.935 134.144C412.981 153.954 374.242 189.99 250.423 231.738C200.235 248.74 147.832 258.317 94.875 260.165C73.8729 261.08 52.8309 260.128 31.9973 257.32L31.9135 257.291C29.2332 257.25 26.5947 256.619 24.1856 255.444C21.7764 254.268 19.6558 252.576 17.9744 250.488L16.8646 248.418C16.6362 247.883 16.443 247.333 16.2862 246.773C15.6786 244.47 15.4853 242.078 15.715 239.707C15.9351 237.071 16.4291 234.466 17.1893 231.933Z" fill="#DEC7A6"/>
<path d="M204.233 243.794C265.663 236.976 293.733 228.081 303.034 224.537C297.483 212.102 288.245 197.593 274.907 195.631C251.048 192.125 221.153 207.42 177.16 207.456C133.167 207.492 97.9922 204.473 97.9922 204.473C97.9922 204.473 78.0627 201.73 73.6978 237.693C78.4024 238.364 88.4397 239.64 102.941 240.726C114.216 240.216 125.76 241.004 136.91 241.213C143.94 241.346 150.974 241.561 158 241.627C163.771 241.678 169.738 240.531 175.44 240.902C175.762 240.923 175.734 241.345 175.496 241.455C174.742 241.825 173.961 242.134 173.158 242.38C174.006 242.362 174.844 242.346 175.699 242.322C175.294 242.348 174.279 242.411 172.767 242.496C167.528 243.572 162.165 243.918 156.831 243.525C155.213 243.516 153.589 243.501 151.951 243.471C125.703 244.811 99.3975 244.585 73.1757 242.795C71.2035 242.599 69.3142 242.368 67.5075 242.143L69.5708 204.197C69.6568 202.617 70.0581 201.07 70.7512 199.647C71.4443 198.225 72.4152 196.955 73.6065 195.914C74.7978 194.872 76.1855 194.08 77.6878 193.583C79.1902 193.086 80.7768 192.895 82.3542 193.021C116.222 195.876 150.251 196.3 184.18 194.29C217.59 191.275 250.673 185.344 283.05 176.565C284.63 176.146 286.279 176.058 287.894 176.307C289.509 176.555 291.056 177.136 292.436 178.011C293.816 178.886 295.001 180.038 295.915 181.392C296.828 182.747 297.452 184.277 297.747 185.884L304.562 222.943L304.611 222.8L302.793 203.802C302.182 197.206 303.812 190.597 307.421 185.042C311.029 179.487 316.405 175.311 322.68 173.188C343.048 168.047 371.539 161.963 391.599 162.145C426.732 162.469 454.635 154.771 468.152 141.027C468.524 140.656 468.884 140.28 469.229 139.894C469.538 139.555 469.705 139.109 469.694 138.65L469.69 138.52C469.667 138.273 469.595 138.033 469.478 137.815C469.36 137.596 469.2 137.404 469.006 137.249L463.552 132.929C463.346 132.761 463.104 132.642 462.845 132.581C462.586 132.52 462.317 132.517 462.057 132.574C461.791 132.631 461.541 132.746 461.324 132.911C461.108 133.076 460.931 133.286 460.805 133.527C457.38 140.092 447.433 154.998 429.112 151.651C420.586 150.123 412.288 147.52 404.416 143.905C401.192 141.902 397.419 140.966 393.632 141.23C390.316 142.553 387.176 144.279 384.281 146.369C373.087 153.452 356.171 164.157 335.717 163.185C322.442 162.524 309.28 160.396 296.472 156.84C293.44 155.84 290.296 155.215 287.111 154.98C284.343 155.783 281.63 156.762 278.986 157.91C260.642 165.104 211.909 184.204 152.728 183.285C128.907 183.174 105.113 181.634 81.476 178.677C71.8751 177.478 69.5446 177.275 67.954 179.025C67.4489 179.592 64.9543 184.355 65.8469 222.656L65.8767 223.873L65.9782 227.71C65.9936 228.161 66.009 228.611 66.0284 229.063L66.1065 231.521C66.1225 232.074 66.1377 232.551 66.1609 233.031L66.2308 234.979L66.4254 239.756C66.4463 240.177 66.4659 240.589 66.4777 240.985L66.5008 241.479L66.5624 242.902L66.5707 243.061C66.5877 243.285 66.594 243.514 66.6033 243.709L66.6226 244.161L66.633 244.391C66.6564 244.825 66.7915 245.246 67.0251 245.613C67.2587 245.98 67.5829 246.28 67.9664 246.485C68.2647 246.645 68.5931 246.74 68.9305 246.765C114.031 249.74 159.306 248.746 204.233 243.794ZM94.5739 221.776C95.3363 221.713 96.1027 221.715 96.8646 221.784C97.288 221.848 97.2146 222.402 96.8423 222.475C96.1155 222.57 95.3818 222.603 94.6494 222.573C94.127 222.577 94.0448 221.787 94.5739 221.776ZM89.3582 225.433C90.4824 225.361 91.6106 225.386 92.7305 225.506C93.8519 225.453 94.9734 225.609 96.0374 225.968C96.118 226 96.1869 226.056 96.2345 226.128C96.2821 226.201 96.3061 226.286 96.3033 226.373C96.3005 226.46 96.2709 226.543 96.2187 226.613C96.1666 226.682 96.0942 226.734 96.0117 226.76C94.9381 227.055 93.8101 227.093 92.7193 226.87C91.5331 226.803 90.3614 226.576 89.2368 226.193C89.1672 226.15 89.1116 226.087 89.077 226.013C89.0424 225.939 89.0302 225.856 89.0418 225.775C89.0534 225.694 89.0884 225.618 89.1425 225.556C89.1965 225.495 89.2673 225.451 89.3463 225.429L89.3582 225.433ZM84.4188 229.949C89.1164 230.302 93.885 230.224 98.5956 230.252C102.385 229.981 106.19 230.01 109.974 230.338C110.513 230.429 110.688 231.326 110.09 231.473C102.008 233.443 92.4062 231.647 84.3449 230.4C84.2845 230.392 84.2299 230.36 84.193 230.312C84.1561 230.263 84.1399 230.202 84.1482 230.142C84.1564 230.082 84.1883 230.027 84.2368 229.99C84.2853 229.953 84.3464 229.937 84.4068 229.945L84.4188 229.949ZM118.465 237.748C112.053 238.073 105.627 237.985 99.2256 237.484C92.3919 237.244 85.5882 236.461 78.8788 235.142C78.5927 235.08 78.5787 234.626 78.896 234.609C85.2985 234.459 91.7043 234.658 98.0853 235.203C104.865 235.625 111.745 235.885 118.453 236.844C118.567 236.852 118.673 236.903 118.751 236.986C118.829 237.07 118.872 237.18 118.872 237.294C118.872 237.408 118.829 237.518 118.751 237.601C118.674 237.685 118.567 237.736 118.453 237.744L118.465 237.748ZM133.085 237.965C131.367 238.284 129.608 238.309 127.881 238.041C126.022 238.166 124.158 237.884 122.419 237.214C122.388 237.199 122.361 237.175 122.343 237.145C122.325 237.115 122.316 237.08 122.317 237.045C122.319 237.011 122.33 236.977 122.35 236.948C122.369 236.919 122.397 236.897 122.429 236.884C124.207 236.334 126.084 236.179 127.927 236.432C129.671 236.283 131.427 236.431 133.121 236.869C133.225 236.92 133.313 237 133.373 237.099C133.433 237.198 133.463 237.313 133.46 237.428C133.456 237.544 133.419 237.657 133.354 237.752C133.288 237.848 133.196 237.922 133.089 237.967L133.085 237.965ZM117.032 230.65C117.129 230.698 117.208 230.776 117.258 230.872C117.308 230.968 117.325 231.077 117.308 231.184C117.291 231.291 117.241 231.389 117.163 231.465C117.086 231.541 116.987 231.59 116.88 231.605C116.239 231.667 115.593 231.644 114.958 231.536C114.356 231.498 113.767 231.346 113.222 231.091C113.208 231.083 113.196 231.073 113.187 231.06C113.179 231.047 113.173 231.032 113.172 231.016C113.171 231.001 113.173 230.985 113.18 230.971C113.186 230.957 113.196 230.944 113.208 230.935C113.735 230.582 114.354 230.393 114.989 230.389C115.682 230.322 116.382 230.411 117.036 230.652L117.032 230.65ZM109.058 226.619C107.44 227.09 105.746 227.241 104.071 227.062C102.397 227.02 100.727 226.87 99.0724 226.612C99.0115 226.604 98.9559 226.573 98.916 226.527C98.8761 226.48 98.855 226.42 98.8566 226.359C98.8582 226.297 98.8825 226.239 98.9247 226.194C98.9669 226.15 99.0241 226.122 99.0853 226.118C100.801 226.035 102.504 225.886 104.221 225.813C105.797 225.577 107.398 225.564 108.977 225.772C109.069 225.794 109.151 225.844 109.212 225.915C109.274 225.986 109.311 226.075 109.318 226.169C109.325 226.263 109.302 226.356 109.252 226.436C109.203 226.516 109.129 226.578 109.042 226.613L109.058 226.619ZM461.419 143.377C462.466 142.372 463.588 141.446 464.611 140.42C465.304 139.421 466.191 138.571 467.218 137.921C467.304 137.892 467.395 137.886 467.484 137.903C467.572 137.919 467.655 137.958 467.725 138.016C467.794 138.074 467.848 138.148 467.881 138.232C467.914 138.316 467.924 138.407 467.912 138.496C467.472 139.711 466.64 140.745 465.547 141.434C464.426 142.452 463.13 143.257 461.721 143.81C461.471 143.903 461.194 143.568 461.403 143.372L461.419 143.377ZM462.197 136.545C462.283 136.187 462.469 135.859 462.733 135.602C462.951 135.311 463.236 135.076 463.563 134.919C463.651 134.887 463.746 134.879 463.838 134.895C463.93 134.911 464.017 134.951 464.09 135.01C464.162 135.069 464.218 135.146 464.252 135.233C464.286 135.321 464.297 135.415 464.284 135.508C464.194 135.86 464.02 136.186 463.777 136.457C463.574 136.766 463.289 137.012 462.955 137.169C462.861 137.206 462.758 137.217 462.658 137.202C462.558 137.186 462.464 137.144 462.385 137.08C462.306 137.016 462.246 136.932 462.21 136.837C462.174 136.743 462.164 136.64 462.181 136.54L462.197 136.545ZM462 140.201C462.39 139.435 462.904 138.739 463.522 138.142C464.043 137.454 464.609 136.803 465.217 136.191C465.304 136.133 465.406 136.102 465.51 136.1C465.615 136.098 465.717 136.126 465.806 136.182C465.895 136.237 465.966 136.316 466.011 136.411C466.055 136.505 466.072 136.611 466.058 136.715C465.829 137.619 465.393 138.458 464.784 139.165C464.176 139.872 463.412 140.428 462.552 140.79C462.471 140.821 462.384 140.829 462.299 140.812C462.214 140.794 462.137 140.752 462.076 140.691C462.015 140.63 461.973 140.552 461.956 140.468C461.938 140.383 461.946 140.296 461.977 140.215L462 140.201ZM460.792 144.054C460.843 144.064 460.89 144.086 460.93 144.12C460.97 144.154 461 144.197 461.019 144.245C461.037 144.294 461.042 144.347 461.034 144.398C461.026 144.449 461.005 144.498 460.973 144.539C460.653 144.928 460.094 145.04 459.717 145.361C459.671 145.394 459.615 145.411 459.558 145.409C459.502 145.407 459.447 145.387 459.403 145.351C459.359 145.315 459.327 145.266 459.313 145.211C459.3 145.156 459.304 145.098 459.327 145.045C459.462 144.754 459.664 144.498 459.916 144.298C460.031 144.194 460.168 144.118 460.317 144.075C460.466 144.032 460.623 144.023 460.776 144.048L460.792 144.054ZM458.086 145.575C458.377 145.571 458.69 145.866 458.524 146.17C457.882 146.974 457.037 147.591 456.075 147.956C455.245 148.508 454.289 148.84 453.296 148.922C453.265 148.911 453.237 148.902 453.261 148.857C453.834 148.002 454.609 147.302 455.516 146.817C456.272 146.336 457.128 145.577 458.073 145.561L458.086 145.575ZM389.718 146.279C397.16 138.747 402.644 148.849 418.732 151.589C423.387 152.435 428.09 153 432.813 153.279C439.283 152.947 445.644 151.487 451.612 148.966C451.933 148.822 452.153 149.298 451.874 149.501C447.629 152.462 442.648 154.192 437.482 154.499C429.309 156.339 420.823 156.27 412.682 154.297C392.092 149.392 393.572 154.305 380.685 157.751C364.16 162.173 360.221 161.607 360.221 161.607C360.221 161.607 382.276 153.806 389.72 146.271L389.718 146.279ZM336.7 166.659C331.164 167.94 321.845 170.155 314.596 172.164C311.447 172.992 308.557 174.6 306.194 176.839C303.83 179.078 302.068 181.876 301.071 184.976C300.96 182.555 300.247 180.199 298.997 178.123C297.746 176.047 295.998 174.316 293.909 173.086C293.38 172.834 292.823 172.644 292.25 172.52C298.715 167.843 306.64 165.635 314.591 166.294C319.972 166.395 325.344 166.768 330.728 166.856C332.733 166.891 334.722 166.79 336.7 166.659ZM319.769 164.798C319.969 164.708 320.175 164.63 320.384 164.562C320.625 164.513 320.87 164.481 321.116 164.465C321.653 164.421 322.194 164.446 322.725 164.538C322.834 164.557 322.932 164.615 323.002 164.7C323.072 164.785 323.108 164.893 323.105 165.003C323.102 165.114 323.06 165.219 322.985 165.301C322.911 165.382 322.81 165.434 322.7 165.447C322.186 165.545 321.661 165.578 321.139 165.546C320.876 165.542 320.615 165.514 320.357 165.462C320.156 165.424 320.009 165.307 319.807 165.274C319.604 165.24 319.513 164.871 319.769 164.798ZM317.135 164.219C317.187 164.245 317.231 164.285 317.262 164.336C317.292 164.386 317.307 164.444 317.305 164.503C317.303 164.561 317.283 164.618 317.25 164.666C317.216 164.714 317.169 164.751 317.115 164.773C315.467 165.313 313.71 165.432 312.004 165.121C310.338 165.345 308.642 165.1 307.108 164.412C307.084 164.392 307.066 164.367 307.054 164.339C307.041 164.311 307.035 164.281 307.036 164.251C307.037 164.22 307.045 164.19 307.059 164.163C307.073 164.136 307.094 164.113 307.118 164.095C308.464 163.218 310.493 163.613 312.048 163.622C313.766 163.4 315.513 163.611 317.129 164.235L317.135 164.219ZM286.577 156.792C286.976 156.301 287.826 156.106 288.396 155.873C288.965 155.639 289.309 156.563 288.726 156.769C288.123 157.094 287.452 157.273 286.766 157.293C286.713 157.284 286.663 157.261 286.622 157.226C286.58 157.192 286.548 157.147 286.529 157.097C286.51 157.046 286.504 156.992 286.513 156.938C286.521 156.885 286.543 156.834 286.577 156.792ZM287.113 159.237C287.521 158.655 288.123 158.237 288.812 158.059C289.525 157.835 290.267 157.713 291.014 157.697C291.441 157.674 291.63 158.322 291.201 158.456C290.569 158.655 289.957 158.909 289.37 159.215C288.835 159.478 288.206 159.922 287.625 159.955C287.536 159.965 287.446 159.951 287.364 159.914C287.282 159.877 287.211 159.819 287.159 159.746C287.107 159.673 287.075 159.588 287.067 159.498C287.059 159.409 287.075 159.319 287.113 159.237ZM287.096 162.3C287.735 161.329 289.372 160.85 290.441 160.525C291.634 160.206 292.874 160.108 294.102 160.234C294.136 160.238 294.167 160.253 294.191 160.276C294.215 160.3 294.23 160.331 294.234 160.365C294.238 160.399 294.23 160.432 294.211 160.461C294.193 160.489 294.166 160.51 294.134 160.521C292.977 160.883 291.837 161.38 290.713 161.829C289.682 162.239 288.647 163.065 287.554 163.164C287.451 163.169 287.349 163.145 287.26 163.094C287.171 163.044 287.098 162.968 287.05 162.878C287.002 162.787 286.981 162.684 286.989 162.582C286.997 162.48 287.035 162.382 287.096 162.3ZM281.969 168.724C285.374 167.233 288.687 165.539 291.889 163.651C294.259 162.223 296.992 161.512 299.757 161.604C300.66 161.685 300.568 163.065 299.712 163.147C293.365 163.763 288.282 168.596 282.027 168.931C282.001 168.931 281.975 168.922 281.955 168.906C281.934 168.889 281.919 168.866 281.913 168.841C281.907 168.815 281.91 168.788 281.921 168.764C281.932 168.74 281.951 168.72 281.974 168.708L281.969 168.724ZM249.9 180.762C259.45 177.427 269.617 175.987 279.251 172.771C284.175 171.13 289.086 169.333 293.884 167.356C296.992 166.079 300.9 163.423 304.365 164.308C304.439 164.323 304.507 164.361 304.558 164.417C304.609 164.473 304.64 164.544 304.648 164.619C304.656 164.695 304.639 164.771 304.6 164.836C304.562 164.901 304.503 164.952 304.433 164.981C302.344 165.884 300.067 166.265 297.943 167.178C295.923 168.047 293.927 168.964 291.917 169.845C287.341 171.805 282.669 173.531 277.919 175.018C268.955 178.425 259.521 180.434 249.948 180.974C249.832 180.974 249.773 180.807 249.9 180.762ZM102.844 189.36C110.711 189.935 118.586 190.383 126.471 190.703C134.993 191.044 143.522 191.227 152.058 191.249C159.487 191.27 166.992 190.964 174.396 191.698C174.56 191.714 174.537 191.951 174.386 191.975C172.119 192.328 169.829 192.592 167.525 192.794L167.689 192.797L167.345 192.813C157.88 193.475 148.382 193.527 138.91 192.968C115.345 192.604 88.3118 191.43 80.8629 190.828C69.8619 189.936 68.7621 193.848 68.7621 193.848C69.0914 190 69.7075 186.181 70.6053 182.424C77.4516 185.756 84.8577 187.786 92.4461 188.411C95.9206 188.733 99.3988 189.11 102.844 189.36ZM184.324 217.017C184.324 217.017 184.305 216.984 184.335 216.986C188.611 216.397 192.884 216.035 197.184 215.583C201.006 214.779 204.92 214.5 208.817 214.755C208.891 214.77 208.959 214.808 209.01 214.864C209.061 214.92 209.093 214.991 209.1 215.066C209.108 215.142 209.091 215.218 209.052 215.283C209.014 215.348 208.955 215.399 208.885 215.428C204.915 216.611 200.774 217.113 196.636 216.915C192.537 217.179 188.427 217.214 184.324 217.017ZM274.672 220.095C274.19 220.02 273.698 220.033 273.221 220.134C272.64 220.256 272.57 219.43 273.008 219.206C273.562 218.927 274.18 218.799 274.8 218.834C275.12 218.812 275.44 218.863 275.737 218.984C276.034 219.104 276.299 219.291 276.513 219.53C276.568 219.612 276.602 219.707 276.611 219.805C276.619 219.904 276.602 220.004 276.561 220.094C276.52 220.184 276.456 220.262 276.376 220.32C276.296 220.379 276.202 220.416 276.104 220.428C275.615 220.376 275.134 220.264 274.672 220.095ZM264.717 217.364C264.682 217.366 264.648 217.356 264.62 217.335C264.592 217.314 264.572 217.283 264.565 217.249C264.557 217.215 264.562 217.179 264.578 217.148C264.595 217.117 264.622 217.093 264.654 217.08C266.504 216.421 268.422 215.971 270.371 215.737C272.154 215.267 274.016 215.177 275.836 215.474C276.294 215.63 276.182 216.273 275.808 216.43C274.07 216.863 272.279 217.039 270.491 216.953C268.564 217.119 266.648 217.355 264.715 217.372L264.717 217.364ZM245.525 214.784C245.493 214.773 245.466 214.723 245.51 214.712C248.757 213.884 252.044 213.223 255.359 212.731C258.625 211.809 262.052 211.604 265.404 212.131C265.576 212.189 265.706 212.447 265.505 212.566C262.711 213.794 259.681 214.39 256.631 214.314C252.938 214.662 249.231 214.821 245.522 214.792L245.525 214.784ZM257.435 209.637C253.382 210.159 249.334 210.67 245.274 211.123C236.645 212.086 227.986 212.683 219.365 213.609C219.312 213.602 219.263 213.577 219.226 213.539C219.189 213.501 219.165 213.451 219.159 213.398C219.153 213.345 219.165 213.291 219.193 213.246C219.221 213.2 219.264 213.165 219.314 213.146C227.645 211.828 235.914 210.171 244.274 208.888C248.566 208.225 252.865 207.618 257.167 207.029C260.71 206.1 264.395 205.837 268.035 206.251C268.547 206.382 268.894 207.164 268.322 207.485C264.86 208.882 261.165 209.615 257.432 209.645L257.435 209.637ZM234.504 216.623C236.925 215.894 239.447 215.553 241.974 215.611C242.038 215.623 242.097 215.654 242.143 215.699C242.19 215.745 242.223 215.802 242.237 215.866C242.252 215.929 242.248 215.995 242.226 216.056C242.204 216.117 242.164 216.171 242.113 216.21C239.927 217.309 237.532 217.926 235.087 218.02C232.135 218.437 229.245 218.176 226.294 218.42C226.289 218.42 226.284 218.419 226.279 218.418C226.275 218.416 226.27 218.413 226.266 218.41C226.262 218.407 226.259 218.403 226.257 218.398C226.255 218.394 226.254 218.389 226.253 218.383C226.253 218.378 226.254 218.373 226.255 218.368C226.257 218.364 226.26 218.359 226.263 218.355C226.266 218.351 226.27 218.348 226.275 218.346C226.279 218.344 226.284 218.343 226.29 218.342C229.022 218.073 231.779 217.144 234.504 216.623ZM215.461 213.461C215.536 213.523 215.588 213.608 215.61 213.702C215.632 213.796 215.624 213.895 215.586 213.984C215.13 214.835 214.344 214.843 213.477 214.943C212.648 215.128 211.779 214.991 211.048 214.559C211.023 214.537 211.007 214.506 211.004 214.473C211 214.44 211.009 214.406 211.029 214.379C211.58 213.746 212.354 213.349 213.189 213.269C213.997 213.108 214.785 212.834 215.457 213.473L215.461 213.461ZM284.64 212.379C281.837 212.17 279.022 212.183 276.22 212.417C273.567 212.799 270.875 212.842 268.21 212.545C268.083 212.543 267.962 212.493 267.868 212.406C267.775 212.32 267.717 212.202 267.706 212.075C267.694 211.948 267.729 211.822 267.805 211.719C267.88 211.617 267.991 211.546 268.115 211.52C270.585 210.763 273.172 210.465 275.75 210.64C277.592 210.939 279.46 211.052 281.325 210.976C282.45 210.94 283.575 211.038 284.678 211.265C284.808 211.295 284.924 211.369 285.005 211.475C285.087 211.581 285.129 211.712 285.124 211.846C285.119 211.979 285.067 212.107 284.978 212.206C284.889 212.306 284.768 212.371 284.636 212.391L284.64 212.379ZM281.571 207.622C280.569 208.496 278.889 208.082 277.665 208.003C275.989 207.907 274.328 207.638 272.707 207.201C272.63 207.184 272.562 207.141 272.513 207.08C272.465 207.018 272.439 206.941 272.441 206.863C272.443 206.784 272.472 206.709 272.524 206.65C272.575 206.591 272.646 206.551 272.724 206.539C274.37 206.231 276.044 206.092 277.719 206.124C278.947 206.138 280.663 205.847 281.6 206.795C281.663 206.846 281.713 206.912 281.746 206.986C281.779 207.06 281.795 207.141 281.792 207.222C281.789 207.304 281.767 207.383 281.728 207.455C281.689 207.526 281.634 207.587 281.567 207.634L281.571 207.622ZM286.308 207.846C286.374 207.876 286.428 207.928 286.461 207.992C286.495 208.056 286.507 208.13 286.495 208.201C286.483 208.273 286.448 208.339 286.396 208.388C286.343 208.438 286.276 208.47 286.204 208.478C285.066 208.566 283.927 208.323 282.925 207.777C282.882 207.756 282.847 207.722 282.825 207.679C282.803 207.637 282.795 207.588 282.803 207.541C282.81 207.494 282.833 207.45 282.867 207.417C282.902 207.383 282.946 207.362 282.993 207.355C284.122 207.197 285.273 207.372 286.304 207.858L286.308 207.846ZM177.45 213.103C197.234 210.061 217.103 207.819 236.776 203.942C251.84 200.968 270.471 195.346 284.929 203.016C285.014 203.055 285.082 203.123 285.12 203.208C285.158 203.293 285.165 203.389 285.138 203.478C285.111 203.568 285.053 203.645 284.974 203.695C284.896 203.745 284.802 203.765 284.709 203.751C276.299 202.611 267.783 202.466 259.338 203.318C251.156 204.238 243.037 205.834 234.924 207.202C215.958 210.72 196.754 212.807 177.475 213.446C177.431 213.45 177.388 213.436 177.354 213.408C177.32 213.38 177.299 213.339 177.295 213.295C177.291 213.251 177.305 213.208 177.333 213.174C177.361 213.14 177.402 213.119 177.446 213.115L177.45 213.103ZM158.841 212.414C163.445 212.528 168.053 212.398 172.644 212.024C172.849 212.003 173.053 212.065 173.213 212.195C173.372 212.326 173.473 212.514 173.493 212.719C173.514 212.924 173.452 213.128 173.322 213.287C173.191 213.446 173.003 213.547 172.798 213.568C168.118 214.181 163.367 213.975 158.757 212.96C158.696 212.939 158.643 212.898 158.61 212.843C158.576 212.788 158.563 212.723 158.572 212.659C158.582 212.596 158.613 212.537 158.662 212.494C158.71 212.452 158.772 212.427 158.837 212.426L158.841 212.414ZM213.209 237.655C214.007 237.208 214.852 236.849 215.728 236.587C216.6 236.297 217.538 236.274 218.423 236.518C218.559 236.579 218.676 236.674 218.763 236.795C218.85 236.915 218.903 237.057 218.918 237.204C218.933 237.352 218.908 237.501 218.846 237.637C218.785 237.772 218.688 237.889 218.567 237.975C217.733 238.322 216.824 238.454 215.925 238.359C215.041 238.338 214.157 238.201 213.276 238.123C212.984 238.103 213.017 237.758 213.206 237.662L213.209 237.655ZM208.519 238.832C208.981 238.691 209.466 238.637 209.948 238.674C210.02 238.688 210.086 238.724 210.136 238.779C210.186 238.833 210.217 238.902 210.224 238.975C210.232 239.048 210.216 239.121 210.178 239.184C210.141 239.248 210.083 239.297 210.016 239.325C209.549 239.46 209.062 239.506 208.579 239.463C208.255 239.459 208.205 238.916 208.528 238.844L208.519 238.832ZM196.535 240.244C198.176 239.763 199.864 239.454 201.569 239.323C203.013 239.125 204.898 238.429 206.281 239.061C206.348 239.092 206.406 239.14 206.449 239.2C206.492 239.26 206.518 239.331 206.525 239.405C206.532 239.478 206.519 239.553 206.488 239.62C206.457 239.687 206.409 239.745 206.349 239.788C205.143 240.712 203.146 240.444 201.695 240.572C200.004 240.82 198.292 240.89 196.587 240.783C196.53 240.77 196.478 240.739 196.439 240.695C196.401 240.651 196.376 240.596 196.37 240.537C196.364 240.479 196.377 240.42 196.406 240.369C196.435 240.318 196.479 240.277 196.532 240.252L196.535 240.244ZM178.949 241.761C178.83 241.739 178.724 241.674 178.648 241.58C178.572 241.486 178.532 241.368 178.536 241.247C178.539 241.126 178.585 241.01 178.666 240.92C178.747 240.83 178.857 240.772 178.976 240.755C181.839 240.339 184.793 240.426 187.682 240.232C190.31 239.943 192.964 239.981 195.582 240.347C195.608 240.352 195.63 240.366 195.647 240.385C195.664 240.404 195.675 240.428 195.678 240.454C195.68 240.479 195.675 240.505 195.662 240.527C195.649 240.549 195.63 240.567 195.606 240.577C192.966 241.503 190.183 241.954 187.386 241.908C184.574 242.114 181.75 242.067 178.946 241.769L178.949 241.761Z" fill="white"/>
<path d="M68.7067 250.055C114.005 253.024 159.476 252.009 204.596 247.022C266.612 240.142 294.985 231.091 304.32 227.514C304.605 227.403 304.88 227.269 305.142 227.113C305.488 226.917 305.81 226.682 306.103 226.413C307.045 225.563 307.676 224.422 307.895 223.173L307.934 222.954L306.085 203.51C305.995 202.563 305.961 201.611 305.98 200.66L305.98 200.518C305.622 195.078 307.182 189.685 310.387 185.275C313.593 180.866 318.242 177.718 323.527 176.38C343.707 171.292 371.901 165.257 391.619 165.438C427.627 165.771 456.386 157.716 470.521 143.35C470.922 142.944 471.316 142.535 471.694 142.117C472.175 141.594 472.539 140.974 472.76 140.299C472.909 139.847 472.993 139.376 473.01 138.901L473.027 138.853L473.012 138.505C472.982 137.781 472.798 137.071 472.472 136.422C472.147 135.774 471.688 135.202 471.125 134.744C470.801 133.878 470.247 133.116 469.522 132.541L464.092 128.256C463.509 127.786 462.829 127.451 462.101 127.277C461.373 127.102 460.615 127.091 459.882 127.244C459.149 127.398 458.459 127.713 457.863 128.165C457.266 128.618 456.778 129.197 456.433 129.862C452.619 137.118 443.954 148.872 428.44 146.016C420.205 144.525 412.189 142.004 404.583 138.512C400.767 136.208 396.307 135.201 391.871 135.642C388.184 136.968 384.705 138.813 381.539 141.122C370.772 147.879 354.511 158.091 335.2 157.122C322.216 156.44 309.347 154.335 296.822 150.846C293.462 149.729 289.964 149.081 286.427 148.922C283.337 149.66 280.325 150.694 277.433 152.01C257.675 159.669 211.415 177.602 153.23 176.559C129.661 176.388 106.123 174.812 82.7407 171.841C72.6554 170.562 69.2576 170.133 66.4849 173.194C65.963 173.754 65.5802 174.428 65.3672 175.163C65.0387 176.187 64.7909 177.236 64.6262 178.299C64.5663 178.474 64.5023 178.662 64.4274 178.881C63.2361 182.371 61.8767 192.13 62.5849 222.78L62.6079 224.017L62.7068 227.849C62.7206 228.33 62.7345 228.798 62.7539 229.25C62.7853 230.071 62.8088 230.876 62.8191 231.668L62.8198 231.744C62.8375 232.253 62.8526 232.744 62.8745 233.214L62.9457 235.157L63.1414 239.958L63.1754 241.163L63.1996 241.678L63.2625 243.112L63.2732 243.302C63.2851 243.489 63.2958 243.666 63.302 243.909C63.3143 244.056 63.3212 244.205 63.3214 244.361L63.333 244.614C63.388 245.611 63.6995 246.578 64.2373 247.42C64.7752 248.262 65.5211 248.951 66.4031 249.42C67.1163 249.795 67.9021 250.012 68.7067 250.055ZM67.9753 246.524C67.5918 246.319 67.2675 246.019 67.0339 245.652C66.8003 245.285 66.6653 244.864 66.6418 244.43L66.6315 244.199L66.6121 243.747C66.607 243.541 66.5966 243.324 66.5795 243.1L66.5713 242.941L66.5097 241.517L66.4866 241.024C66.4748 240.628 66.4551 240.216 66.4342 239.795L66.2396 235.017L66.1698 233.07C66.1466 232.59 66.1314 232.113 66.1154 231.56L66.0373 229.102C66.0179 228.65 66.0025 228.199 65.9871 227.749L65.8856 223.912L65.8558 222.695C64.9632 184.394 67.4577 179.631 67.9629 179.064C69.5589 177.298 71.884 177.517 81.4849 178.715C105.122 181.673 128.916 183.212 152.737 183.324C211.918 184.243 260.651 165.143 278.995 157.949C281.638 156.801 284.352 155.822 287.12 155.019C290.305 155.254 293.449 155.878 296.481 156.879C309.289 160.434 322.451 162.562 335.726 163.224C356.178 164.204 373.093 153.499 384.29 146.408C387.185 144.318 390.325 142.592 393.641 141.269C397.428 141.004 401.201 141.941 404.425 143.944C412.297 147.559 420.595 150.161 429.121 151.69C447.442 155.037 457.388 140.131 460.814 133.566C460.94 133.325 461.117 133.115 461.333 132.95C461.55 132.785 461.8 132.67 462.066 132.613C462.326 132.556 462.595 132.559 462.854 132.62C463.113 132.681 463.354 132.8 463.561 132.968L469.015 137.288C469.209 137.443 469.369 137.635 469.487 137.853C469.604 138.072 469.676 138.312 469.699 138.559L469.703 138.689C469.714 139.148 469.547 139.594 469.238 139.933C468.893 140.319 468.533 140.695 468.161 141.066C454.643 154.81 426.741 162.508 391.608 162.184C371.544 162.013 343.056 168.086 322.689 173.227C316.414 175.35 311.038 179.526 307.43 185.081C303.821 190.636 302.191 197.245 302.801 203.841L304.62 222.839L304.571 222.982L297.755 185.923C297.461 184.315 296.837 182.786 295.923 181.431C295.01 180.076 293.825 178.925 292.445 178.05C291.065 177.174 289.518 176.594 287.903 176.346C286.288 176.097 284.638 176.185 283.059 176.604C250.682 185.382 217.599 191.313 184.189 194.329C150.26 196.339 116.231 195.915 82.3631 193.059C80.7857 192.934 79.1991 193.125 77.6967 193.622C76.1944 194.119 74.8067 194.911 73.6154 195.953C72.4241 196.994 71.4532 198.264 70.7601 199.686C70.067 201.109 69.6656 202.655 69.5796 204.235L67.5163 242.182C69.3136 242.421 71.2124 242.637 73.1845 242.834C99.4063 244.624 125.711 244.85 151.96 243.51C153.578 243.533 155.202 243.548 156.84 243.564C162.174 243.957 167.537 243.61 172.776 242.535C174.288 242.45 175.302 242.387 175.708 242.36C174.853 242.385 174.015 242.401 173.167 242.419C173.97 242.173 174.751 241.863 175.505 241.494C175.731 241.38 175.771 240.962 175.449 240.941C169.748 240.566 163.774 241.71 158.009 241.666C150.981 241.604 143.949 241.385 136.919 241.252C125.769 241.043 114.225 240.254 102.95 240.764C88.4565 239.681 78.4192 238.405 73.7067 237.731C78.0716 201.769 98.0011 204.512 98.0011 204.512C98.0011 204.512 133.194 207.519 177.169 207.495C221.144 207.471 251.057 192.164 274.916 195.67C288.254 197.632 297.492 212.141 303.043 224.575C293.74 228.127 265.669 237.023 204.242 243.833C159.319 248.797 114.047 249.804 68.9485 246.843C68.6051 246.807 68.2733 246.698 67.9753 246.524Z" fill="#DEC7A6"/>
<path d="M292.255 172.504C292.828 172.628 293.385 172.818 293.914 173.07C296.003 174.3 297.751 176.032 299.002 178.108C300.252 180.184 300.965 182.539 301.076 184.96C302.073 181.86 303.835 179.062 306.199 176.823C308.562 174.584 311.452 172.976 314.601 172.149C321.85 170.139 331.181 167.928 336.705 166.644C334.727 166.775 332.744 166.859 330.736 166.832C325.351 166.744 319.98 166.371 314.599 166.271C306.646 165.613 298.72 167.824 292.255 172.504Z" fill="#DEC7A6"/>
<path d="M70.6051 182.423C69.7074 186.18 69.0912 189.999 68.7619 193.848C68.7619 193.848 69.8617 189.935 80.8627 190.828C88.3197 191.432 115.353 192.606 138.909 192.967C148.381 193.526 157.879 193.474 167.345 192.812L167.689 192.796L167.525 192.793C169.821 192.589 172.135 192.332 174.386 191.974C174.536 191.95 174.559 191.713 174.396 191.697C166.996 190.952 159.487 191.269 152.058 191.249C143.526 191.222 134.998 191.039 126.471 190.702C118.588 190.386 110.712 189.938 102.844 189.36C99.3986 189.11 95.9324 188.737 92.438 188.408C84.8525 187.783 77.4492 185.753 70.6051 182.423Z" fill="#DEC7A6"/>
<path d="M412.7 154.285C420.841 156.258 429.327 156.327 437.499 154.487C442.666 154.18 447.647 152.45 451.892 149.489C452.153 149.298 451.933 148.822 451.629 148.954C445.662 151.477 439.3 152.938 432.829 153.272C428.106 152.992 423.403 152.428 418.748 151.581C402.656 148.839 397.177 138.74 389.734 146.271C382.291 153.802 360.243 161.584 360.243 161.584C360.243 161.584 364.194 162.153 380.706 157.727C393.596 154.273 392.122 149.384 412.7 154.285Z" fill="#DEC7A6"/>
<path d="M291.918 169.845C293.928 168.964 295.924 168.047 297.944 167.178C300.068 166.265 302.329 165.879 304.434 164.981C304.504 164.952 304.562 164.9 304.601 164.835C304.64 164.77 304.657 164.694 304.649 164.619C304.641 164.544 304.61 164.472 304.559 164.416C304.508 164.36 304.44 164.322 304.366 164.308C300.901 163.423 296.989 166.077 293.885 167.355C289.087 169.333 284.176 171.129 279.252 172.77C269.618 175.987 259.451 177.427 249.901 180.761C249.774 180.807 249.829 180.973 249.949 180.973C259.522 180.434 268.956 178.425 277.92 175.018C282.67 173.531 287.342 171.804 291.918 169.845Z" fill="#DEC7A6"/>
<path d="M307.119 164.095C307.094 164.113 307.074 164.136 307.06 164.164C307.046 164.191 307.038 164.22 307.037 164.251C307.036 164.281 307.042 164.312 307.054 164.34C307.067 164.367 307.085 164.392 307.108 164.412C308.643 165.1 310.338 165.346 312.005 165.122C313.711 165.433 315.467 165.313 317.115 164.773C317.17 164.752 317.217 164.714 317.25 164.666C317.284 164.618 317.303 164.562 317.305 164.503C317.307 164.444 317.292 164.386 317.262 164.336C317.232 164.285 317.188 164.245 317.135 164.219C315.516 163.6 313.768 163.395 312.049 163.623C310.494 163.613 308.47 163.202 307.119 164.095Z" fill="#DEC7A6"/>
<path d="M319.812 165.258C320.004 165.323 320.156 165.424 320.363 165.446C320.62 165.497 320.882 165.526 321.144 165.53C321.667 165.562 322.191 165.529 322.705 165.431C322.815 165.418 322.916 165.366 322.991 165.284C323.065 165.203 323.108 165.097 323.111 164.987C323.114 164.877 323.077 164.769 323.007 164.684C322.938 164.598 322.839 164.541 322.731 164.522C322.2 164.43 321.659 164.405 321.121 164.449C320.875 164.465 320.631 164.497 320.389 164.546C320.18 164.614 319.975 164.692 319.774 164.782C319.513 164.87 319.609 165.202 319.812 165.258Z" fill="#DEC7A6"/>
<path d="M195.603 240.585C195.626 240.575 195.646 240.557 195.659 240.535C195.672 240.512 195.677 240.487 195.675 240.461C195.672 240.436 195.661 240.412 195.644 240.392C195.627 240.373 195.604 240.36 195.579 240.355C192.961 239.989 190.307 239.951 187.679 240.24C184.79 240.434 181.852 240.352 178.973 240.763C178.854 240.78 178.744 240.838 178.663 240.928C178.582 241.018 178.536 241.134 178.533 241.255C178.529 241.375 178.569 241.493 178.645 241.588C178.721 241.682 178.827 241.746 178.946 241.769C181.748 242.07 184.572 242.119 187.383 241.916C190.18 241.962 192.963 241.511 195.603 240.585Z" fill="#DEC7A6"/>
<path d="M196.584 240.791C198.29 240.905 200.002 240.84 201.695 240.599C203.145 240.471 205.144 240.734 206.348 239.814C206.409 239.771 206.457 239.713 206.488 239.646C206.519 239.579 206.531 239.505 206.524 239.431C206.517 239.357 206.491 239.287 206.448 239.226C206.406 239.166 206.348 239.118 206.28 239.087C204.898 238.455 203.012 239.152 201.569 239.349C199.863 239.481 198.176 239.789 196.534 240.271C196.485 240.297 196.444 240.337 196.418 240.386C196.391 240.435 196.379 240.491 196.385 240.547C196.39 240.603 196.412 240.656 196.447 240.699C196.483 240.743 196.53 240.775 196.584 240.791Z" fill="#DEC7A6"/>
<path d="M208.577 239.47C209.06 239.514 209.547 239.467 210.014 239.333C210.082 239.305 210.139 239.255 210.176 239.192C210.214 239.129 210.23 239.055 210.223 238.982C210.215 238.909 210.184 238.84 210.134 238.786C210.085 238.732 210.019 238.695 209.946 238.682C209.464 238.645 208.979 238.698 208.517 238.839C208.206 238.916 208.256 239.459 208.577 239.47Z" fill="#DEC7A6"/>
<path d="M299.7 163.183C300.556 163.101 300.643 161.724 299.746 161.64C296.98 161.548 294.248 162.259 291.878 163.687C288.675 165.575 285.362 167.269 281.957 168.76C281.931 168.771 281.91 168.79 281.897 168.815C281.884 168.84 281.881 168.868 281.887 168.895C281.893 168.923 281.909 168.947 281.931 168.964C281.953 168.981 281.981 168.989 282.009 168.987C288.271 168.631 293.375 163.788 299.7 163.183Z" fill="#DEC7A6"/>
<path d="M290.716 161.831C291.84 161.382 292.98 160.885 294.137 160.523C294.169 160.512 294.196 160.491 294.215 160.463C294.233 160.434 294.241 160.4 294.237 160.367C294.234 160.333 294.219 160.302 294.195 160.278C294.171 160.254 294.139 160.24 294.106 160.236C292.878 160.11 291.637 160.208 290.444 160.527C289.375 160.843 287.739 161.331 287.1 162.302C287.037 162.384 286.999 162.482 286.991 162.585C286.983 162.688 287.004 162.791 287.053 162.883C287.101 162.974 287.175 163.049 287.265 163.099C287.355 163.15 287.458 163.173 287.561 163.167C288.651 163.067 289.698 162.244 290.716 161.831Z" fill="#DEC7A6"/>
<path d="M289.36 159.207C289.947 158.901 290.559 158.646 291.191 158.447C291.632 158.317 291.455 157.674 291.005 157.689C290.257 157.705 289.515 157.826 288.802 158.05C288.113 158.229 287.511 158.647 287.104 159.229C287.07 159.309 287.058 159.396 287.068 159.482C287.078 159.568 287.11 159.65 287.161 159.72C287.212 159.79 287.279 159.845 287.358 159.882C287.436 159.918 287.523 159.934 287.609 159.927C288.195 159.918 288.833 159.472 289.36 159.207Z" fill="#DEC7A6"/>
<path d="M288.396 155.872C287.821 156.121 286.976 156.3 286.577 156.792C286.541 156.834 286.517 156.885 286.508 156.939C286.498 156.993 286.503 157.049 286.522 157.101C286.541 157.153 286.573 157.198 286.616 157.234C286.658 157.269 286.709 157.292 286.764 157.301C287.449 157.281 288.12 157.102 288.724 156.777C289.309 156.563 288.965 155.639 288.396 155.872Z" fill="#DEC7A6"/>
<path d="M218.545 237.975C218.666 237.889 218.762 237.773 218.823 237.638C218.885 237.502 218.91 237.353 218.895 237.206C218.88 237.058 218.827 236.916 218.74 236.796C218.653 236.675 218.536 236.58 218.4 236.519C217.515 236.275 216.577 236.298 215.705 236.588C214.829 236.85 213.984 237.208 213.186 237.655C212.997 237.751 212.964 238.096 213.233 238.117C214.101 238.182 214.991 238.329 215.882 238.353C216.787 238.454 217.703 238.324 218.545 237.975Z" fill="#DEC7A6"/>
<path d="M259.339 203.314C267.784 202.462 276.3 202.607 284.71 203.747C284.803 203.76 284.897 203.74 284.975 203.69C285.054 203.64 285.112 203.564 285.139 203.474C285.166 203.385 285.159 203.289 285.121 203.204C285.083 203.119 285.015 203.051 284.93 203.012C270.467 195.357 251.836 200.979 236.777 203.938C217.12 207.82 197.234 210.061 177.451 213.099C177.409 213.105 177.372 213.127 177.346 213.16C177.32 213.193 177.308 213.235 177.312 213.277C177.316 213.319 177.335 213.358 177.367 213.385C177.399 213.413 177.44 213.427 177.482 213.426C196.756 212.791 215.955 210.708 234.917 207.195C243.037 205.83 251.157 204.234 259.339 203.314Z" fill="#DEC7A6"/>
<path d="M268.035 206.251C264.396 205.837 260.711 206.1 257.168 207.029C252.866 207.618 248.566 208.225 244.274 208.888C235.931 210.176 227.646 211.828 219.314 213.146C219.264 213.165 219.222 213.2 219.194 213.246C219.166 213.291 219.154 213.345 219.16 213.398C219.166 213.451 219.189 213.501 219.226 213.539C219.264 213.577 219.313 213.602 219.365 213.609C227.986 212.683 236.646 212.086 245.275 211.123C249.335 210.67 253.383 210.159 257.435 209.637C261.17 209.604 264.865 208.869 268.328 207.469C268.898 207.156 268.55 206.374 268.035 206.251Z" fill="#DEC7A6"/>
<path d="M281.594 206.81C280.657 205.862 278.941 206.154 277.713 206.14C276.038 206.107 274.364 206.246 272.718 206.554C272.64 206.567 272.57 206.606 272.518 206.665C272.466 206.724 272.437 206.8 272.435 206.878C272.433 206.957 272.459 207.033 272.507 207.095C272.556 207.157 272.624 207.199 272.701 207.216C274.322 207.653 275.983 207.922 277.659 208.018C278.883 208.098 280.563 208.511 281.565 207.638C281.629 207.591 281.682 207.529 281.719 207.459C281.757 207.388 281.778 207.31 281.78 207.231C281.783 207.151 281.768 207.072 281.735 206.999C281.703 206.926 281.655 206.861 281.594 206.81Z" fill="#DEC7A6"/>
<path d="M282.926 207.773C283.928 208.319 285.067 208.562 286.205 208.474C286.277 208.466 286.344 208.434 286.397 208.384C286.449 208.335 286.484 208.269 286.496 208.197C286.508 208.126 286.496 208.052 286.462 207.988C286.429 207.924 286.375 207.872 286.309 207.842C285.275 207.359 284.123 207.189 282.994 207.351C282.947 207.358 282.903 207.379 282.868 207.413C282.834 207.446 282.811 207.489 282.804 207.537C282.796 207.584 282.804 207.633 282.826 207.675C282.848 207.718 282.883 207.752 282.926 207.773Z" fill="#DEC7A6"/>
<path d="M265.507 212.558C265.708 212.439 265.581 212.173 265.406 212.123C262.054 211.596 258.627 211.801 255.361 212.723C252.046 213.215 248.759 213.876 245.512 214.704C245.468 214.715 245.487 214.775 245.527 214.776C249.237 214.803 252.945 214.641 256.638 214.29C259.686 214.371 262.714 213.78 265.507 212.558Z" fill="#DEC7A6"/>
<path d="M275.743 210.632C273.166 210.458 270.579 210.756 268.109 211.513C267.984 211.539 267.874 211.61 267.798 211.712C267.723 211.814 267.687 211.941 267.699 212.068C267.711 212.194 267.769 212.312 267.862 212.399C267.955 212.486 268.077 212.535 268.204 212.538C270.866 212.84 273.556 212.802 276.209 212.425C279.01 212.191 281.825 212.179 284.628 212.388C284.764 212.371 284.89 212.307 284.982 212.206C285.075 212.104 285.128 211.973 285.132 211.837C285.136 211.7 285.091 211.566 285.005 211.459C284.919 211.353 284.798 211.28 284.663 211.255C283.561 211.027 282.436 210.93 281.311 210.966C279.449 211.042 277.583 210.93 275.743 210.632Z" fill="#DEC7A6"/>
<path d="M275.805 216.438C276.179 216.28 276.296 215.626 275.833 215.481C274.014 215.185 272.152 215.274 270.369 215.744C268.419 215.978 266.502 216.429 264.652 217.087C264.619 217.1 264.592 217.124 264.576 217.155C264.559 217.186 264.555 217.222 264.562 217.256C264.57 217.29 264.589 217.321 264.617 217.342C264.645 217.363 264.68 217.374 264.715 217.371C266.656 217.335 268.56 217.13 270.488 216.96C272.276 217.047 274.068 216.87 275.805 216.438Z" fill="#DEC7A6"/>
<path d="M276.101 220.436C276.199 220.424 276.293 220.387 276.373 220.329C276.453 220.27 276.517 220.192 276.558 220.102C276.599 220.012 276.616 219.912 276.608 219.814C276.599 219.715 276.566 219.62 276.51 219.538C276.296 219.3 276.031 219.113 275.734 218.992C275.437 218.872 275.117 218.82 274.797 218.842C274.177 218.807 273.559 218.935 273.005 219.214C272.555 219.435 272.645 220.267 273.218 220.142C273.695 220.041 274.187 220.028 274.669 220.103C275.131 220.272 275.612 220.384 276.101 220.436Z" fill="#DEC7A6"/>
<path d="M172.64 212.035C168.049 212.409 163.441 212.539 158.836 212.425C158.764 212.414 158.69 212.431 158.631 212.474C158.572 212.517 158.532 212.582 158.52 212.654C158.509 212.726 158.526 212.8 158.569 212.859C158.612 212.918 158.676 212.958 158.748 212.97C163.358 213.985 168.11 214.191 172.79 213.578C172.99 213.553 173.173 213.451 173.3 213.293C173.426 213.135 173.486 212.934 173.466 212.733C173.447 212.532 173.349 212.347 173.195 212.216C173.041 212.086 172.841 212.021 172.64 212.035Z" fill="#DEC7A6"/>
<path d="M208.799 214.767C204.902 214.512 200.988 214.79 197.166 215.595C192.872 216.031 188.598 216.393 184.318 216.997C184.318 216.997 184.304 217.037 184.307 217.029C188.403 217.229 192.508 217.198 196.601 216.938C200.739 217.137 204.88 216.634 208.85 215.452C208.926 215.427 208.99 215.378 209.034 215.312C209.078 215.247 209.099 215.168 209.093 215.089C209.087 215.01 209.055 214.936 209.002 214.877C208.949 214.819 208.877 214.78 208.799 214.767Z" fill="#DEC7A6"/>
<path d="M211.032 214.397C211.012 214.424 211.003 214.458 211.006 214.491C211.01 214.524 211.026 214.555 211.05 214.577C211.782 215.009 212.65 215.146 213.48 214.961C214.339 214.858 215.125 214.85 215.588 214.002C215.626 213.913 215.635 213.814 215.613 213.72C215.59 213.626 215.538 213.541 215.464 213.479C214.792 212.84 214.003 213.114 213.2 213.276C212.36 213.357 211.583 213.758 211.032 214.397Z" fill="#DEC7A6"/>
<path d="M226.286 218.421C229.236 218.177 232.126 218.438 235.078 218.021C237.523 217.928 239.919 217.311 242.104 216.212C242.156 216.172 242.195 216.119 242.217 216.058C242.239 215.997 242.243 215.93 242.229 215.867C242.214 215.804 242.181 215.746 242.135 215.701C242.088 215.656 242.029 215.625 241.966 215.612C239.438 215.554 236.917 215.896 234.496 216.624C231.775 217.133 229.017 218.062 226.276 218.333C226.264 218.334 226.253 218.34 226.246 218.349C226.239 218.358 226.235 218.37 226.237 218.382C226.238 218.394 226.244 218.404 226.253 218.412C226.262 218.419 226.274 218.422 226.286 218.421Z" fill="#DEC7A6"/>
<path d="M78.908 234.613C78.5907 234.63 78.6047 235.084 78.8908 235.146C85.5926 236.461 92.3882 237.242 99.2136 237.48C105.615 237.981 112.041 238.069 118.453 237.744C118.555 237.725 118.648 237.672 118.715 237.594C118.782 237.515 118.821 237.416 118.824 237.313C118.827 237.209 118.794 237.108 118.731 237.026C118.668 236.944 118.579 236.886 118.479 236.861C111.753 235.901 104.875 235.637 98.1106 235.22C91.7255 234.67 85.3152 234.467 78.908 234.613Z" fill="#DEC7A6"/>
<path d="M122.433 236.885C122.401 236.898 122.373 236.92 122.353 236.949C122.333 236.978 122.322 237.012 122.321 237.047C122.32 237.081 122.329 237.116 122.347 237.146C122.365 237.176 122.391 237.2 122.422 237.215C124.161 237.885 126.025 238.167 127.884 238.042C129.611 238.31 131.37 238.285 133.089 237.967C133.198 237.923 133.292 237.849 133.36 237.753C133.428 237.657 133.466 237.543 133.469 237.425C133.473 237.308 133.442 237.191 133.381 237.091C133.319 236.991 133.23 236.911 133.123 236.861C131.429 236.423 129.673 236.275 127.929 236.423C126.085 236.174 124.209 236.332 122.433 236.885Z" fill="#DEC7A6"/>
<path d="M109.962 230.334C106.178 230.005 102.373 229.977 98.5837 230.248C93.8731 230.22 89.1044 230.297 84.4069 229.945C84.347 229.935 84.2857 229.95 84.2365 229.985C84.1873 230.02 84.1541 230.074 84.1443 230.134C84.1345 230.193 84.1488 230.255 84.1842 230.304C84.2196 230.353 84.2731 230.386 84.333 230.396C92.3943 231.643 101.996 233.439 110.078 231.469C110.676 231.321 110.501 230.424 109.962 230.334Z" fill="#DEC7A6"/>
<path d="M113.212 230.936C113.2 230.946 113.19 230.958 113.183 230.973C113.177 230.987 113.175 231.002 113.176 231.018C113.177 231.033 113.182 231.048 113.191 231.061C113.2 231.074 113.212 231.085 113.226 231.092C113.771 231.348 114.36 231.499 114.961 231.538C115.596 231.646 116.243 231.669 116.884 231.606C116.991 231.591 117.09 231.542 117.167 231.466C117.244 231.391 117.295 231.292 117.312 231.185C117.329 231.079 117.311 230.969 117.262 230.873C117.212 230.777 117.133 230.7 117.036 230.652C116.382 230.415 115.682 230.328 114.99 230.399C114.357 230.4 113.739 230.587 113.212 230.936Z" fill="#DEC7A6"/>
<path d="M95.9853 226.773C96.0679 226.746 96.1402 226.695 96.1924 226.625C96.2446 226.556 96.2742 226.472 96.277 226.386C96.2798 226.299 96.2558 226.213 96.2082 226.141C96.1606 226.068 96.0918 226.012 96.0111 225.98C94.9472 225.622 93.8256 225.465 92.7042 225.519C91.5842 225.399 90.456 225.374 89.3319 225.445C89.2532 225.466 89.1823 225.51 89.1278 225.57C89.0733 225.631 89.0374 225.706 89.0246 225.786C89.0117 225.866 89.0225 225.949 89.0555 226.023C89.0885 226.098 89.1423 226.161 89.2105 226.205C90.3351 226.588 91.5068 226.816 92.693 226.882C93.7838 227.105 94.9118 227.068 95.9853 226.773Z" fill="#DEC7A6"/>
<path d="M99.0691 226.112C99.0079 226.116 98.9507 226.144 98.9085 226.188C98.8662 226.233 98.842 226.291 98.8404 226.353C98.8388 226.414 98.8599 226.474 98.8998 226.521C98.9396 226.567 98.9953 226.598 99.0562 226.606C100.711 226.864 102.38 227.014 104.054 227.056C105.73 227.235 107.424 227.084 109.042 226.613C109.131 226.578 109.206 226.515 109.257 226.433C109.307 226.351 109.329 226.255 109.32 226.159C109.311 226.064 109.271 225.974 109.206 225.903C109.141 225.832 109.055 225.784 108.961 225.766C107.381 225.558 105.78 225.571 104.205 225.807C102.489 225.876 100.785 226.029 99.0691 226.112Z" fill="#DEC7A6"/>
<path d="M96.8304 222.471C97.2027 222.398 97.2681 221.841 96.8528 221.78C96.0908 221.711 95.3244 221.709 94.562 221.773C94.0449 221.787 94.1284 222.573 94.6375 222.569C95.3699 222.599 96.1035 222.567 96.8304 222.471Z" fill="#DEC7A6"/>
<path d="M64.7839 239.45C64.7998 240.016 64.845 240.575 64.8519 241.089C64.8357 240.563 64.8078 240.019 64.7839 239.45Z" fill="white"/>
<path d="M64.7839 239.45C64.7998 240.016 64.845 240.575 64.8519 241.089C64.8357 240.563 64.8078 240.019 64.7839 239.45Z" fill="white"/>
<path d="M296.739 191.146C296.933 188.39 296.061 185.664 294.302 183.533C292.543 181.402 290.033 180.028 287.29 179.696C283.853 179.771 280.448 180.371 277.193 181.476C272.357 182.702 267.466 183.699 262.673 185.087C262.655 185.093 262.639 185.107 262.63 185.124C262.621 185.141 262.618 185.161 262.622 185.18C262.627 185.199 262.638 185.216 262.654 185.227C262.67 185.239 262.69 185.244 262.709 185.241C269.081 184.616 275.525 183.65 281.841 182.587C283.411 182.076 285.07 181.893 286.714 182.05C288.358 182.207 289.952 182.7 291.397 183.498C293.71 185.548 295.387 188.218 296.229 191.191C296.337 191.423 296.704 191.419 296.739 191.146Z" fill="white"/>
<path d="M299.019 200.181C298.893 198.901 298.57 197.647 298.061 196.465C297.606 195.125 297.076 193.812 296.474 192.531C296.432 192.445 296.283 192.465 296.3 192.573C296.491 193.915 296.758 195.244 297.1 196.556C297.338 197.904 297.784 199.207 298.422 200.418C298.614 200.715 299.014 200.495 299.019 200.181Z" fill="white"/>
<path d="M300.897 206.209C301.052 204.855 300.002 203.677 299.483 202.525C299.415 202.372 299.14 202.408 299.177 202.599C299.298 203.277 299.259 203.962 299.402 204.652C299.479 205.28 299.7 205.882 300.049 206.41C300.299 206.695 300.848 206.651 300.897 206.209Z" fill="white"/>
<path d="M72.2521 219.339C73.0876 214.935 72.9491 210.319 73.4225 205.868C74.0963 199.499 77.8062 197.853 83.2308 196.089C83.3443 196.057 83.2961 195.898 83.2122 195.883C69.8527 192.938 70.5069 211.173 71.3794 219.313C71.3759 219.428 71.4186 219.541 71.498 219.625C71.5773 219.709 71.6869 219.758 71.8026 219.762C71.9183 219.765 72.0307 219.723 72.115 219.644C72.1993 219.564 72.2487 219.454 72.2521 219.339Z" fill="white"/>
<path d="M75.6037 239.336C74.9586 239.165 74.2003 239.169 73.5834 238.967C72.9403 238.811 72.3621 238.457 71.9297 237.956C71.4973 237.454 71.2323 236.831 71.1717 236.171C71.0975 234.465 71.1889 232.756 71.4446 231.068C71.765 228.028 71.8059 224.966 71.5668 221.919C71.5648 221.9 71.5558 221.882 71.5416 221.869C71.5275 221.856 71.5091 221.848 71.4897 221.847C71.4704 221.847 71.4515 221.853 71.4366 221.865C71.4216 221.878 71.4115 221.895 71.4082 221.914C70.8947 224.508 70.6165 227.144 70.5769 229.788C70.227 232.415 70.0667 235.064 70.0971 237.715C70.3216 240.2 73.5035 240.258 75.5822 239.908C75.6495 239.898 75.7113 239.865 75.7567 239.815C75.8022 239.764 75.8284 239.699 75.831 239.631C75.8335 239.563 75.8122 239.496 75.7707 239.443C75.7292 239.389 75.6701 239.351 75.6037 239.336Z" fill="white"/>
<path d="M79.3163 202.051C80.0821 201.044 81.0282 200.188 82.1065 199.526C82.1512 199.492 82.1837 199.445 82.1994 199.391C82.2151 199.337 82.2131 199.28 82.1936 199.227C82.1741 199.175 82.1382 199.13 82.0912 199.099C82.0441 199.068 81.9886 199.054 81.9326 199.057C79.4335 199.477 75.9583 202.574 77.0891 205.418C77.1171 205.487 77.1645 205.546 77.2255 205.589C77.2865 205.631 77.3584 205.655 77.4326 205.657C77.5068 205.659 77.5801 205.64 77.6435 205.601C77.7069 205.563 77.7577 205.507 77.7898 205.44C78.4411 204.38 78.5664 203.1 79.3163 202.051Z" fill="white"/>
<path d="M251.411 187.579C245.596 188.154 239.825 189.114 234.137 190.454C228.37 191.33 222.553 192.35 216.774 193.053C216.753 193.055 216.733 193.066 216.719 193.082C216.706 193.099 216.699 193.12 216.701 193.142C216.703 193.163 216.714 193.183 216.731 193.196C216.747 193.21 216.769 193.217 216.79 193.214C222.904 192.902 228.872 192.57 234.953 191.676C240.612 191.261 246.2 190.156 251.59 188.384C251.678 188.344 251.75 188.275 251.793 188.188C251.836 188.102 251.848 188.003 251.827 187.909C251.806 187.814 251.753 187.73 251.677 187.67C251.602 187.61 251.508 187.578 251.411 187.579Z" fill="white"/>
<path d="M259.97 185.686C258.715 185.681 257.474 185.94 256.326 186.446C255.759 186.657 255.182 186.837 254.596 186.987C253.94 187.034 253.293 187.172 252.674 187.399C252.609 187.435 252.577 187.553 252.669 187.584C253.195 187.716 253.742 187.734 254.276 187.639C254.987 187.578 255.685 187.608 256.397 187.57C257.728 187.598 259.039 187.245 260.177 186.554C260.251 186.497 260.308 186.419 260.339 186.33C260.371 186.241 260.376 186.145 260.354 186.053C260.332 185.961 260.284 185.878 260.216 185.813C260.148 185.748 260.062 185.704 259.97 185.686Z" fill="white"/>
<path d="M116.329 197.312C111.126 196.809 105.769 196.94 100.536 196.618C95.7477 195.973 90.9058 195.827 86.0878 196.183L86.0756 196.219C90.9755 197.476 96.0311 198.021 101.086 197.835C106.156 198.161 111.24 198.197 116.313 197.944C116.389 197.933 116.457 197.896 116.508 197.839C116.558 197.783 116.587 197.71 116.588 197.634C116.59 197.558 116.565 197.485 116.518 197.426C116.47 197.367 116.403 197.326 116.329 197.312Z" fill="white"/>
<path d="M124.312 197.888C122.781 197.755 121.244 197.724 119.709 197.794C119.473 197.794 119.457 198.193 119.696 198.208C121.225 198.365 122.763 198.423 124.299 198.382C124.361 198.377 124.418 198.349 124.46 198.305C124.502 198.26 124.527 198.202 124.528 198.14C124.53 198.079 124.509 198.019 124.469 197.972C124.429 197.926 124.373 197.896 124.312 197.888Z" fill="white"/>
<path d="M76.6681 212.231C76.7264 211.388 76.728 210.542 76.6731 209.699C76.738 208.831 76.9266 208.004 77.0046 207.176C77.0132 207.108 76.9974 207.039 76.9599 206.981C76.9224 206.923 76.8657 206.881 76.7998 206.861C76.734 206.841 76.6633 206.846 76.6002 206.873C76.5372 206.9 76.4859 206.949 76.4554 207.011C76.0517 207.85 75.8233 208.763 75.7843 209.694C75.6301 210.565 75.703 211.461 75.996 212.295C76.0253 212.365 76.0761 212.423 76.1408 212.461C76.2055 212.5 76.2807 212.517 76.3557 212.51C76.4306 212.502 76.5013 212.471 76.5575 212.421C76.6137 212.371 76.6525 212.305 76.6681 212.231Z" fill="white"/>
<path d="M81.9258 205.142C82.63 203.84 83.5759 202.685 84.7129 201.738C84.93 201.572 84.7529 201.191 84.4843 201.299C82.9572 201.811 81.6324 202.795 80.7019 204.109C80.0363 205.12 79.0796 206.566 79.8041 207.73C79.8739 207.826 79.9786 207.891 80.0958 207.911C80.2129 207.931 80.3332 207.905 80.431 207.837C81.3319 207.272 81.4129 206.031 81.9258 205.142Z" fill="white"/>
<path d="M84.4931 207.493C84.8163 206.395 85.5563 205.468 86.5547 204.91C86.754 204.809 86.7031 204.476 86.4617 204.505C85.7713 204.524 85.1161 204.814 84.6368 205.311C84.1002 205.828 83.7835 206.531 83.7524 207.275C83.7336 207.67 84.3499 207.951 84.4931 207.493Z" fill="white"/>
<path d="M367.561 153.177C372.934 151.058 378.069 148.38 382.881 145.187C387.16 142.097 390.767 138.417 396.302 138.481C396.404 138.485 396.462 138.326 396.371 138.282C394.359 137.689 392.229 137.616 390.182 138.069C388.134 138.521 386.234 139.484 384.658 140.869C378.923 144.806 373.414 149.427 367.436 152.956C367.287 153.039 367.412 153.246 367.561 153.177Z" fill="white"/>
<path d="M248.19 165.634C251.57 165.314 254.888 164.514 258.044 163.259C261.685 162.155 265.294 160.948 268.823 159.521C272.044 158.207 275.179 156.689 278.207 154.976C281.941 152.881 286.783 150.384 291.096 152.163C291.156 152.184 291.197 152.091 291.132 152.06C284.312 148.716 278.986 152.682 272.834 155.649C268.706 157.592 264.446 159.24 260.085 160.581C255.89 161.441 251.801 162.753 247.889 164.494C247.772 164.561 247.682 164.665 247.63 164.788C247.578 164.912 247.569 165.05 247.603 165.179C247.638 165.309 247.713 165.424 247.819 165.506C247.925 165.588 248.055 165.633 248.19 165.634Z" fill="white"/>
<path d="M240.352 168.609C241.621 168.152 242.901 167.494 244.129 166.897C244.187 166.869 244.164 166.794 244.088 166.795C242.56 167.007 241.046 167.312 239.555 167.709C238.326 167.939 237.154 168.407 236.105 169.088C235.874 169.267 236.073 169.611 236.328 169.609C237.723 169.549 239.091 169.209 240.352 168.609Z" fill="white"/>
<path d="M230.064 171.184C230.51 171.051 230.976 170.939 231.425 170.758C231.886 170.538 232.327 170.277 232.742 169.979C232.788 169.953 232.825 169.912 232.846 169.863C232.867 169.814 232.871 169.76 232.857 169.708C232.844 169.657 232.813 169.611 232.771 169.579C232.729 169.546 232.677 169.529 232.624 169.529C232.18 169.493 231.735 169.49 231.291 169.519C230.769 169.613 230.262 169.769 229.755 169.885C228.845 170 227.978 170.339 227.232 170.872C227.176 170.927 227.136 170.995 227.116 171.07C227.095 171.145 227.094 171.224 227.113 171.299C227.133 171.375 227.171 171.444 227.225 171.5C227.28 171.556 227.347 171.596 227.422 171.618C228.325 171.694 229.233 171.545 230.064 171.184Z" fill="white"/>
<path d="M68.6601 177.088C72.7908 174.197 79.3154 176.006 83.9548 176.49C89.8232 177.105 95.6965 177.6 101.583 178.056C113.115 178.961 124.67 179.704 136.218 180.245C147.767 180.785 159.29 180.917 170.821 180.48C176.455 180.267 182.089 179.924 187.704 179.391C192.965 179.298 198.185 178.435 203.196 176.83C203.348 176.766 203.256 176.566 203.127 176.553C197.021 176.471 190.921 176.946 184.902 177.972C179.047 178.455 173.181 178.772 167.305 178.924C155.295 179.25 143.272 178.966 131.279 178.305C119.477 177.659 107.693 176.451 95.9518 175.105C89.8508 174.402 83.7457 173.712 77.6357 173.153C75.8877 172.743 74.0661 172.763 72.3278 173.213C70.5895 173.663 68.9866 174.528 67.6571 175.735C67.0419 176.402 67.8243 177.671 68.6601 177.088Z" fill="white"/>
<path d="M11.9185 240.616C12.1143 239.899 12.3247 239.179 12.5552 238.451L12.562 238.432C12.8084 237.71 13.059 236.976 13.3122 236.234L13.4074 235.955C13.6498 235.245 13.9334 234.545 14.2157 233.835L14.3718 233.443C14.6514 232.742 14.9469 232.046 15.2492 231.343L15.4173 230.955C15.7326 230.24 16.058 229.526 16.3936 228.813L16.514 228.564C16.8537 227.843 17.2068 227.122 17.5678 226.403L17.6154 226.264C17.984 225.541 18.3607 224.816 18.7453 224.089L18.9263 223.755C19.2964 223.062 19.6785 222.373 20.0766 221.69L20.2885 221.317C20.6781 220.636 21.0708 219.96 21.4666 219.288L21.6676 218.947C22.0831 218.251 22.5007 217.563 22.9206 216.881L23.015 216.735C23.433 216.058 23.8554 215.391 24.2822 214.732L24.4224 214.517C24.8455 213.86 25.274 213.214 25.7077 212.578L25.9286 212.244C26.3498 211.628 26.77 211.018 27.1892 210.416L27.437 210.056C27.8598 209.452 28.2861 208.856 28.716 208.266L28.891 208.027C29.3405 207.415 29.7868 206.816 30.2299 206.231C38.3024 195.629 43.4576 191.681 58.012 191.373L58.5358 191.364C58.849 191.36 59.1702 191.359 59.4913 191.357C65.8949 191.317 74.0155 191.921 84.7572 192.907C85.3778 192.968 86.0037 193.025 86.6322 193.102L87.0384 193.138C89.0058 193.323 91.0596 193.52 93.2001 193.728C96.2869 194.025 99.559 194.34 103.044 194.684L107.315 195.1L107.785 195.145L107.829 195.16C108.923 195.266 110.03 195.364 111.134 195.456L111.809 195.513C178.111 200.862 257.159 181.424 302.896 167.722C328.826 159.907 346.438 153.252 349.493 152.077L349.789 151.965C355.971 149.574 362.303 146.614 368.439 143.758L370.41 142.836C383.035 136.963 394.896 131.67 403.426 132.654C403.65 132.677 403.853 132.707 404.085 132.746C404.157 132.77 404.238 132.767 404.314 132.78C404.474 132.807 404.631 132.843 404.789 132.875C404.947 132.907 405.047 132.927 405.171 132.956C405.542 133.043 405.904 133.144 406.26 133.261L406.368 133.298C405.643 132.448 404.756 131.752 403.759 131.25L403.707 131.232C396.161 127.471 381.999 134.062 366.998 141.079C360.819 143.957 354.431 146.937 348.14 149.362C342.494 151.553 208.443 202.806 104.645 192.759L97.3208 192.04C46.2508 187.073 42.0761 186.662 29.9697 202.598C22.114 212.64 16.0759 223.979 12.1284 236.102C11.5356 238.393 11.2365 240.751 11.238 243.118L11.302 242.931C11.4508 242.26 11.6157 241.582 11.7992 240.901L11.9185 240.616Z" fill="white"/>
<path d="M410.372 140.641C410.074 140.096 409.723 139.581 409.325 139.104C408.089 137.583 406.365 136.535 404.446 136.138C397.258 134.445 385.94 139.255 373.665 144.937C372.396 145.525 371.116 146.127 369.825 146.743C363.645 149.624 357.257 152.604 350.966 155.029C347.892 156.206 339.658 159.326 327.295 163.455L327.404 163.603L327.604 163.867L327.928 164.312L328.139 164.607C328.27 164.785 328.404 164.978 328.537 165.188L328.718 165.441C328.917 165.732 329.124 166.025 329.329 166.353L329.449 166.537C329.621 166.8 329.797 167.069 329.976 167.353L330.197 167.709C330.347 167.948 330.479 168.189 330.649 168.447L330.902 168.867C331.052 169.119 331.199 169.378 331.35 169.639L331.6 170.081C331.766 170.378 331.931 170.679 332.096 170.989L332.299 171.361C332.53 171.805 332.764 172.255 332.997 172.722L333.078 172.887C333.276 173.298 333.477 173.714 333.678 174.143L333.893 174.622C334.045 174.959 334.196 175.3 334.338 175.664L334.592 176.227C334.733 176.57 334.873 176.916 335.009 177.26L335.236 177.836C335.381 178.22 335.52 178.606 335.659 178.996L335.834 179.501C336.028 180.066 336.216 180.638 336.394 181.224L336.418 181.299C336.584 181.855 336.744 182.417 336.896 182.99L337.037 183.554C337.143 183.974 337.244 184.395 337.342 184.825L337.487 185.498C337.574 185.906 337.651 186.32 337.728 186.734L337.854 187.436C337.927 187.875 337.995 188.326 338.052 188.772L338.138 189.394C338.215 190.038 338.288 190.695 338.356 191.365L338.348 191.389C338.397 192.065 338.43 192.753 338.455 193.434L338.463 194.065C338.473 194.544 338.472 195.029 338.466 195.517L338.444 196.285C338.425 196.745 338.401 197.205 338.367 197.67C338.354 197.932 338.334 198.197 338.311 198.461C338.266 198.944 338.211 199.433 338.154 199.926L338.065 200.643C337.973 201.289 337.866 201.943 337.74 202.599L337.701 202.844C337.556 203.582 337.385 204.33 337.197 205.076L337.019 205.728C336.877 206.262 336.725 206.798 336.554 207.35L336.282 208.148C336.113 208.642 335.943 209.141 335.77 209.647C335.673 209.93 335.575 210.217 335.445 210.494C335.381 210.681 335.32 210.861 335.236 211.041C369.383 195.421 393.135 179.952 404.613 166.207C410.926 158.646 413.528 151.613 412.1 145.359C411.813 144.014 411.372 142.707 410.785 141.463L410.372 140.641Z" fill="white"/>
<path d="M83.5635 269.47L84.0423 268.863C84.2669 268.57 84.4822 268.279 84.6989 267.983L85.135 267.397L85.7867 266.467C85.916 266.284 86.0425 266.108 86.1652 265.919C86.409 265.557 86.6448 265.192 86.8807 264.827L87.1421 264.427C87.4549 263.928 87.7637 263.428 88.0591 262.928L88.1726 262.726C88.4276 262.292 88.6745 261.855 88.9162 261.421L89.1811 260.92C89.3621 260.585 89.5445 260.246 89.7188 259.905C89.8202 259.713 89.9108 259.526 90.0108 259.324C90.1663 259.012 90.3219 258.7 90.4695 258.385L90.755 257.77L91.1681 256.86L91.4433 256.224L91.8162 255.327L92.0728 254.68C92.1763 254.377 92.3063 254.087 92.4177 253.787L92.6383 253.141L92.9501 252.227L93.1529 251.633C93.2591 251.322 93.3654 251.011 93.4702 250.704L93.673 250.11L93.9615 249.108L94.1119 248.576C94.2241 248.17 94.3161 247.796 94.4136 247.406L94.5055 247.045C94.6318 246.532 94.7502 246.016 94.8645 245.498L94.8863 245.434L95.1847 243.973L95.2666 243.525L95.4596 242.451L95.5449 241.901L95.6917 240.936L95.7734 240.345L95.892 239.424L95.9616 238.815L96.0562 237.912L96.1112 237.308L96.187 236.407L96.2299 235.812L96.2845 234.909L96.3126 234.331C96.3295 234.02 96.3411 233.713 96.3487 233.404L96.3672 232.867L96.3863 231.885L96.3925 231.41C96.3966 231.033 96.3926 230.653 96.3913 230.279L96.3896 229.971C96.3766 229.005 96.3501 228.052 96.3023 227.109L96.281 226.741C96.2649 226.397 96.2473 226.057 96.2204 225.719L96.1812 225.26L96.1185 224.348L96.0728 223.843L95.995 222.988L95.9388 222.474L95.8515 221.647L95.7873 221.131L95.6852 220.322L95.6208 219.819L95.5067 219.018L95.4276 218.546L95.3028 217.738L95.2288 217.289L95.075 216.435L95.0058 216.051C94.9496 215.72 94.888 215.392 94.8251 215.068L94.78 214.847C94.6224 214.04 94.4593 213.252 94.2908 212.485L94.2236 212.186L94.0563 211.372L93.9671 210.994L93.7937 210.276L93.6952 209.886L93.5256 209.209L93.4205 208.813L93.2492 208.18L93.1441 207.783L92.974 207.173L92.8675 206.794L92.6931 206.209L92.5864 205.843L92.4134 205.267L92.3106 204.929L92.1269 204.346L92.0344 204.056L91.8181 203.385L91.7659 203.225L91.4946 202.416L91.2322 201.658L91.1551 201.44L90.9802 200.935L90.8874 200.685L90.7359 200.268L90.6378 200.008L90.4953 199.63L90.409 199.4L90.2716 199.046L90.1826 198.824L90.0623 198.511L89.9759 198.295L89.862 198.015L89.7834 197.828L89.6734 197.564L89.6079 197.403L89.5031 197.149L89.4507 197.029L89.3459 196.788L89.3118 196.705C48.2089 192.79 43.8936 193.743 32.838 208.297C27.0319 215.873 22.1197 224.095 18.199 232.799C16.0062 237.559 14.55 242.624 13.8804 247.822C13.5946 250.251 13.7374 252.711 14.3022 255.09C14.4443 255.669 14.6267 256.238 14.8482 256.791L15.9266 258.94C17.5623 261.1 19.6601 262.867 22.0666 264.111C24.473 265.356 27.1273 266.047 29.8351 266.133L29.9189 266.162C47.5337 268.888 65.3392 270.195 83.1633 270.068L83.5635 269.47Z" fill="white"/>
<path d="M330.694 213.035C342.66 189.726 327.536 168.875 324.022 164.523C284.395 177.555 186.277 206.041 107.481 198.407L102.741 197.947C99.2934 197.61 96.0432 197.296 92.9901 197.004C96.0477 204.612 98.1003 212.587 99.0962 220.725C101.74 238.063 97.4987 255.747 87.2786 270C142.883 269.524 198.079 260.455 250.913 243.114C278.007 234.47 304.637 224.43 330.694 213.035Z" fill="white"/>
<path d="M386.634 157.085C386.921 157.993 387.392 158.833 388.018 159.551C388.644 160.27 389.411 160.852 390.271 161.261C391.192 161.697 392.193 161.939 393.211 161.972C394.23 162.005 395.244 161.828 396.191 161.452C398.069 160.738 399.61 159.345 400.509 157.549C401.407 155.752 401.598 153.684 401.043 151.753C400.756 150.845 400.285 150.005 399.659 149.286C399.033 148.568 398.266 147.986 397.406 147.577C396.485 147.141 395.484 146.899 394.466 146.866C393.447 146.833 392.433 147.01 391.486 147.386C390.198 147.883 389.058 148.7 388.173 149.76C387.322 150.753 386.735 151.945 386.466 153.225C386.197 154.505 386.255 155.833 386.634 157.085ZM391.317 152.498C391.165 152.222 390.956 151.98 390.704 151.79C391.224 151.181 391.887 150.71 392.633 150.418C393.168 150.202 393.742 150.098 394.319 150.113C394.896 150.127 395.464 150.261 395.988 150.504C396.428 150.715 396.822 151.012 397.147 151.377C397.472 151.741 397.721 152.167 397.881 152.628C397.12 153.566 396.061 154.215 394.88 154.467C394.157 154.558 393.423 154.417 392.786 154.065C392.148 153.712 391.639 153.165 391.333 152.504L391.317 152.498ZM389.825 156.335C390.419 157.035 391.162 157.593 392 157.968C392.838 158.344 393.75 158.527 394.668 158.505C393.678 158.822 392.606 158.757 391.661 158.324C390.828 157.914 390.178 157.206 389.841 156.34L389.825 156.335Z" fill="#DEC7A6"/>
<path d="M37.082 240.394C38.2798 240.542 39.4951 240.433 40.6479 240.076C41.8007 239.719 42.8645 239.121 43.7694 238.323C44.5623 237.591 45.1884 236.696 45.6052 235.701C46.0219 234.705 46.2195 233.631 46.1846 232.553C46.0118 230.182 45.0093 227.947 43.353 226.242C41.6968 224.536 39.4926 223.469 37.1276 223.227C35.9298 223.08 34.7145 223.188 33.5617 223.545C32.4089 223.902 31.345 224.5 30.4402 225.298C30.1938 225.525 29.9623 225.767 29.7474 226.024C28.5763 227.439 27.9636 229.233 28.025 231.069C28.1978 233.44 29.2003 235.674 30.8566 237.38C32.5128 239.085 34.717 240.152 37.082 240.394ZM34.7605 232.117C33.7639 230.98 33.4704 229.374 32.3795 228.383C32.313 228.326 32.2436 228.272 32.1715 228.223C32.3174 228.032 32.4782 227.853 32.6524 227.688C33.2152 227.197 33.8768 226.833 34.5925 226.62C35.3081 226.408 36.061 226.351 36.8004 226.455C38.2632 226.598 39.6417 227.206 40.7346 228.188C41.8275 229.171 42.5774 230.478 42.8749 231.917C41.482 232.332 40.1406 233.913 38.7115 233.991C37.9546 233.994 37.2067 233.828 36.5229 233.503C35.8391 233.179 35.2368 232.705 34.7605 232.117Z" fill="#DEC7A6"/>
<path d="M29.3657 269.308C46.2824 271.936 63.3771 273.249 80.4965 273.237L83.9478 273.249L84.7167 273.253C141.535 273.057 197.968 263.923 251.947 246.187C280.745 236.819 306.394 227.23 328.28 217.656L328.27 217.684L332.585 215.755L333.106 215.532C390.66 189.718 419.859 164.527 415.316 144.573C414.969 142.972 414.437 141.418 413.732 139.94L413.329 139.152L409.911 132.495C409.882 132.436 409.844 132.378 409.809 132.322C408.696 130.667 407.187 129.317 405.42 128.392C405.348 128.346 405.273 128.306 405.195 128.271L405.067 128.227C396.1 123.946 382.019 130.524 365.704 138.126C359.576 140.985 353.238 143.938 347.061 146.326C341.422 148.498 208.085 199.513 105.053 189.518L97.7486 188.806C49.9452 184.156 41.7621 183.358 30.3317 197.039C29.4122 198.141 28.4693 199.338 27.4885 200.633C19.3248 210.998 13.0897 222.745 9.08024 235.314C7.03568 243.051 8.07752 251.28 11.9857 258.263L13.0722 260.415L13.1445 260.542C15.009 263.135 17.4376 265.272 20.2474 266.79C23.0572 268.309 26.1749 269.17 29.3657 269.308ZM233.148 219.656C166.664 231.548 125.194 216.499 105.056 205.265C121.212 206.016 137.365 205.84 153.366 205.051C162.066 204.624 170.79 204.124 179.398 203.015C187.529 201.971 196.788 201.641 204.34 198.235C204.382 198.218 204.37 198.147 204.32 198.139C195.708 197.056 186.767 198.999 178.274 199.537C169.578 200.086 160.918 200.812 152.194 201.142C147.345 201.325 142.495 201.393 137.629 201.428C135.174 201.302 132.715 201.135 130.249 200.872C126.01 200.427 121.776 199.761 117.536 199.177C194.438 203.657 286.037 176.998 324.014 164.52C324.418 165.019 324.986 165.743 325.636 166.668C323.822 172.581 310.288 205.858 233.148 219.656ZM409.335 139.098C409.734 139.575 410.084 140.09 410.382 140.635L410.779 141.403C411.366 142.646 411.807 143.954 412.094 145.298C413.514 151.572 410.92 158.585 404.607 166.146C393.225 179.778 369.784 195.108 336.076 210.588C338.071 205.853 339.154 200.785 339.271 195.649C339.518 192.853 339.321 190.035 338.688 187.301C338.609 186.566 338.518 185.84 338.404 185.133C336.573 177.18 333.185 169.667 328.437 163.029C340.169 159.095 348.006 156.133 350.986 154.982C357.27 152.554 363.657 149.574 369.845 146.695C371.134 146.093 372.414 145.491 373.686 144.889C385.96 139.208 397.278 134.398 404.466 136.091C406.388 136.503 408.107 137.569 409.332 139.106L409.335 139.098ZM12.1995 236.116C16.1469 223.994 22.185 212.655 30.0407 202.613C42.159 186.682 46.3232 187.083 97.3918 192.055L104.716 192.774C208.492 202.809 342.531 151.535 348.172 149.359C354.452 146.93 360.839 143.95 367.03 141.076C382.025 134.08 396.193 127.468 403.739 131.229L403.783 131.244C404.781 131.746 405.668 132.443 406.392 133.293L406.284 133.256C405.93 133.135 405.566 133.038 405.195 132.951C405.076 132.91 404.942 132.896 404.813 132.869C404.684 132.843 404.498 132.802 404.338 132.774C404.267 132.75 404.185 132.753 404.109 132.741C403.894 132.707 403.686 132.676 403.45 132.649C394.921 131.665 383.059 136.958 370.434 142.831L368.463 143.752C362.335 146.612 355.996 149.568 349.814 151.959L349.517 152.072C346.444 153.249 328.85 159.902 302.921 167.716C257.183 181.419 178.127 200.854 111.834 195.507L111.158 195.45C110.054 195.358 108.948 195.261 107.853 195.154L107.809 195.139L107.339 195.095L103.068 194.679C99.5835 194.335 96.3115 194.019 93.2246 193.723C91.0859 193.518 89.032 193.321 87.0629 193.133L86.6567 193.097C86.0215 193.04 85.3956 192.982 84.7818 192.902C74.0428 191.907 65.918 191.315 59.5159 191.352C59.1947 191.353 58.8736 191.355 58.5604 191.359L58.0366 191.367C43.4702 191.671 38.3324 195.608 30.2544 206.226C29.8086 206.81 29.3623 207.409 28.9155 208.022L28.7405 208.261C28.3134 208.842 27.8871 209.439 27.4615 210.05L27.2137 210.411C26.7954 211.01 26.3752 211.619 25.9532 212.238L25.7322 212.572C25.3012 213.209 24.8727 213.855 24.4468 214.511L24.3067 214.726C23.879 215.388 23.4566 216.055 23.0395 216.729L22.9452 216.875C22.5263 217.555 22.1086 218.243 21.6922 218.941L21.4912 219.282C21.0927 219.954 20.7001 220.63 20.3131 221.311L20.1011 221.684C19.715 222.372 19.3329 223.061 18.9508 223.749L18.7698 224.084C18.3861 224.808 18.0095 225.533 17.64 226.259L17.5924 226.398C17.2313 227.116 16.8783 227.838 16.5386 228.559L16.4182 228.807C16.0799 229.52 15.7544 230.234 15.4418 230.949L15.2738 231.337C14.9716 232.04 14.676 232.736 14.3964 233.438L14.2403 233.83C13.9579 234.539 13.6903 235.245 13.432 235.949L13.3367 236.229C13.0835 236.97 12.8329 237.704 12.5865 238.426L12.5797 238.446C12.3332 239.168 12.1388 239.894 11.943 240.611L11.8464 240.894C11.6629 241.575 11.498 242.253 11.3493 242.924L11.2853 243.111C11.2933 240.75 11.6004 238.4 12.1995 236.116ZM15.9098 258.886L14.8313 256.737C14.6098 256.183 14.4274 255.615 14.2852 255.036C13.7204 252.657 13.5776 250.196 13.8634 247.768C14.5331 242.57 15.9893 237.504 18.182 232.744C22.1028 224.041 27.015 215.819 32.8211 208.242C43.7247 193.886 48.0744 192.766 87.6396 196.491C90.5205 202.218 92.6553 208.291 93.9919 214.561C95.0855 220.679 95.5349 226.894 95.3327 233.106C95.3478 246.574 90.5713 259.608 81.8574 269.877C81.8239 269.91 81.8063 269.948 81.7767 269.983C64.4124 270.053 47.0697 268.748 29.9114 266.08L29.8277 266.051C27.1189 265.97 24.4626 265.284 22.053 264.044C19.6435 262.804 17.5419 261.04 15.9018 258.883L15.9098 258.886Z" fill="#DEC7A6"/>
<path d="M81.7791 266.064C91.356 258.79 93.4747 232.68 93.4747 232.68C66.7593 258.684 42.459 251.683 31.0006 248.635C19.5422 245.587 21.9297 232.972 21.9297 232.972C9.65883 255.429 17.7585 261.311 29.8602 263.492C41.9619 265.673 81.7791 266.064 81.7791 266.064Z" fill="#DEC7A6"/>
<path d="M341.309 205.29L341.317 205.267C340.844 205.548 341.309 205.29 341.309 205.29Z" fill="#DEC7A6"/>
<path d="M378.041 178.553C354.989 188.828 335.915 168.178 335.915 168.178C348.899 188.917 341.572 204.73 341.323 205.251C342.394 204.619 348.179 201.277 374.457 186.284C412.489 164.594 409.059 147.811 409.059 147.811C406.68 159.28 394.39 171.266 378.041 178.553Z" fill="#DEC7A6"/>
<path d="M390.528 166.727C391.285 166.286 391.064 164.938 390.54 164.269C389.816 163.336 388.893 163.261 388.033 162.612C387.065 161.859 386.242 160.937 385.605 159.89C384.322 157.656 383.651 155.123 383.659 152.547C383.658 152.534 383.654 152.521 383.646 152.511C383.639 152.501 383.628 152.493 383.616 152.489C383.604 152.485 383.591 152.485 383.579 152.488C383.566 152.491 383.555 152.499 383.547 152.508C382.816 153.908 382.432 155.463 382.43 157.042C382.427 158.62 382.805 160.176 383.532 161.578C384.766 164.408 387.987 168.211 390.528 166.727Z" fill="#DEC7A6"/>
<path d="M50.0965 202.469C54.3232 200.551 58.7936 199.223 63.3821 198.522C63.4728 198.504 63.4392 198.355 63.346 198.341C58.3895 197.256 53.2223 197.671 48.5027 199.534C43.8971 202.011 40.1026 205.763 37.5729 210.341C37.4391 210.602 37.6187 211.002 37.8993 210.898C42.4813 209.372 45.7827 204.697 50.0965 202.469Z" fill="#DEC7A6"/>
<path d="M57.2496 203.611C54.9292 203.706 52.6686 204.375 50.6711 205.56C49.6358 205.989 48.7054 206.636 47.9436 207.459C47.1819 208.281 46.6067 209.258 46.2576 210.323C46.1822 210.791 46.5949 211.395 46.9925 211.326C48.7085 211.021 50.0838 208.988 51.4752 207.874C53.2982 206.45 55.2874 205.252 57.3992 204.308C57.68 204.177 57.5868 203.602 57.2496 203.611Z" fill="#DEC7A6"/>
<path d="M55.5877 210.462C56.0315 210.284 55.8653 209.31 55.3571 209.377C54.2037 209.48 53.0828 209.814 52.0611 210.358C50.9669 210.851 50.0795 211.71 49.5528 212.788C49.3581 213.358 49.8557 214.014 50.3246 213.853C51.2001 213.369 52.0111 212.777 52.7387 212.09C53.6251 211.444 54.5807 210.898 55.5877 210.462Z" fill="#DEC7A6"/>
<path d="M55.5713 216.406C55.1923 216.655 55.4686 217.515 55.9061 217.46C56.2641 217.414 56.6154 217.326 56.9527 217.198C57.5874 216.969 57.1825 215.664 56.5437 215.905C56.201 216.033 55.8745 216.201 55.5713 216.406Z" fill="#DEC7A6"/>
<path d="M392.261 141.608C392.035 141.763 392.198 142.277 392.466 142.248C395.101 141.717 397.769 141.366 400.452 141.199C402.356 140.954 404.288 141.366 405.926 142.369C407.046 143.478 407.949 144.788 408.588 146.23C408.596 146.247 408.609 146.263 408.625 146.273C408.642 146.283 408.661 146.289 408.68 146.288C408.7 146.287 408.718 146.281 408.734 146.27C408.75 146.258 408.762 146.242 408.768 146.224C410.016 143.248 406.795 140.096 404.67 139.29C402.558 138.752 400.353 138.68 398.21 139.081C396.067 139.481 394.037 140.344 392.261 141.608Z" fill="#DEC7A6"/>
<path d="M399.01 143.801C398.898 143.998 398.861 144.228 398.907 144.45C398.952 144.671 399.078 144.868 399.258 145.004C400.299 145.608 401.25 145.091 402.312 145.191C403.005 145.289 403.672 145.524 404.273 145.883C404.875 146.241 405.399 146.715 405.816 147.278C406.108 147.623 406.656 147.36 406.56 146.846C406.423 146.033 406.081 145.269 405.566 144.625C405.051 143.982 404.38 143.481 403.616 143.17C402.226 142.637 399.94 142.409 399.01 143.801Z" fill="#DEC7A6"/>
<path d="M401.845 149.467C402.558 149.592 403.258 149.782 403.936 150.034C404.3 150.194 404.563 149.5 404.218 149.209C403.902 148.875 403.561 148.567 403.196 148.289C402.817 148.065 402.411 147.892 401.987 147.774C401.626 147.616 401.233 147.544 400.84 147.564C400.446 147.584 400.063 147.696 399.72 147.891C399.645 147.973 399.588 148.069 399.553 148.174C399.518 148.279 399.506 148.391 399.517 148.501C399.528 148.611 399.562 148.718 399.618 148.814C399.673 148.91 399.748 148.993 399.838 149.058C400.485 149.287 401.16 149.424 401.845 149.467Z" fill="#DEC7A6"/>
<path d="M41.3458 243.685C41.4766 243.472 41.2939 243.12 41.0655 243.202C39.56 244.004 37.858 244.363 36.1569 244.237C34.4558 244.111 32.8253 243.505 31.4544 242.49C29.6831 240.925 28.2998 238.97 27.4135 236.779C26.5272 234.588 26.1622 232.22 26.3473 229.864C26.3621 229.482 25.9254 229.235 25.8014 229.611C24.9705 232.18 24.8727 234.929 25.5187 237.55C26.1648 240.172 27.5292 242.561 29.4587 244.449C30.2378 245.279 31.1908 245.927 32.2495 246.345C33.3082 246.764 34.4463 246.943 35.5824 246.87C36.7184 246.797 37.8242 246.473 38.8206 245.923C39.817 245.372 40.6793 244.608 41.3458 243.685Z" fill="#DEC7A6"/>
<path d="M239.293 191.497C233.938 192.037 228.694 193.371 223.732 195.456C223.362 195.668 223.685 196.299 224.011 196.335C229.184 196.258 234.31 195.34 239.188 193.617C244.694 192.657 250.086 191.13 255.278 189.06C255.468 188.973 255.404 188.586 255.187 188.584C249.814 189.09 244.496 190.065 239.293 191.497Z" fill="#DEC7A6"/>
<path d="M215.654 195.432C214.14 195.316 212.621 195.592 211.244 196.233C210.86 196.498 211.093 197.196 211.475 197.344C213.015 197.668 214.611 197.601 216.119 197.149C217.656 196.987 219.161 196.601 220.585 196.002C220.727 195.939 220.713 195.627 220.541 195.595C218.928 195.309 217.283 195.254 215.654 195.432Z" fill="#DEC7A6"/>
<path d="M318.69 170.305C313.187 171.393 307.783 172.931 302.532 174.905C297.474 176.549 291.023 177.094 286.657 180.528C286.291 180.817 286.417 181.755 286.934 181.83C292.231 182.618 297.888 179.745 302.76 178.126C308.448 176.518 313.886 174.126 318.914 171.018C319.165 170.845 318.985 170.263 318.69 170.305Z" fill="#DEC7A6"/>
<path d="M277.14 183.77C277.086 183.828 277.049 183.898 277.032 183.975C277.015 184.052 277.019 184.131 277.042 184.206C277.066 184.281 277.11 184.348 277.168 184.4C277.226 184.453 277.298 184.489 277.375 184.505C279.243 184.555 281.061 183.892 282.46 182.652C282.543 182.591 282.48 182.436 282.388 182.432C280.532 182.192 278.655 182.671 277.14 183.77Z" fill="#DEC7A6"/>
<path d="M354.797 194.122C357.351 194.193 359.867 192.171 362.05 190.863C364.904 189.114 367.569 187.074 370.002 184.775C370.016 184.735 370.003 184.655 369.96 184.676C367.093 186.213 364.221 187.726 361.368 189.313C358.838 190.245 356.505 191.645 354.492 193.439C354.455 193.503 354.435 193.573 354.431 193.646C354.428 193.719 354.441 193.792 354.471 193.858C354.501 193.925 354.546 193.983 354.602 194.029C354.659 194.075 354.726 194.107 354.797 194.122Z" fill="white"/>
<path d="M348.565 197.575C348.667 197.603 348.774 197.606 348.878 197.584C349.994 197.366 350.999 196.763 351.717 195.881C352.103 195.771 352.453 195.559 352.728 195.266C353.003 194.974 353.195 194.612 353.281 194.22C353.364 193.977 353.157 193.697 352.951 193.764C352.551 193.895 352.11 193.882 351.7 193.974C351.29 194.075 350.863 194.082 350.451 193.993C349.695 193.82 348.958 192.771 348.229 192.909L348.184 192.925C348.168 192.108 348.075 191.295 347.904 190.496C346.851 186.03 345.442 181.656 343.692 177.414C343.65 177.315 343.512 177.317 343.529 177.448C343.969 180.163 344.805 182.839 345.423 185.517C345.867 187.25 346.219 189.005 346.478 190.775C346.68 192.438 346.363 193.969 346.46 195.574C346.588 197.639 347.522 197.967 348.565 197.575Z" fill="white"/>
<path d="M323.321 212.026C326.949 210.379 329.997 207.677 332.068 204.273C333.892 199.645 334.499 194.629 333.833 189.7C333.81 189.247 333.319 189.249 333.253 189.627C332.305 195.27 331.882 201.466 328.157 205.191C325.291 207.623 322.123 209.677 318.733 211.301C312.162 215.132 304.421 217.289 298.455 222.19C298.328 222.289 298.415 222.555 298.569 222.549C307.122 222.379 315.984 216.482 323.321 212.026Z" fill="white"/>
<path d="M291.824 225.482C292.555 225.252 293.273 224.985 293.976 224.681C294.702 224.238 295.347 223.673 295.882 223.012C295.957 222.935 295.951 222.719 295.819 222.701C295.064 222.521 294.285 222.461 293.511 222.523C292.768 222.696 292.038 222.923 291.329 223.203C290.097 223.602 288.136 223.738 287.575 225.315C287.532 225.451 287.532 225.598 287.575 225.735C287.619 225.872 287.703 225.992 287.818 226.079C289.095 226.969 290.66 225.918 291.824 225.482Z" fill="white"/>
<path d="M281.488 228.732C282.29 228.253 283.013 227.655 283.634 226.958C283.675 226.918 283.652 226.816 283.592 226.823C282.712 226.813 281.837 226.934 280.993 227.182C280.338 227.404 279.289 227.687 279.057 228.588C279.024 228.694 279.024 228.808 279.058 228.914C279.092 229.021 279.157 229.114 279.246 229.182C279.994 229.664 280.837 229.062 281.488 228.732Z" fill="white"/>
<path d="M127.179 249.798C126.658 250.15 126.972 251.121 127.497 251.318C131.684 252.143 136.008 251.938 140.097 250.722C144.247 250.133 148.351 249.26 152.38 248.107C152.646 248.033 152.508 247.549 152.259 247.536C147.579 247.264 142.886 247.34 138.217 247.764C134.426 247.514 130.632 248.213 127.179 249.798Z" fill="white"/>
<path d="M118.171 249.096C117.534 249.137 117.336 249.363 116.88 249.827C116.773 249.941 116.714 250.092 116.713 250.248C116.712 250.405 116.771 250.556 116.876 250.671C117.16 251.046 117.544 251.331 117.984 251.495C118.575 251.623 119.184 251.642 119.781 251.552C120.895 251.417 121.991 251.165 123.052 250.803C123.322 250.704 123.241 250.249 122.983 250.143C121.885 249.71 120.746 249.39 119.583 249.187C119.117 249.103 118.643 249.072 118.171 249.096Z" fill="white"/>
<path d="M108.526 249.29C107.321 249.323 105.915 249.035 105.238 250.393C105.189 250.547 105.181 250.711 105.213 250.87C105.246 251.028 105.318 251.175 105.423 251.298C106.415 252.527 108.105 251.907 109.257 251.806C109.895 251.788 110.527 251.688 111.14 251.509C111.816 251.263 112.324 250.648 113.006 250.489C113.189 250.449 113.087 250.121 112.927 250.106C112.188 250.041 111.426 249.456 110.67 249.336C109.96 249.24 109.241 249.225 108.526 249.29Z" fill="white"/>
<path d="M332.125 184.557C332.435 180.245 327.519 163.067 322.305 166.901C322.111 167.078 321.965 167.301 321.88 167.549C321.796 167.797 321.775 168.063 321.82 168.321L321.886 168.713C321.908 168.94 321.99 169.156 322.124 169.34C322.258 169.523 322.439 169.668 322.648 169.757C323.488 170.008 324.196 169.774 325.038 170.373C326.363 171.585 327.458 173.027 328.269 174.629C329.761 177.84 331.001 181.162 331.979 184.565C332.006 184.645 332.113 184.655 332.125 184.557Z" fill="white"/>
<path d="M94.5269 265.879C103.687 265.942 112.84 265.371 121.921 264.171C126.865 263.735 132.026 263.475 137.082 262.802C146.982 262.134 156.861 261.29 166.682 260.083C177.218 258.924 187.662 257.046 197.941 254.462C208.423 251.466 218.709 247.822 228.739 243.55C228.909 243.483 228.804 243.153 228.633 243.21C207.771 249.269 186.351 253.208 164.698 254.966C157.01 255.819 149.293 256.461 141.557 256.973C136.088 257.003 130.648 257.323 125.184 257.639C117.652 258.074 110.076 258.185 102.547 258.625C102.4 258.467 102.198 258.371 101.983 258.357C101.767 258.343 101.554 258.412 101.388 258.55L101.281 258.63C102.411 255.77 103.17 252.777 103.542 249.725C103.689 248.929 103.819 248.119 103.93 247.284C103.955 247.077 103.94 246.866 103.888 246.664C104.19 242.711 104.228 238.742 104.003 234.783C103.559 225.102 101.57 215.553 98.11 206.5C97.9032 205.984 97.3234 206.196 97.4674 206.726C98.273 209.583 98.9314 212.507 99.479 215.454C100.043 220.99 100.917 226.373 100.965 231.787C100.952 232.646 100.943 233.507 100.897 234.36C100.862 235.14 100.81 235.92 100.75 236.696C100.701 237.178 100.643 237.661 100.575 238.146C100.136 241.247 99.6418 244.311 99.0482 247.341C97.5855 252.976 95.6168 258.468 93.1658 263.749C93.0832 263.922 93.0378 264.109 93.0324 264.301C93.027 264.492 93.0617 264.682 93.1344 264.859C93.2071 265.035 93.3161 265.195 93.4544 265.327C93.5927 265.459 93.7572 265.56 93.9371 265.625C94.1036 265.767 94.3091 265.856 94.5269 265.879Z" fill="white"/>
<path d="M57.4305 262.018C64.9908 262.855 72.6238 262.791 80.169 261.828C80.2544 261.812 80.2716 261.645 80.1678 261.623C73.0935 260.389 65.9289 259.745 58.7479 259.698C51.1863 258.787 43.5593 258.542 35.9548 258.965C35.7507 258.989 35.7347 259.362 35.9622 259.413C42.9906 261.125 50.1967 261.999 57.4305 262.018Z" fill="white"/>
<path d="M21.9869 256.12C25.2751 258.291 29.2265 259.226 33.1392 258.76L33.1418 258.753C29.9827 257.768 19.8996 256.547 19.8031 250.739C19.803 250.569 19.5957 250.485 19.5229 250.607C18.0986 252.967 20.1213 255.011 21.9869 256.12Z" fill="white"/>
<path d="M19.5657 247.928C19.5607 247.877 19.4967 247.882 19.5017 247.932L19.5385 248.737C19.5181 248.797 19.6233 248.802 19.6198 248.734L19.5657 247.928Z" fill="white"/>
<path d="M117.916 242.094C120.215 242.93 122.726 242.979 125.055 242.233C127.664 241.846 130.215 241.135 132.648 240.119C132.909 240.007 132.817 239.428 132.513 239.471C129.817 239.829 127.147 240.24 124.431 240.475C122.279 240.662 119.748 240.212 117.851 241.345C117.631 241.493 117.692 241.968 117.916 242.094Z" fill="white"/>
<path d="M115.641 241.753C114.404 241.776 113.095 241.254 111.817 241.214C110.719 241.031 109.592 241.25 108.641 241.83C108.537 241.944 108.458 242.079 108.409 242.225C108.361 242.371 108.344 242.527 108.359 242.68C108.375 242.834 108.423 242.982 108.501 243.116C108.578 243.249 108.683 243.365 108.808 243.455C109.816 243.858 110.934 243.894 111.966 243.557C112.495 243.44 113.017 243.294 113.531 243.121C114.235 242.805 114.957 242.531 115.694 242.301C115.97 242.262 115.929 241.745 115.641 241.753Z" fill="white"/>
<path d="M117.01 232.473C115.597 232.609 113.31 232.225 112.413 233.691C112.321 233.851 112.28 234.035 112.297 234.219C112.314 234.403 112.388 234.577 112.508 234.717C113.83 236.179 116.108 235.389 117.58 235.135C119.418 234.922 121.183 234.291 122.739 233.289C123.014 233.094 122.895 232.452 122.548 232.373C120.706 232.158 118.843 232.191 117.01 232.473Z" fill="white"/>
<path d="M117.657 226.157C117.012 225.858 116.301 225.727 115.592 225.777C115.066 225.869 114.229 226.024 113.926 226.575C113.869 226.673 113.85 226.789 113.873 226.9C113.896 227.011 113.958 227.11 114.049 227.178C114.556 227.44 115.14 227.283 115.671 227.384C116.286 227.449 116.895 227.553 117.497 227.696C118.292 227.95 118.449 226.458 117.657 226.157Z" fill="white"/>
<path d="M270.858 231.537C272.628 230.977 274.293 230.128 275.786 229.024C275.862 228.942 275.915 228.841 275.939 228.731C275.964 228.621 275.959 228.507 275.925 228.4C275.891 228.293 275.829 228.197 275.746 228.121C275.663 228.046 275.561 227.994 275.451 227.97C273.614 228.078 271.819 228.568 270.182 229.409C268.575 229.995 266.79 230.344 265.824 232.08C265.68 232.343 265.771 232.77 266.073 232.85C267.844 233.348 269.298 232.26 270.858 231.537Z" fill="white"/>
<path d="M259.9 235.214C260.737 234.974 261.527 234.593 262.235 234.087C262.483 233.909 262.245 233.485 261.981 233.528C261.19 233.704 260.436 233.892 259.654 234.07C258.989 234.217 258.067 234.192 257.539 234.684C257.496 234.73 257.464 234.785 257.444 234.845C257.424 234.905 257.417 234.968 257.423 235.031C257.429 235.094 257.449 235.154 257.481 235.209C257.512 235.264 257.555 235.311 257.606 235.348C258.36 235.597 259.18 235.549 259.9 235.214Z" fill="white"/>
</g>
</svg>
