<svg width="62" height="62" viewBox="0 0 62 62" fill="none" xmlns="http://www.w3.org/2000/svg">
<rect width="62" height="62" fill="#3C3C3C"/>
<path d="M34.633 43.6905L34.6478 43.6991C35.9584 44.5336 37.5145 44.896 39.0589 44.7266C40.6033 44.5572 42.0438 43.8661 43.1424 42.7675L44.0975 41.8124C44.5241 41.3853 44.7637 40.8063 44.7637 40.2027C44.7637 39.5991 44.5241 39.0201 44.0975 38.593L40.0736 34.5715C39.6465 34.1449 39.0675 33.9053 38.4639 33.9053C37.8602 33.9053 37.2813 34.1449 36.8541 34.5715V34.5715C36.6429 34.783 36.3921 34.9507 36.116 35.0652C35.8399 35.1797 35.5439 35.2386 35.2451 35.2386C34.9462 35.2386 34.6502 35.1797 34.3741 35.0652C34.098 34.9507 33.8472 34.783 33.636 34.5715L27.1971 28.1314C26.7706 27.7043 26.531 27.1254 26.531 26.5217C26.531 25.9181 26.7706 25.3391 27.1971 24.912V24.912C27.4086 24.7008 27.5764 24.45 27.6908 24.1739C27.8053 23.8978 27.8642 23.6018 27.8642 23.3029C27.8642 23.004 27.8053 22.7081 27.6908 22.432C27.5764 22.1559 27.4086 21.905 27.1971 21.6938L23.1744 17.6662C22.7473 17.2396 22.1683 17 21.5647 17C20.9611 17 20.3821 17.2396 19.955 17.6662L18.9999 18.6213C17.9015 19.72 17.2104 21.1603 17.0408 22.7046C16.8712 24.249 17.2332 25.805 18.067 27.1159L18.0769 27.1307C22.4864 33.6581 28.1065 39.2796 34.633 43.6905V43.6905Z" stroke="white" stroke-width="2.4375" stroke-linecap="round" stroke-linejoin="round"/>
</svg>
