<svg width="395" height="309" viewBox="0 0 395 309" fill="none" xmlns="http://www.w3.org/2000/svg">
<g opacity="0.22">
<path d="M356.842 149.293C357.792 149.84 358.883 150.092 359.976 150.018C361.07 149.945 362.117 149.549 362.986 148.881C363.855 148.213 364.506 147.303 364.858 146.265C365.209 145.227 365.246 144.108 364.962 143.049L350.053 87.4089C349.884 86.6863 349.571 86.0052 349.133 85.4059C348.695 84.8066 348.141 84.3014 347.504 83.9202C346.868 83.5391 346.161 83.2898 345.425 83.1872C344.69 83.0845 343.942 83.1306 343.225 83.3227C342.508 83.5148 341.837 83.849 341.252 84.3054C340.667 84.7618 340.179 85.3312 339.818 85.9797C339.457 86.6282 339.23 87.3426 339.151 88.0805C339.071 88.8185 339.141 89.5649 339.355 90.2754L343.215 104.68C343.804 106.893 343.49 109.249 342.343 111.232C341.196 113.214 339.309 114.66 337.097 115.253L333.406 116.242C331.793 116.681 330.108 116.794 328.45 116.577C326.793 116.36 325.195 115.815 323.749 114.976L312.277 108.353C311.072 107.662 309.643 107.476 308.301 107.835C306.959 108.195 305.815 109.07 305.117 110.271L298.494 121.743C296.8 124.659 294.023 126.788 290.768 127.667L282.111 129.987C280.604 130.389 279 130.177 277.649 129.398C276.299 128.619 275.312 127.337 274.905 125.831L271.269 112.26C268.855 109.788 265.322 107.253 262.143 108.337C260.663 108.846 259.824 111.219 258.617 112.474L263.048 129.009C263.45 130.514 263.238 132.118 262.459 133.468C261.679 134.818 260.396 135.804 258.891 136.208L241.218 140.944C240.138 141.233 239.033 141.418 237.918 141.495C233.833 141.822 229.767 140.662 226.47 138.228C223.376 135.919 219.799 134.342 216.008 133.615C212.218 132.888 208.311 133.029 204.583 134.028C200.854 135.027 197.401 136.858 194.481 139.383C191.562 141.908 189.253 145.063 187.728 148.608C186.689 150.989 185.122 153.102 183.146 154.787C181.169 156.472 178.834 157.685 176.319 158.333L158.662 163.065C157.915 163.262 157.138 163.317 156.371 163.226C155.213 163.073 154.126 162.58 153.248 161.81C152.37 161.039 151.739 160.026 151.437 158.898L147.023 142.427C146.777 141.535 146.333 140.712 145.722 140.018C145.463 140.371 145.08 140.614 144.65 140.699C144.219 140.784 143.773 140.705 143.398 140.476C141.993 139.708 140.345 139.516 138.801 139.941C137.257 140.367 135.939 141.376 135.126 142.755C134.916 143.694 134.933 144.67 135.176 145.601L139.594 162.088C139.995 163.595 139.781 165.199 139.001 166.549C138.221 167.899 136.937 168.884 135.432 169.289L126.774 171.609C125.068 172.064 123.285 172.157 121.541 171.881C120.092 171.632 118.669 171.257 117.285 170.761C114.59 169.953 112.077 168.631 109.884 166.867C109.84 166.837 109.802 166.797 109.774 166.751C109.746 166.705 109.728 166.653 109.722 166.6L109.445 166.408C109.142 166.398 108.844 166.33 108.567 166.209C105.365 164.806 100.994 162.875 98.418 166.549C98.3478 166.654 98.2536 166.74 98.1432 166.801C98.0327 166.862 97.9093 166.896 97.7831 166.9L91.8868 177.12C90.1906 180.036 87.4127 182.165 84.1561 183.045L80.4654 184.034C78.2531 184.627 75.8962 184.318 73.9116 183.175C71.9271 182.031 70.4773 180.148 69.8804 177.936L66.0165 163.516C65.6364 162.098 64.7083 160.888 63.4364 160.154C62.1645 159.42 60.653 159.221 59.2344 159.601C57.8158 159.981 56.6062 160.909 55.8719 162.181C55.1376 163.453 54.9387 164.964 55.3188 166.383L70.2275 222.023C70.6137 223.45 71.549 224.666 72.8292 225.406C73.7803 225.948 74.8703 226.196 75.9623 226.12C77.0543 226.044 78.0996 225.647 78.9666 224.979C79.8335 224.31 80.4835 223.401 80.8348 222.364C81.1861 221.327 81.223 220.21 80.941 219.152L77.0856 204.764C76.4951 202.549 76.8072 200.19 77.9533 198.205C79.0994 196.22 80.9861 194.77 83.1994 194.174L86.89 193.185C90.1561 192.318 93.6329 192.78 96.5588 194.471L108.025 201.096C109.231 201.784 110.659 201.968 112 201.609C113.341 201.25 114.485 200.376 115.185 199.177L121.808 187.706C122.637 186.253 123.746 184.979 125.072 183.959C126.397 182.939 127.913 182.194 129.53 181.766L138.187 179.446C139.697 179.046 141.304 179.261 142.656 180.044C144.007 180.827 144.994 182.114 145.398 183.623L149.855 200.257C150.287 201.759 151.287 203.034 152.644 203.81C153.693 204.423 154.901 204.709 156.114 204.633C157.327 204.557 158.49 204.121 159.454 203.382C160.419 202.644 161.142 201.634 161.532 200.483C161.921 199.332 161.959 198.091 161.641 196.918L157.228 180.447C156.824 178.936 157.037 177.326 157.819 175.971C158.601 174.616 159.889 173.627 161.4 173.22L179.058 168.489C181.562 167.795 184.191 167.679 186.746 168.15C189.301 168.622 191.716 169.669 193.807 171.211C196.565 173.269 199.71 174.748 203.054 175.56C206.398 176.371 209.872 176.497 213.266 175.931C216.66 175.366 219.905 174.119 222.805 172.267C225.705 170.415 228.201 167.995 230.142 165.154C231.092 163.807 231.897 162.362 232.541 160.843C233.58 158.46 235.148 156.344 237.126 154.656C239.103 152.968 241.439 151.752 243.956 151.1L261.634 146.363C263.144 145.963 264.75 146.178 266.101 146.961C267.452 147.745 268.437 149.032 268.84 150.541L273.252 167.007C273.454 167.786 273.812 168.516 274.302 169.155C274.792 169.793 275.406 170.326 276.107 170.723C277.158 171.333 278.366 171.618 279.578 171.541C280.791 171.464 281.954 171.029 282.918 170.29C283.883 169.551 284.607 168.543 284.998 167.393C285.389 166.242 285.43 165.001 285.115 163.828L280.703 147.362C280.299 145.853 280.509 144.246 281.288 142.892C282.067 141.538 283.352 140.548 284.859 140.14L293.517 137.82C296.783 136.953 300.26 137.415 303.185 139.106L314.647 145.732C315.853 146.42 317.282 146.604 318.624 146.245C319.966 145.885 321.111 145.011 321.812 143.812L328.43 132.342C329.259 130.888 330.369 129.614 331.696 128.594C333.022 127.574 334.539 126.828 336.156 126.4L339.847 125.411C342.062 124.821 344.421 125.133 346.406 126.279C348.391 127.425 349.84 129.312 350.436 131.525L354.29 145.908C354.472 146.613 354.79 147.275 355.228 147.856C355.666 148.437 356.215 148.925 356.842 149.293ZM221.558 139.51C211.828 136.076 200.397 141.371 192.719 147.051C192.615 147.129 192.515 146.987 192.558 146.896C197.55 135.765 212.467 129.836 221.78 139.117C221.942 139.277 221.809 139.584 221.558 139.51Z" fill="#F8F5EF"/>
<path d="M368.402 52.4191L341.355 59.6665C340.36 59.9271 339.303 59.797 338.402 59.303C337.5 58.8089 336.822 57.9884 336.506 57.0099C336.365 56.525 336.323 56.0166 336.383 55.5151C336.443 55.0137 336.603 54.5294 336.854 54.0912C337.153 53.5509 337.556 53.0758 338.041 52.6936C338.526 52.3114 339.082 52.0299 339.677 51.8656C341.298 51.4297 342.68 50.3683 343.52 48.9143C344.359 47.4604 344.587 45.7328 344.154 44.1108L336.751 16.4832C336.19 14.3985 334.824 12.6216 332.955 11.5421C331.085 10.4625 328.863 10.1685 326.777 10.7246L37.1042 88.3422C35.0199 88.9036 33.2435 90.2691 32.1649 92.1388C31.0863 94.0085 30.7935 96.2297 31.3508 98.3151L38.7536 125.943C39.1895 127.564 40.251 128.946 41.7049 129.785C43.1588 130.625 44.8864 130.853 46.5084 130.42C47.1022 130.268 47.7202 130.237 48.3264 130.327C48.9326 130.416 49.5148 130.626 50.0392 130.943C50.4724 131.194 50.8509 131.529 51.1522 131.929C51.4534 132.329 51.6713 132.785 51.7929 133.27C52.0206 134.263 51.8565 135.305 51.3348 136.179C51.0781 136.632 50.7329 137.029 50.3196 137.345C49.9064 137.662 49.4336 137.892 48.9295 138.022L21.8819 145.269C19.6965 145.858 17.8338 147.289 16.7022 149.249C15.5705 151.209 15.2624 153.538 15.8454 155.725L41.3751 251.003C41.6697 252.086 42.1748 253.1 42.8616 253.988C43.5484 254.876 44.4034 255.62 45.3777 256.178C46.352 256.735 47.4265 257.096 48.54 257.238C49.6535 257.38 50.784 257.302 51.8672 257.007L78.9148 249.76C79.9093 249.499 80.966 249.629 81.8677 250.123C82.7693 250.617 83.4475 251.438 83.7631 252.416C83.904 252.901 83.946 253.409 83.8861 253.911C83.8263 254.412 83.6661 254.897 83.4151 255.335C83.1195 255.872 82.7201 256.344 82.24 256.725C81.76 257.106 81.2089 257.388 80.6189 257.553C78.9976 257.989 77.6156 259.051 76.7762 260.505C75.9368 261.959 75.7085 263.686 76.1416 265.308L83.5444 292.936C84.1045 295.02 85.4688 296.798 87.3378 297.877C89.2067 298.957 91.4277 299.252 93.5134 298.696L267.103 252.183C267.739 252.224 268.371 252.055 268.901 251.701L383.207 221.073C385.292 220.511 387.069 219.146 388.149 217.276C389.228 215.406 389.522 213.184 388.966 211.098L381.563 183.471C381.127 181.849 380.066 180.467 378.612 179.628C377.158 178.789 375.431 178.56 373.809 178.993C373.211 179.149 372.589 179.183 371.978 179.094C371.367 179.006 370.78 178.796 370.251 178.477C369.818 178.226 369.44 177.891 369.139 177.491C368.838 177.092 368.62 176.635 368.498 176.15C368.27 175.158 368.434 174.116 368.956 173.241C369.213 172.789 369.558 172.392 369.971 172.076C370.384 171.759 370.857 171.529 371.361 171.399L398.409 164.151C400.594 163.563 402.457 162.132 403.588 160.172C404.72 158.212 405.028 155.883 404.445 153.696L378.921 58.4387C378.628 57.3512 378.123 56.3323 377.436 55.4406C376.748 54.5489 375.89 53.8019 374.913 53.2425C373.935 52.6831 372.857 52.3224 371.74 52.1811C370.622 52.0398 369.488 52.1207 368.402 52.4191ZM267.603 58.6099L258.077 102.607C256.785 103.608 255.749 104.9 255.052 106.378L254.059 110.6L254.006 111.078C254.012 111.945 254.132 112.808 254.36 113.644L255.082 116.339L251.336 133.634L240.069 136.653C239.473 136.807 238.866 136.919 238.254 136.987L254.338 62.0399C258.747 60.8642 263.144 59.7481 267.603 58.6099ZM264.381 246.074L210.402 260.538C214.507 253.279 217.537 245.462 219.397 237.332C219.456 237.089 219.486 236.84 219.486 236.591L229.55 234.08L229.898 233.987C242.647 230.797 255.368 227.517 268.061 224.146C267.68 225.543 267.371 226.959 267.136 228.389C265.823 234.216 264.903 240.124 264.381 246.074ZM158.78 274.37C163.256 266.31 166.766 257.75 169.238 248.868C171.429 248.356 173.62 247.835 175.81 247.305C173.217 255.088 171.408 263.111 170.411 271.254L158.78 274.37ZM104.004 96.3487C103.99 96.2963 103.961 96.2492 103.92 96.2131C103.879 96.177 103.829 96.1536 103.775 96.1458C103.722 96.138 103.667 96.1461 103.617 96.1691C103.568 96.1921 103.527 96.2289 103.498 96.2752L103.401 96.5218C101.406 97.0903 99.4171 97.6626 97.4263 98.2469C98.664 93.6513 99.6667 88.9955 100.43 84.2978C100.59 83.5655 101.621 80.3056 102.078 77.7928L182.219 56.3191C181.002 59.222 180.255 62.4454 179.249 65.3143C177.823 69.3979 176.056 73.4315 174.73 77.5504C151.096 83.6176 127.45 89.6651 103.988 96.353L104.004 96.3487ZM203.778 50.5424C202.589 53.3885 201.55 56.2946 200.663 59.2488C198.608 63.2513 197.195 67.5525 196.478 71.9943L193.161 72.8379C193.745 70.6752 194.178 68.4739 194.721 66.5767C196.122 61.8805 197.09 57.0662 197.615 52.1939L203.778 50.5424ZM236.92 41.6619C235.213 44.8449 233.784 48.1698 232.649 51.5992C231.061 55.6471 229.446 59.804 228.203 64.0022L224.031 65.0522C225.364 61.9207 226.504 58.7108 227.446 55.4404C228.904 51.5095 230 47.4536 230.72 43.3232L236.92 41.6619ZM247.908 38.7177C246.094 43.0183 244.229 47.2985 242.517 51.6451C241.301 54.74 239.611 58.0295 238.649 61.3784L235.008 62.2976C235.824 59.8185 236.564 57.3089 237.306 54.827C239.095 50.304 240.191 45.5371 240.558 40.6871L247.908 38.7177ZM339.82 125.414L336.13 126.403C334.512 126.831 332.995 127.577 331.669 128.597C330.342 129.617 329.232 130.891 328.403 132.344L321.785 143.815C321.085 145.014 319.939 145.888 318.597 146.248C317.256 146.607 315.827 146.423 314.62 145.735L303.159 139.109C300.233 137.418 296.756 136.955 293.49 137.823L284.833 140.142C283.325 140.551 282.041 141.541 281.262 142.894C280.483 144.248 280.272 145.856 280.676 147.365L285.088 163.831C285.403 165.004 285.363 166.245 284.972 167.395C284.581 168.546 283.857 169.554 282.892 170.293C281.927 171.031 280.764 171.467 279.552 171.544C278.339 171.621 277.131 171.336 276.08 170.726C275.38 170.329 274.766 169.796 274.275 169.158C273.785 168.519 273.428 167.789 273.225 167.009L268.815 150.549C268.412 149.04 267.427 147.753 266.076 146.969C264.725 146.186 263.119 145.971 261.609 146.371L243.941 151.105C241.424 151.757 239.089 152.973 237.111 154.661C235.133 156.35 233.566 158.465 232.526 160.849C231.882 162.367 231.078 163.812 230.127 165.159C228.186 168.001 225.69 170.42 222.79 172.272C219.89 174.124 216.646 175.371 213.251 175.937C209.857 176.502 206.383 176.376 203.039 175.565C199.695 174.754 196.55 173.274 193.792 171.216C191.701 169.674 189.286 168.627 186.731 168.156C184.176 167.684 181.547 167.8 179.043 168.494L161.385 173.226C159.875 173.632 158.587 174.621 157.805 175.976C157.022 177.331 156.81 178.941 157.213 180.452L161.625 196.918C161.943 198.091 161.905 199.332 161.515 200.483C161.126 201.634 160.403 202.643 159.438 203.382C158.474 204.121 157.311 204.557 156.098 204.633C154.885 204.709 153.677 204.423 152.628 203.81C151.271 203.034 150.271 201.759 149.839 200.257L145.382 183.623C144.978 182.114 143.991 180.827 142.64 180.044C141.288 179.261 139.681 179.046 138.171 179.446L129.514 181.766C127.897 182.194 126.381 182.939 125.056 183.959C123.73 184.979 122.621 186.253 121.792 187.706L115.153 199.182C114.453 200.38 113.309 201.254 111.968 201.613C110.627 201.973 109.199 201.788 107.993 201.1L96.5268 194.475C93.6009 192.785 90.1243 192.322 86.8582 193.19L83.1674 194.179C80.9541 194.775 79.0674 196.224 77.9213 198.209C76.7752 200.194 76.4633 202.553 77.0537 204.768L80.9105 219.162C81.125 219.872 81.1945 220.619 81.1149 221.356C81.0354 222.094 80.8085 222.809 80.4476 223.457C80.0866 224.106 79.599 224.675 79.0137 225.132C78.4284 225.588 77.7574 225.922 77.0405 226.114C76.3235 226.306 75.5754 226.352 74.8404 226.25C74.1053 226.147 73.3983 225.898 72.7614 225.517C72.1246 225.136 71.5709 224.63 71.1331 224.031C70.6952 223.432 70.3822 222.751 70.2127 222.028L55.304 166.388C54.9238 164.969 55.1229 163.458 55.8572 162.186C56.5915 160.914 57.801 159.986 59.2196 159.606C60.6382 159.226 62.1498 159.425 63.4217 160.159C64.6936 160.893 65.6217 162.103 66.0018 163.522L69.8615 177.926C70.4584 180.137 71.9082 182.021 73.8927 183.164C75.8773 184.307 78.2342 184.617 80.4465 184.024L84.1372 183.035C87.3938 182.155 90.1717 180.025 91.8679 177.109L97.7642 166.889C97.8904 166.886 98.0137 166.852 98.1241 166.791C98.2346 166.73 98.3289 166.643 98.3991 166.538C100.975 162.864 105.336 164.821 108.547 166.198C108.825 166.32 109.123 166.387 109.426 166.398L109.703 166.589C109.709 166.643 109.727 166.694 109.755 166.741C109.783 166.787 109.82 166.826 109.865 166.856C112.069 168.623 114.596 169.944 117.304 170.746C118.688 171.242 120.112 171.617 121.56 171.866C123.305 172.141 125.087 172.049 126.794 171.594L135.451 169.274C136.957 168.869 138.24 167.884 139.021 166.534C139.801 165.184 140.014 163.58 139.613 162.073L135.198 145.596C134.955 144.665 134.938 143.69 135.148 142.751C135.961 141.371 137.279 140.362 138.823 139.937C140.367 139.511 142.016 139.703 143.421 140.472C143.795 140.7 144.242 140.779 144.672 140.694C145.102 140.61 145.485 140.366 145.744 140.013C146.355 140.707 146.8 141.531 147.045 142.422L151.463 158.909C151.766 160.037 152.396 161.051 153.275 161.821C154.153 162.592 155.24 163.084 156.398 163.238C157.165 163.328 157.942 163.273 158.688 163.076L176.346 158.345C178.861 157.696 181.195 156.483 183.172 154.798C185.149 153.113 186.716 151 187.754 148.62C189.28 145.074 191.589 141.92 194.508 139.394C197.427 136.869 200.881 135.038 204.609 134.039C208.338 133.04 212.244 132.899 216.035 133.626C219.826 134.354 223.402 135.931 226.496 138.239C229.793 140.673 233.859 141.833 237.945 141.506C239.06 141.429 240.165 141.244 241.244 140.955L258.923 136.218C260.428 135.813 261.711 134.828 262.49 133.478C263.27 132.128 263.482 130.524 263.08 129.018L258.645 112.468C259.857 111.234 260.691 108.84 262.17 108.331C265.35 107.247 268.882 109.782 271.297 112.254L274.933 125.825C275.339 127.331 276.326 128.613 277.677 129.392C279.027 130.171 280.632 130.383 282.138 129.981L290.796 127.661C294.051 126.782 296.828 124.653 298.521 121.737L305.144 110.265C305.842 109.064 306.987 108.188 308.328 107.829C309.67 107.47 311.099 107.656 312.304 108.347L323.776 114.97C325.222 115.809 326.82 116.354 328.478 116.571C330.136 116.788 331.82 116.674 333.434 116.236L337.125 115.247C339.337 114.654 341.223 113.208 342.37 111.226C343.517 109.243 343.831 106.887 343.242 104.674L339.383 90.2693C339.168 89.5588 339.099 88.8125 339.178 88.0745C339.258 87.3366 339.485 86.6221 339.846 85.9736C340.207 85.3251 340.694 84.7558 341.28 84.2993C341.865 83.8429 342.536 83.5087 343.253 83.3166C343.97 83.1245 344.718 83.0784 345.453 83.1811C346.188 83.2837 346.895 83.533 347.532 83.9142C348.169 84.2953 348.722 84.8005 349.16 85.3999C349.598 85.9991 349.911 86.6803 350.081 87.4029L364.989 143.043C365.204 143.753 365.273 144.5 365.194 145.238C365.114 145.976 364.887 146.69 364.526 147.339C364.165 147.987 363.678 148.556 363.093 149.013C362.507 149.469 361.836 149.804 361.119 149.996C360.402 150.188 359.654 150.234 358.919 150.131C358.184 150.028 357.477 149.779 356.84 149.398C356.203 149.017 355.65 148.512 355.212 147.912C354.774 147.313 354.461 146.632 354.292 145.909L350.436 131.521C350.14 130.423 349.631 129.394 348.938 128.492C348.244 127.591 347.38 126.835 346.394 126.268C345.408 125.701 344.32 125.334 343.192 125.187C342.064 125.041 340.919 125.118 339.82 125.414ZM217.87 232.119L230.934 171.21C231.966 170.116 232.913 168.944 233.764 167.705C234.89 166.114 235.84 164.406 236.598 162.611C237.385 160.851 238.557 159.29 240.027 158.042C241.497 156.795 243.228 155.892 245.093 155.402L246.738 154.961L230.755 228.643L228.293 229.303C224.804 230.245 221.328 231.177 217.864 232.098L217.87 232.119ZM221.929 52.0814C219.63 56.6683 218.117 61.6084 217.453 66.6961L214.34 67.4794C215.249 64.5459 215.843 61.4879 216.454 58.7302C217.495 54.8056 218.04 50.7659 218.075 46.7058L224.982 44.8551C223.839 47.2126 222.881 49.6676 221.929 52.0814ZM210.474 58.0496C209.067 61.7559 207.853 65.5328 206.838 69.3652L202.688 70.4096C203.768 66.8482 204.842 63.2883 205.946 59.7319C207.372 56.3749 208.31 52.8315 208.733 49.2091L214.084 47.7752C212.688 51.1308 211.483 54.5629 210.476 58.0549L210.474 58.0496ZM189.186 65.0704C187.998 68.1919 186.99 71.379 186.167 74.6159L184.177 75.1208L180.534 76.0573C181.74 72.9422 182.775 69.7635 183.634 66.5355C184.863 62.9227 185.596 59.1601 185.813 55.3503L193.648 53.251C191.885 57.0774 190.403 61.027 189.214 65.0686L189.186 65.0704ZM182.28 245.763C184.584 245.208 186.884 244.642 189.176 244.085C188.004 247.513 187.164 251.106 186.163 254.499C184.653 258.802 183.665 263.271 183.22 267.81L173.967 270.289C177.402 262.354 180.182 254.152 182.28 245.763ZM190.926 256.941C192.87 252.226 194.506 247.39 195.822 242.462L200.026 241.426C198.953 244.212 198.134 247.126 197.249 249.856C195.421 254.715 194.272 259.803 193.836 264.977L186.819 266.857C188.434 263.66 189.805 260.346 190.921 256.942L190.926 256.941ZM201.652 253.191C203.739 248.79 205.572 244.272 207.142 239.661L213.3 238.135C211.722 242.791 210.434 247.583 209.004 252.283C208.076 255.358 207.037 258.461 206.317 261.638L196.685 264.219C198.6 260.667 200.259 256.982 201.647 253.192L201.652 253.191ZM259.137 220.976L254.149 222.313L267.114 161.029L269.017 168.131C269.231 168.919 269.533 169.68 269.918 170.399C265.723 176.044 265.587 186.252 264.295 192.667C261.618 201.888 259.897 211.359 259.159 220.931L259.137 220.976ZM281.041 125.697L281.005 125.707C280.631 125.806 280.234 125.753 279.9 125.56C279.565 125.367 279.321 125.049 279.22 124.677L276.729 115.381L289.982 52.6248C292.133 52.0034 294.276 51.3614 296.411 50.6987C292.676 62.5721 290.567 75.2866 288.02 87.4181C285.457 99.4068 280.859 112.952 280.991 125.236C280.984 125.393 280.992 125.549 281.015 125.704L281.041 125.697ZM248.236 58.9622L245.668 59.6105C246.336 57.7363 246.906 55.7923 247.508 54.0318C249.345 48.6345 250.687 43.1608 252.008 37.6306L257.28 36.2178C254.953 41.1361 253.087 46.2595 251.706 51.5223C250.759 53.7653 249.424 56.31 248.209 58.9693L248.236 58.9622ZM89.9311 291.253L82.6018 263.899C85.4179 263.048 87.7915 261.133 89.2183 258.561C89.9115 257.343 90.3492 255.997 90.5047 254.605C90.6602 253.213 90.5304 251.804 90.1229 250.463C89.2967 247.852 87.4968 245.658 85.0966 244.338C82.6964 243.018 79.88 242.672 77.2318 243.373L58.8046 248.31C60.7282 239.166 61.9477 229.798 63.2369 220.563C63.2397 220.53 63.2309 220.497 63.2121 220.47C63.1932 220.443 63.1654 220.423 63.1335 220.414C63.1016 220.405 63.0677 220.408 63.0375 220.421C63.0072 220.435 62.9827 220.459 62.9681 220.488C59.4369 229.818 56.8085 239.466 55.1192 249.298L50.1684 250.624C49.926 250.692 49.6724 250.711 49.4227 250.68C49.1729 250.648 48.932 250.567 48.714 250.442C48.496 250.316 48.3054 250.148 48.1533 249.947C48.0012 249.746 47.8908 249.517 47.8285 249.274L22.2988 153.995C22.2308 153.753 22.212 153.5 22.2434 153.25C22.2748 153 22.3558 152.759 22.4817 152.541C22.6075 152.323 22.7757 152.132 22.9762 151.98C23.1768 151.828 23.4059 151.718 23.6497 151.656L50.6974 144.408C52.0429 144.057 53.3046 143.44 54.4084 142.594C55.5122 141.748 56.4358 140.69 57.1248 139.482C58.4798 137.17 58.905 134.43 58.3145 131.817C57.9957 130.457 57.4036 129.177 56.5741 128.054C55.7446 126.93 54.6953 125.988 53.4898 125.283C50.9688 123.766 47.9545 123.294 45.0903 123.968L37.7568 96.5986C37.7052 96.4061 37.692 96.2054 37.718 96.0078C37.744 95.8102 37.8087 95.6197 37.9084 95.4471C38.008 95.2746 38.1406 95.1233 38.2987 95.002C38.4568 94.8807 38.6374 94.7917 38.8299 94.7401L98.1658 78.8411C97.2461 81.5457 96.7567 84.5701 96.0941 87.0533C94.6819 91.1276 93.6106 95.3121 92.8911 99.5638C79.1614 103.621 65.5168 107.933 51.9954 112.641C51.91 112.675 51.8402 112.74 51.799 112.822C51.7579 112.904 51.7483 112.999 51.7721 113.088C51.796 113.177 51.8515 113.254 51.9283 113.305C52.0051 113.355 52.0978 113.376 52.1889 113.363C61.165 111.727 70.101 109.92 79.0046 107.992C77.0631 112.999 75.8807 118.268 75.4967 123.624C75.499 123.7 75.5254 123.773 75.5722 123.833C75.6189 123.892 75.6835 123.935 75.7565 123.956C75.8295 123.976 75.9071 123.972 75.9779 123.945C76.0487 123.918 76.1089 123.869 76.1498 123.805C78.6981 118.342 81.1197 112.828 83.6039 107.336C83.6549 107.217 83.6976 107.094 83.7315 106.968L89.4218 105.681C87.6503 111.02 86.1563 116.447 84.9458 121.94C82.9677 128.489 81.6435 135.217 80.9926 142.026C80.9926 142.083 81.0115 142.138 81.0461 142.183C81.0808 142.228 81.1292 142.26 81.1841 142.274C81.2389 142.289 81.297 142.284 81.3492 142.262C81.4014 142.24 81.4448 142.201 81.4726 142.152C83.9859 136.289 86.0738 130.253 87.7202 124.09C90.0762 117.725 92.1021 111.243 93.7899 104.669C96.1525 104.122 98.5159 103.564 100.88 102.995C98.1199 110.979 96.1979 119.434 93.9193 127.464C90.4121 137.793 87.7832 148.399 86.0607 159.17C86.0437 159.3 86.0747 159.433 86.1476 159.542C86.2206 159.652 86.3309 159.732 86.4579 159.766C86.585 159.801 86.7202 159.789 86.8389 159.732C86.9576 159.675 87.0517 159.576 87.1037 159.455C90.9781 149.262 94.0376 138.776 96.2536 128.099C98.4411 119.686 101.238 111.121 102.961 102.517C123.074 97.6923 143.068 92.3352 163.05 86.9809C160.992 93.8358 159.469 100.84 158.492 107.93C156.214 116.286 154.479 124.781 153.297 133.361C153.209 134.379 154.827 134.85 155.259 133.892C158.569 125.354 161.026 116.508 162.594 107.486C164.792 100.539 166.092 93.3389 166.46 86.0615L173.841 84.0837L157.087 158.871L156.912 158.873C156.626 158.833 156.357 158.71 156.139 158.519C155.921 158.329 155.764 158.079 155.687 157.8L151.263 141.292C150.539 138.587 148.769 136.28 146.344 134.88C143.918 133.48 141.036 133.1 138.331 133.825C135.626 134.55 133.32 136.32 131.919 138.745C130.519 141.17 130.14 144.053 130.864 146.758L135.282 163.245C135.381 163.618 135.327 164.015 135.134 164.349C134.941 164.684 134.624 164.928 134.251 165.03L125.594 167.349C124.542 167.633 123.444 167.706 122.363 167.564C121.283 167.422 120.241 167.068 119.298 166.522L107.818 159.889C105.599 158.622 102.969 158.282 100.501 158.943C98.0321 159.605 95.9247 161.214 94.6367 163.421L88.0095 174.9C86.9034 176.8 85.093 178.189 82.9704 178.765L79.2797 179.754C78.2006 180.043 77.0508 179.892 76.0826 179.335C75.1144 178.777 74.4067 177.859 74.1148 176.781L70.2566 162.381C69.9428 161.091 69.3744 159.875 68.5842 158.807C67.7941 157.739 66.7984 156.84 65.6557 156.162C64.513 155.485 63.2463 155.042 61.9302 154.861C60.6141 154.68 59.275 154.764 57.9917 155.108C56.7084 155.452 55.507 156.048 54.4577 156.863C53.4085 157.678 52.5327 158.695 51.882 159.853C51.2312 161.011 50.8185 162.288 50.6683 163.608C50.518 164.928 50.6331 166.265 51.0069 167.539L65.9156 223.179C66.5975 225.738 68.268 227.921 70.5593 229.248C71.6905 229.904 72.9407 230.329 74.2375 230.499C75.5343 230.668 76.8517 230.579 78.1136 230.235C80.6668 229.548 82.8432 227.876 84.1652 225.587C85.4872 223.297 85.8468 220.576 85.1653 218.022L81.3099 203.633C81.0218 202.552 81.1741 201.401 81.7334 200.432C82.2928 199.464 83.2134 198.756 84.2935 198.465L87.9843 197.476C90.1133 196.911 92.3795 197.214 94.2849 198.32L105.762 204.942C107.981 206.211 110.611 206.551 113.08 205.89C115.549 205.228 117.656 203.618 118.943 201.41L125.574 189.925C126.113 188.978 126.835 188.148 127.698 187.484C128.561 186.82 129.548 186.335 130.601 186.057L139.259 183.738C139.635 183.64 140.034 183.695 140.369 183.891C140.705 184.087 140.949 184.408 141.048 184.784L145.46 201.25C145.487 201.385 145.523 201.519 145.567 201.65C145.865 202.623 146.303 203.547 146.867 204.393L135.793 253.749C131.318 254.948 126.851 256.174 122.391 257.425C126.119 249.164 128.901 240.508 130.683 231.622C133.47 221.607 136.137 211.546 139.113 201.583C139.286 201.005 138.397 200.769 138.211 201.339C134.951 211.254 131.366 221.03 127.909 230.862C124.017 239.553 121.298 248.723 119.822 258.131C117.365 258.789 114.92 259.512 112.466 260.203C113.823 256.587 114.845 252.853 115.518 249.05C116.654 243.84 117.552 238.587 118.668 233.389C118.682 233.341 118.675 233.29 118.651 233.247C118.627 233.203 118.586 233.171 118.538 233.158C118.491 233.145 118.439 233.151 118.396 233.175C118.353 233.199 118.321 233.24 118.308 233.288C116.634 238.347 114.725 243.329 113.046 248.384C111.436 252.426 110.338 256.654 109.778 260.969C107.64 261.575 105.5 262.171 103.364 262.783C103.345 262.794 103.329 262.811 103.321 262.831C103.312 262.851 103.31 262.874 103.316 262.895C103.322 262.916 103.334 262.935 103.352 262.948C103.37 262.962 103.391 262.968 103.414 262.968C105.523 262.572 107.629 262.144 109.735 261.737C109.733 261.879 109.716 262.025 109.716 262.172C109.721 262.36 109.786 262.541 109.902 262.689C110.019 262.836 110.179 262.942 110.36 262.992C110.542 263.041 110.734 263.03 110.909 262.961C111.083 262.892 111.231 262.769 111.331 262.61C111.583 262.18 111.81 261.741 112.029 261.292C119.768 259.784 127.498 258.221 135.207 256.562L135.145 256.856L138.682 255.801L140.08 255.494C138.913 261.207 138.182 267 137.892 272.824C137.893 273.016 137.962 273.201 138.088 273.345C138.214 273.49 138.388 273.584 138.578 273.611C138.768 273.637 138.961 273.595 139.122 273.491C139.283 273.387 139.401 273.228 139.454 273.044C140.916 266.717 142.783 260.49 145.043 254.401C146.968 253.971 148.898 253.561 150.822 253.13C150.297 254.966 149.856 256.864 149.364 258.652C148.121 263.576 147.195 268.575 146.592 273.618C146.579 273.695 146.678 273.747 146.72 273.674C149.153 269.481 151.319 265.139 153.205 260.674C154.334 257.8 155.713 254.826 156.649 251.783L163.133 250.294C160.744 258.094 158.791 266.02 157.283 274.036C157.256 274.157 157.258 274.282 157.29 274.402C157.322 274.521 157.383 274.631 157.467 274.722L91.7619 292.327C91.3732 292.43 90.9596 292.375 90.6115 292.174C90.2633 291.973 90.0087 291.642 89.9033 291.254L89.9311 291.253ZM381.484 214.702L371.993 217.245C373.194 213.29 373.852 209.062 374.825 205.309C375.797 201.556 376.838 197.915 377.516 194.139L382.53 212.851C382.631 213.239 382.575 213.651 382.374 213.998C382.173 214.345 381.843 214.599 381.456 214.704L381.484 214.702ZM363.189 169.961C361.835 172.272 361.412 175.012 362.004 177.624C362.32 178.984 362.911 180.265 363.74 181.389C364.569 182.513 365.618 183.455 366.824 184.16C369.345 185.675 372.359 186.147 375.223 185.475L375.893 187.974C373.507 193.131 371.66 198.522 370.381 204.058C368.7 208.876 367.307 213.79 366.209 218.773L278.687 242.224C278.678 242.193 278.721 242.164 278.734 242.127C280.109 236.753 280.717 231.212 280.54 225.668C280.539 225.451 280.46 225.242 280.318 225.079C280.175 224.917 279.978 224.811 279.763 224.782C279.549 224.754 279.331 224.804 279.15 224.923C278.97 225.043 278.839 225.224 278.781 225.432C276.978 230.685 275.93 236.168 275.668 241.716C275.665 241.941 275.715 242.164 275.813 242.366C275.912 242.568 276.056 242.745 276.235 242.881L271.426 244.17C272.074 240.261 272.325 236.198 272.794 232.4C273.383 229.152 273.772 225.872 273.959 222.577C279.769 221.02 285.579 219.463 291.39 217.906C312.611 212.681 333.488 206.143 353.9 198.331C354.048 198.276 354.17 198.168 354.242 198.028C354.315 197.888 354.332 197.726 354.291 197.573C354.25 197.421 354.154 197.289 354.021 197.204C353.889 197.119 353.729 197.087 353.573 197.113C332.119 201.179 310.889 206.345 289.966 212.592C281.929 214.783 273.892 216.964 265.855 219.137C268.523 210.645 270.277 201.893 271.088 193.029C272.609 186.848 273.331 180.497 273.235 174.133C273.448 174.273 273.662 174.419 273.904 174.519C275.712 175.56 277.788 176.042 279.87 175.904C281.952 175.766 283.946 175.014 285.601 173.744C287.255 172.473 288.497 170.741 289.168 168.765C289.839 166.789 289.909 164.659 289.37 162.644L284.97 146.22C284.868 145.845 284.918 145.445 285.111 145.108C285.303 144.77 285.621 144.523 285.996 144.419L294.653 142.1C296.782 141.536 299.048 141.839 300.954 142.943L312.426 149.566C314.644 150.835 317.275 151.176 319.743 150.515C322.212 149.853 324.32 148.243 325.607 146.034L332.238 134.549C332.777 133.602 333.5 132.772 334.364 132.107C335.228 131.443 336.216 130.958 337.27 130.68L340.961 129.692C342.042 129.403 343.193 129.556 344.162 130.115C345.13 130.674 345.838 131.595 346.129 132.675L349.984 147.064C350.668 149.616 352.338 151.793 354.627 153.114C356.915 154.435 359.635 154.793 362.188 154.109C364.74 153.425 366.917 151.755 368.238 149.467C369.559 147.178 369.918 144.458 369.234 141.906L354.325 86.2656C353.641 83.7129 351.971 81.5366 349.682 80.2152C347.394 78.8939 344.674 78.5357 342.121 79.2197C339.569 79.9037 337.392 81.5738 336.071 83.8624C334.749 86.1511 334.391 88.8709 335.075 91.4235L338.935 105.828C339.221 106.908 339.068 108.057 338.508 109.024C337.948 109.991 337.028 110.696 335.948 110.985L332.258 111.974C331.206 112.258 330.107 112.332 329.027 112.19C327.946 112.047 326.904 111.693 325.961 111.146L314.481 104.514C312.262 103.248 309.633 102.909 307.165 103.57C304.697 104.231 302.589 105.84 301.3 108.046L294.678 119.523C293.572 121.423 291.762 122.812 289.639 123.388L287.003 124.094C290.481 112.164 292.97 99.9679 294.445 87.6291C297.278 74.974 299.415 62.1732 300.847 49.2842C305.617 47.7064 310.331 46.0025 314.956 44.0909C315.257 43.9706 315.279 43.3996 314.873 43.4462C298.231 45.9516 281.785 49.6145 265.652 54.4084C268.338 48.544 269.642 42.1415 269.464 35.6937C269.452 35.4486 269.361 35.2139 269.206 35.0235C269.051 34.8332 268.839 34.6971 268.602 34.6349C268.365 34.5727 268.113 34.5877 267.885 34.6776C267.657 34.7675 267.463 34.9277 267.331 35.1351C265.826 37.8773 264.658 40.7916 263.853 43.8145C262.819 47.0414 261.553 50.2457 260.81 53.5472C260.732 53.9051 260.737 54.2764 260.825 54.632C260.914 54.9876 261.083 55.318 261.32 55.5975C259.285 56.1428 257.252 56.6877 255.22 57.232C255.666 56.1971 256.101 55.1649 256.51 54.1173C258.914 48.0317 260.535 41.6654 261.334 35.1712L328.531 17.1657C328.92 17.0615 329.334 17.1161 329.683 17.3173C330.031 17.5185 330.285 17.85 330.39 18.2387L337.718 45.5868C334.9 46.435 332.526 48.3509 331.101 50.9255C330.407 52.1424 329.97 53.4883 329.815 54.8805C329.661 56.2727 329.792 57.6818 330.202 59.0213C331.025 61.6338 332.824 63.8284 335.224 65.1492C337.623 66.47 340.44 66.8153 343.088 66.1133L370.135 58.8659C370.378 58.7979 370.632 58.7789 370.882 58.8102C371.132 58.8414 371.373 58.9223 371.591 59.048C371.81 59.1736 372.001 59.3416 372.153 59.5421C372.306 59.7426 372.417 59.9714 372.48 60.2153L379.141 85.0749C377.879 90.1487 377.361 95.4298 375.868 100.486C373.678 105.611 372.127 110.986 371.25 116.49C371.222 117.628 372.881 118.483 373.653 117.485C376.874 112.318 378.982 106.535 379.841 100.507C380.434 97.9284 380.89 95.3202 381.205 92.6932L383.617 101.693C381.028 111.496 380.296 122.011 378.639 131.96C376.829 142.815 374.243 153.515 372.353 164.346L369.627 165.077C368.278 165.419 367.011 166.027 365.9 166.866C364.79 167.705 363.858 168.758 363.161 169.962L363.189 169.961ZM396.658 157.788L378.231 162.726C380.661 152.81 382.481 142.754 383.68 132.615C384.848 125.178 385.582 117.679 385.879 110.157L398.015 155.447C398.082 155.691 398.099 155.947 398.066 156.198C398.032 156.449 397.949 156.691 397.82 156.909C397.692 157.128 397.521 157.318 397.317 157.469C397.114 157.62 396.882 157.729 396.636 157.789L396.658 157.788Z" fill="#DEC7A6"/>
<path d="M226.06 237.864C224.38 239.936 223.086 242.292 222.239 244.821C221.348 247.083 219.674 250.329 220.627 252.724C220.715 253.016 220.876 253.28 221.095 253.491C221.315 253.703 221.584 253.855 221.879 253.933C222.173 254.011 222.483 254.013 222.778 253.937C223.073 253.862 223.344 253.712 223.565 253.502C225.48 251.983 225.75 248.667 226.397 246.42C227.261 243.925 227.833 241.339 228.101 238.713C228.097 238.478 228.024 238.25 227.892 238.056C227.76 237.862 227.575 237.711 227.358 237.621C227.142 237.53 226.903 237.506 226.673 237.549C226.442 237.592 226.229 237.702 226.06 237.864Z" fill="#DEC7A6"/>
<path d="M235.579 235.47C234.666 237.171 233.846 238.92 233.124 240.71C232.409 242.658 231.881 244.669 231.546 246.716C231.479 246.963 231.461 247.22 231.493 247.473C231.525 247.726 231.607 247.97 231.733 248.192C231.86 248.414 232.029 248.608 232.23 248.765C232.432 248.921 232.663 249.036 232.909 249.103C233.155 249.171 233.412 249.189 233.665 249.157C233.919 249.124 234.163 249.043 234.385 248.916C234.606 248.79 234.801 248.621 234.957 248.419C235.114 248.217 235.229 247.987 235.296 247.74C235.861 245.882 236.326 243.996 236.692 242.088C237.089 240.157 237.208 238.215 237.546 236.293C237.744 235.178 236.137 234.281 235.579 235.47Z" fill="#DEC7A6"/>
<path d="M243.193 235.308C242.124 236.875 241.386 238.644 241.026 240.506C240.643 242.157 239.998 244.138 241.359 245.502C241.563 245.697 241.825 245.82 242.104 245.855C242.384 245.89 242.668 245.834 242.914 245.696C244.506 244.891 244.575 242.849 244.881 241.292C245.312 239.548 245.539 237.76 245.556 235.964C245.552 235.687 245.459 235.42 245.29 235.201C245.121 234.983 244.886 234.825 244.62 234.751C244.354 234.677 244.071 234.691 243.814 234.792C243.556 234.892 243.339 235.074 243.193 235.308Z" fill="#DEC7A6"/>
<path d="M250.513 233.292C250.12 234.421 249.639 235.555 249.333 236.711C249.046 237.749 248.634 239.272 249.32 240.184C249.472 240.432 249.698 240.624 249.966 240.735C250.234 240.846 250.531 240.869 250.813 240.801C252.083 240.376 252.486 239.116 252.935 237.944C253.384 236.773 253.651 235.492 253.991 234.271C254.61 231.986 251.26 231.126 250.513 233.292Z" fill="#DEC7A6"/>
<path d="M173.366 69.2359C174.071 67.2741 174.363 65.1872 174.221 63.1071C174.172 62.7756 173.756 62.7627 173.552 62.9303C171.938 64.5464 170.814 66.5852 170.308 68.8121C169.368 70.9496 169.022 73.301 169.306 75.6187C169.489 76.5133 170.613 76.4666 171.063 75.8486C172.237 73.8077 173.018 71.5647 173.366 69.2359Z" fill="#DEC7A6"/>
<path d="M275.537 37.3334C273.669 38.978 272.421 41.2131 272.001 43.6662C271.366 45.9556 270.227 48.8321 272.006 50.8134C272.252 51.0556 272.571 51.2101 272.914 51.2531C273.256 51.2962 273.603 51.2254 273.901 51.0516C275.948 49.7289 275.773 47.0069 276.265 44.8351C277.034 42.6421 277.337 40.3129 277.156 37.996C277.113 37.8316 277.033 37.6794 276.921 37.5515C276.81 37.4236 276.67 37.3235 276.513 37.2592C276.356 37.1949 276.186 37.1681 276.016 37.181C275.847 37.1938 275.683 37.246 275.537 37.3334Z" fill="#DEC7A6"/>
<path d="M282.861 36.128C281.735 37.8326 280.902 39.7137 280.397 41.6934C279.916 43.3367 278.918 45.6666 280.035 47.1983C280.222 47.5037 280.521 47.7247 280.867 47.8151C281.214 47.9056 281.582 47.8584 281.894 47.6834C283.551 46.6744 283.561 44.4114 284.02 42.6891C284.595 40.7555 285.046 38.7869 285.368 36.7955C285.541 35.3309 283.536 35.1898 282.861 36.128Z" fill="#DEC7A6"/>
<path d="M289.103 35.2123C288.006 36.4879 287.25 38.0201 286.905 39.6663C286.539 40.4268 286.331 41.2539 286.293 42.0974C286.256 42.9408 286.391 43.783 286.689 44.5729C286.806 44.7672 286.965 44.9325 287.156 45.0563C287.346 45.18 287.562 45.259 287.787 45.2874C288.012 45.3157 288.241 45.2926 288.456 45.2198C288.671 45.1471 288.866 45.0265 289.028 44.8672C290.151 43.7639 290.126 42.0921 290.466 40.6392C290.947 39.1844 291.263 37.68 291.406 36.1546C291.405 35.8885 291.324 35.6288 291.175 35.4083C291.026 35.1877 290.815 35.0163 290.569 34.9155C290.322 34.8147 290.051 34.7891 289.791 34.8419C289.53 34.8948 289.29 35.0236 289.103 35.2123Z" fill="#DEC7A6"/>
<path d="M297.185 34.2422C296.193 35.7286 294.634 38.3897 295.62 40.1711C295.713 40.3236 295.839 40.4532 295.989 40.5501C296.138 40.6471 296.308 40.7089 296.485 40.731C296.662 40.7531 296.842 40.7349 297.011 40.6778C297.18 40.6206 297.334 40.526 297.462 40.401C298.004 39.6647 298.336 38.7944 298.42 37.8837C298.627 37.0436 298.931 36.2303 299.325 35.4601C299.445 35.1801 299.458 34.8658 299.361 34.5771C299.264 34.2884 299.064 34.0455 298.799 33.8948C298.534 33.7442 298.223 33.6964 297.926 33.7604C297.628 33.8245 297.364 33.996 297.185 34.2422Z" fill="#DEC7A6"/>
<path d="M300.133 34.9167C299.956 35.5632 299.749 36.2062 299.603 36.8614C299.485 37.5482 299.482 38.2498 299.594 38.9376C299.601 39.1808 299.687 39.4151 299.838 39.606C299.989 39.797 300.197 39.9344 300.431 39.9981C300.666 40.0618 300.915 40.0483 301.142 39.9598C301.369 39.8712 301.561 39.7122 301.69 39.5062C302.126 38.9727 302.474 38.3739 302.724 37.7318C302.925 37.1127 303.056 36.4219 303.218 35.7797C303.241 35.4053 303.136 35.0342 302.919 34.7283C302.701 34.4224 302.386 34.2003 302.025 34.0992C301.663 33.9982 301.278 34.0242 300.934 34.173C300.59 34.3218 300.307 34.5843 300.133 34.9167Z" fill="#DEC7A6"/>
<path d="M284.478 227.526C283.847 228.809 283.52 230.219 283.52 231.648C283.236 233.076 283.366 234.554 283.893 235.911C284.006 236.094 284.165 236.246 284.353 236.35C284.541 236.455 284.753 236.51 284.969 236.509C285.184 236.508 285.396 236.451 285.583 236.345C285.77 236.238 285.927 236.086 286.038 235.901C286.647 234.672 286.91 233.301 286.8 231.933C286.968 230.531 286.819 229.109 286.364 227.773C286.306 227.58 286.193 227.409 286.04 227.279C285.887 227.149 285.7 227.066 285.5 227.04C285.301 227.014 285.099 227.046 284.917 227.132C284.736 227.218 284.583 227.355 284.478 227.526Z" fill="#DEC7A6"/>
<path d="M294.231 224.013C293.689 224.553 293.295 225.223 293.086 225.959C292.877 226.695 292.859 227.472 293.035 228.216C293.135 228.602 293.373 228.938 293.703 229.161C294.034 229.384 294.434 229.479 294.83 229.428C295.225 229.377 295.588 229.183 295.851 228.883C296.114 228.583 296.258 228.198 296.257 227.799C296.235 227.3 296.365 226.806 296.629 226.383C296.933 226.06 297.101 225.633 297.099 225.19C297.097 224.746 296.925 224.321 296.618 224.001C296.298 223.69 295.869 223.517 295.422 223.519C294.976 223.521 294.548 223.699 294.231 224.013Z" fill="#DEC7A6"/>
<path d="M148.424 123.768C151.29 119.41 152.937 114.363 153.193 109.153C154.4 104.206 154.798 99.0956 154.371 94.0209C154.352 93.9557 154.314 93.8974 154.262 93.8531C154.211 93.8088 154.147 93.7802 154.08 93.7709C154.012 93.7615 153.944 93.7718 153.882 93.8004C153.82 93.8291 153.768 93.8749 153.731 93.9324C151.751 98.8284 150.236 103.9 149.207 109.08C147.325 113.558 146.397 118.38 146.484 123.236C146.535 123.434 146.637 123.615 146.78 123.761C146.923 123.907 147.102 124.012 147.299 124.066C147.496 124.12 147.704 124.121 147.901 124.068C148.099 124.016 148.279 123.912 148.424 123.768Z" fill="#DEC7A6"/>
<path d="M140.781 117.837C142.238 115.867 143.017 113.477 143.002 111.026C143.469 108.661 143.44 106.225 142.916 103.872C142.905 103.832 142.882 103.796 142.851 103.769C142.82 103.741 142.781 103.723 142.74 103.717C142.699 103.712 142.657 103.718 142.619 103.736C142.581 103.754 142.55 103.782 142.528 103.818C141.092 106.034 140.141 108.528 139.737 111.138C138.981 113.244 138.931 115.538 139.596 117.675C139.653 117.775 139.732 117.861 139.828 117.926C139.924 117.991 140.033 118.033 140.148 118.049C140.263 118.064 140.379 118.053 140.489 118.017C140.599 117.98 140.699 117.919 140.781 117.837Z" fill="#DEC7A6"/>
<path d="M131.181 111.815C132.148 110.492 132.844 108.992 133.231 107.4C133.588 106.435 132.053 106.021 131.694 106.981C130.967 108.381 130.52 109.91 130.38 111.481C130.382 111.573 130.411 111.663 130.463 111.738C130.514 111.814 130.587 111.873 130.672 111.909C130.757 111.944 130.85 111.954 130.941 111.937C131.031 111.921 131.114 111.878 131.181 111.815Z" fill="#DEC7A6"/>
<path d="M278.695 182.866C276.661 187.402 275.249 192.193 274.498 197.107C273.152 202.015 272.478 207.083 272.494 212.172C272.509 212.622 272.682 213.051 272.983 213.385C273.284 213.718 273.693 213.935 274.138 213.996C274.583 214.057 275.035 213.959 275.415 213.719C275.795 213.479 276.078 213.113 276.214 212.684C277.549 207.638 278.408 202.477 278.78 197.27C279.693 192.662 280.176 187.979 280.225 183.281C280.216 182.51 279.082 182.096 278.695 182.866Z" fill="#DEC7A6"/>
<path d="M285.498 189.379C283.827 192.289 282.956 195.589 282.975 198.944C282.548 201.884 280.768 205.933 282.479 208.588C282.648 208.87 282.921 209.074 283.239 209.156C283.557 209.239 283.895 209.194 284.18 209.031C286.882 207.176 286.627 203.125 286.996 200.116C287.966 196.588 287.719 192.836 286.295 189.465C286.257 189.397 286.203 189.338 286.137 189.295C286.072 189.252 285.997 189.225 285.919 189.216C285.841 189.208 285.762 189.218 285.689 189.247C285.615 189.275 285.55 189.321 285.498 189.379Z" fill="#DEC7A6"/>
<path d="M293.986 193.1C292.77 195.025 292.024 197.209 291.807 199.476C291.546 201.518 291.048 204.087 292.532 205.724C292.644 205.835 292.776 205.922 292.922 205.981C293.067 206.04 293.223 206.07 293.38 206.069C293.538 206.068 293.693 206.035 293.838 205.974C293.982 205.913 294.114 205.824 294.224 205.712C295.436 204.161 295.092 202.162 295.161 200.267C295.34 197.993 295.358 195.709 295.217 193.432C295.216 193.287 295.168 193.146 295.08 193.031C294.992 192.917 294.868 192.834 294.728 192.796C294.588 192.759 294.44 192.768 294.306 192.823C294.172 192.878 294.06 192.975 293.986 193.1Z" fill="#DEC7A6"/>
<path d="M301.966 195.038C301.293 195.931 300.845 196.974 300.662 198.077C300.496 199.105 300.521 200.675 301.567 201.225C301.771 201.336 302.004 201.378 302.233 201.347C302.463 201.316 302.676 201.213 302.843 201.053C303.524 200.514 303.532 199.28 303.622 198.476C303.719 197.617 303.894 196.768 304.146 195.94C304.581 194.569 302.713 194.007 301.966 195.038Z" fill="#DEC7A6"/>
<path d="M288.086 182.194C288.347 180.981 288.415 179.735 288.289 178.5C288.225 178.282 288.106 178.083 287.943 177.924C287.78 177.765 287.578 177.651 287.358 177.593C287.138 177.534 286.906 177.534 286.686 177.592C286.465 177.65 286.263 177.764 286.1 177.923C285.171 179.052 284.686 180.483 284.736 181.944C284.575 182.625 284.596 183.337 284.797 184.007C284.999 184.678 285.374 185.283 285.884 185.762C285.982 185.854 286.1 185.923 286.228 185.964C286.357 186.004 286.493 186.016 286.626 185.998C286.76 185.98 286.888 185.933 287.001 185.86C287.114 185.787 287.209 185.689 287.28 185.574C287.897 184.56 288.179 183.377 288.086 182.194Z" fill="#DEC7A6"/>
<path d="M301.71 154.323C300.067 157.803 298.994 161.525 298.533 165.346C297.287 168.631 296.713 172.132 296.844 175.642C296.873 175.749 296.93 175.847 297.009 175.925C297.087 176.003 297.185 176.059 297.292 176.088C297.4 176.116 297.513 176.116 297.62 176.087C297.727 176.059 297.824 176.002 297.903 175.924C300.048 172.821 301.296 169.186 301.508 165.419C302.578 161.83 302.75 158.033 302.009 154.361C302 154.331 301.983 154.303 301.958 154.282C301.934 154.261 301.904 154.248 301.872 154.244C301.84 154.239 301.808 154.245 301.779 154.259C301.751 154.273 301.727 154.295 301.71 154.323Z" fill="#DEC7A6"/>
<path d="M297.571 185.952C297.659 184.742 297.671 183.541 297.792 182.327C297.716 181.067 297.756 179.802 297.91 178.549C297.947 178.382 297.924 178.206 297.845 178.054C297.766 177.902 297.636 177.782 297.477 177.716C297.319 177.65 297.142 177.642 296.978 177.693C296.814 177.744 296.673 177.851 296.581 177.996C296.256 178.619 295.709 179.15 295.351 179.732C294.927 180.378 294.639 181.103 294.503 181.864C294.202 183.34 294.202 184.863 294.504 186.339C294.86 188.171 297.45 187.652 297.571 185.952Z" fill="#DEC7A6"/>
<path d="M306.572 176.566C305.936 178.077 305.398 179.628 304.962 181.208C304.666 182.57 304.298 183.855 305.242 185.015C305.399 185.172 305.604 185.272 305.824 185.3C306.044 185.328 306.267 185.282 306.459 185.169C307.72 184.413 307.745 182.949 307.92 181.619C308.035 180 308.045 178.376 307.951 176.756C307.948 176.588 307.885 176.427 307.774 176.301C307.662 176.175 307.509 176.093 307.343 176.07C307.176 176.047 307.007 176.084 306.865 176.176C306.724 176.267 306.62 176.405 306.572 176.566Z" fill="#DEC7A6"/>
<path d="M303.749 188.952C303.472 189.794 303.152 190.688 303.842 191.407C303.991 191.547 304.187 191.624 304.39 191.623C304.594 191.622 304.79 191.543 304.937 191.402C305.701 190.796 305.419 189.787 305.255 188.961C305.09 188.135 303.974 188.23 303.749 188.952Z" fill="#DEC7A6"/>
<path d="M81.1388 174.203C82.9329 174.678 83.3354 171.603 83.5549 170.567C83.8333 169.328 84.1422 168.098 84.3369 166.842C84.4814 165.685 84.3878 164.51 84.0618 163.39C84.0423 163.323 84.0058 163.262 83.9559 163.214C83.9061 163.165 83.8445 163.13 83.7772 163.112C83.7099 163.095 83.6391 163.094 83.5718 163.112C83.5044 163.13 83.4427 163.164 83.3927 163.213C82.6774 163.962 82.1091 164.839 81.7175 165.798C81.3086 166.992 81.0384 168.24 80.7357 169.451C80.4744 170.522 79.2715 173.709 81.1388 174.203Z" fill="#DEC7A6"/>
<path d="M78.113 153.743C79.2045 151.49 79.3545 148.991 80.5325 146.766C80.6217 146.6 80.6428 146.405 80.5911 146.224C80.5395 146.042 80.4192 145.888 80.2559 145.794C80.0925 145.699 79.8988 145.672 79.7159 145.718C79.5329 145.764 79.3749 145.88 79.2756 146.04C78.4372 147.099 77.819 148.315 77.4573 149.616C77.0955 150.917 76.9977 152.278 77.1694 153.617C77.2053 153.707 77.2646 153.786 77.341 153.846C77.4175 153.905 77.5083 153.944 77.6043 153.956C77.7004 153.969 77.7982 153.956 77.8876 153.919C77.977 153.881 78.0548 153.821 78.113 153.743Z" fill="#DEC7A6"/>
<path d="M372.223 129.207C372.874 127.812 373.238 126.3 373.292 124.761C373.43 123.164 373.087 121.589 373.254 120.019C373.348 119.106 372.007 119.036 371.735 119.815C371.34 120.624 370.893 121.406 370.397 122.158C370.115 122.73 369.93 123.368 369.7 123.966C369.103 125.328 368.787 126.796 368.772 128.283C368.773 128.69 368.908 129.085 369.156 129.407C369.404 129.73 369.751 129.961 370.144 130.066C370.537 130.171 370.953 130.144 371.329 129.989C371.705 129.833 372.019 129.558 372.223 129.207Z" fill="#DEC7A6"/>
<path d="M366.134 107.609C368.569 104.541 370.091 100.849 370.524 96.9559C371.59 92.4997 372.249 88.0173 373.139 83.5178C373.16 83.4458 373.153 83.3689 373.121 83.3015C373.088 83.2341 373.032 83.181 372.963 83.1521C372.894 83.1232 372.817 83.1207 372.746 83.1449C372.676 83.1692 372.616 83.2185 372.579 83.2836C370.613 86.7304 369.166 90.4484 368.286 94.3176C366.759 98.3295 365.44 102.418 364.334 106.565C364.284 106.792 364.308 107.028 364.401 107.24C364.494 107.452 364.652 107.629 364.853 107.745C365.053 107.861 365.285 107.911 365.516 107.886C365.746 107.862 365.962 107.765 366.134 107.609Z" fill="#DEC7A6"/>
<path d="M364.856 88.0718C365.708 86.8275 366.274 85.4099 366.513 83.9208C366.874 82.2681 367.147 80.5972 367.33 78.9154C367.427 78.2451 366.499 77.6914 366.129 78.4179C365.386 79.8657 364.624 81.2396 364.005 82.7449C363.281 84.131 362.875 85.6606 362.814 87.223C362.9 88.155 364.11 88.9383 364.856 88.0718Z" fill="#DEC7A6"/>
<path d="M192.56 146.899C192.517 146.99 192.623 147.131 192.721 147.054C200.399 141.374 211.819 136.082 221.56 139.513C221.785 139.594 221.944 139.28 221.782 139.12C212.469 129.839 197.552 135.768 192.56 146.899Z" fill="#DEC7A6"/>
<path d="M256.227 111.099L257.057 107.322C256.477 108.495 256.192 109.791 256.227 111.099Z" fill="#F8F5EF"/>
<path d="M243.509 69.9151C241.336 79.3524 238.957 88.7772 236.655 98.1757C233.888 106.562 231.953 115.201 230.879 123.966C230.882 124.119 230.934 124.267 231.028 124.387C231.122 124.508 231.253 124.595 231.4 124.635C231.547 124.676 231.704 124.668 231.846 124.612C231.989 124.557 232.109 124.456 232.19 124.327C236.289 115.926 239.062 106.943 240.413 97.6941C242.364 88.5775 243.826 79.3632 244.794 70.0907C244.878 69.3505 243.673 69.1986 243.509 69.9151Z" fill="#F8F5EF"/>
<path d="M230.446 128.404C230.097 129.548 229.355 130.657 229.822 131.916C229.968 132.273 230.46 132.525 230.765 132.167C231.699 131.074 231.33 129.806 231.367 128.53C231.367 128.417 231.325 128.308 231.251 128.223C231.176 128.137 231.074 128.082 230.961 128.067C230.849 128.051 230.736 128.077 230.641 128.139C230.546 128.201 230.477 128.295 230.446 128.404Z" fill="#F8F5EF"/>
<path d="M221.007 180.558C219.942 184.658 218.657 188.659 217.741 192.792C216.631 195.985 216.132 199.359 216.27 202.737C216.358 203.278 217.094 203.262 217.342 202.879C218.876 199.671 219.797 196.204 220.056 192.658C220.821 188.701 221.218 184.763 221.861 180.793C221.967 180.239 221.151 180 221.007 180.558Z" fill="#F8F5EF"/>
<path d="M215.822 206.292C214.454 209.094 211.994 212.844 214.314 215.828C214.666 216.299 215.297 216.017 215.564 215.663C217.419 213.16 216.106 209.46 216.526 206.601C216.609 206.172 216.033 205.835 215.822 206.292Z" fill="#F8F5EF"/>
<path d="M213.039 219.238C211.092 223.571 209.887 228.199 209.475 232.931C209.467 234.187 211.454 234.921 212.008 233.614C213.545 229.036 214.298 224.232 214.236 219.404C214.278 218.675 213.259 218.626 213.039 219.238Z" fill="#F8F5EF"/>
<path d="M283.362 55.311C281.696 58.9775 280.263 62.7455 279.072 66.5926C277.592 69.9579 276.916 73.6216 277.097 77.2937C277.149 77.4765 277.248 77.6426 277.384 77.7755C277.52 77.9083 277.688 78.0033 277.872 78.0511C278.056 78.0988 278.25 78.0976 278.433 78.0477C278.617 77.9977 278.784 77.9007 278.919 77.7662C280.988 74.724 282.328 71.2458 282.835 67.6018C283.831 63.7046 284.583 59.7493 285.087 55.7586C285.179 54.8806 283.733 54.505 283.362 55.311Z" fill="#F8F5EF"/>
<path d="M276.905 80.4825C276.178 81.524 275.609 82.6668 275.214 83.874C274.758 85.4825 275.018 85.9892 273.912 87.7039C273.638 88.1335 273.321 88.5122 273.086 88.965C271.832 91.1831 271.462 93.7932 272.049 96.2727C272.091 96.4079 272.17 96.5283 272.278 96.6197C272.386 96.711 272.518 96.7694 272.658 96.7878C272.798 96.8062 272.94 96.784 273.068 96.7237C273.196 96.6633 273.304 96.5675 273.379 96.4476C274.474 94.4593 275.099 92.2466 275.206 89.9793C275.263 88.1313 275.77 86.3251 276.684 84.7179C277.339 83.6365 277.901 82.5011 278.362 81.3239C278.474 81.1306 278.504 80.901 278.446 80.6854C278.389 80.4699 278.248 80.2861 278.054 80.1745C277.861 80.0629 277.631 80.0327 277.416 80.0905C277.2 80.1482 277.017 80.2892 276.905 80.4825Z" fill="#F8F5EF"/>
<path d="M273.966 58.8176C271.371 62.29 269.914 66.4802 269.795 70.8135C269.8 71.0013 269.865 71.1824 269.981 71.33C270.097 71.4776 270.258 71.5839 270.439 71.633C270.62 71.6821 270.813 71.6715 270.987 71.6027C271.162 71.5339 271.31 71.4106 271.409 71.2511C272.463 69.3978 273.261 67.4104 273.782 65.343C274.506 63.3542 274.805 61.2354 274.658 59.1238C274.654 58.7915 274.227 58.5048 273.966 58.8176Z" fill="#F8F5EF"/>
<path d="M252.118 204.041C251.04 207.104 250.086 210.208 249.113 213.323C247.95 215.705 247.377 218.331 247.441 220.981C247.477 221.112 247.546 221.231 247.643 221.326C247.739 221.422 247.859 221.49 247.99 221.525C248.121 221.56 248.259 221.559 248.39 221.524C248.521 221.489 248.64 221.42 248.736 221.324C250.143 219.075 250.992 216.523 251.211 213.879C251.958 210.718 252.73 207.567 253.381 204.386C253.418 204.222 253.391 204.049 253.304 203.904C253.217 203.76 253.078 203.654 252.915 203.609C252.752 203.565 252.578 203.585 252.43 203.665C252.282 203.746 252.17 203.88 252.118 204.041Z" fill="#F8F5EF"/>
<path d="M243.332 208.682C240.149 212.135 238.352 216.641 238.286 221.336C238.281 221.653 238.361 221.965 238.518 222.241C238.675 222.516 238.904 222.743 239.179 222.899C239.375 223.038 239.601 223.128 239.838 223.162C240.075 223.197 240.317 223.175 240.544 223.099C240.848 223.021 241.126 222.863 241.349 222.641C241.572 222.419 241.731 222.142 241.811 221.838C242.23 219.607 242.675 217.408 243.201 215.193C243.81 213.227 244.085 211.173 244.013 209.116C243.969 208.783 243.652 208.444 243.332 208.682Z" fill="#F8F5EF"/>
<path d="M206.625 211.555C204.842 215.165 203.589 219.014 202.906 222.983C201.678 226.508 201.187 230.248 201.465 233.97C201.535 234.202 201.67 234.409 201.854 234.566C202.039 234.722 202.265 234.822 202.505 234.853C202.745 234.885 202.989 234.846 203.208 234.741C203.426 234.637 203.61 234.472 203.736 234.266C205.236 230.733 206.116 226.968 206.338 223.137C207.193 219.429 207.646 215.64 207.689 211.835C207.726 211.694 207.706 211.544 207.632 211.418C207.559 211.292 207.438 211.2 207.297 211.163C207.156 211.126 207.006 211.146 206.88 211.22C206.754 211.293 206.662 211.414 206.625 211.555Z" fill="#F8F5EF"/>
</g>
</svg>
