<svg width="24" height="25" viewBox="0 0 24 25" fill="none" xmlns="http://www.w3.org/2000/svg">
<path d="M2 12.8396C2 15.4918 3.05357 18.0353 4.92893 19.9107C6.8043 21.786 9.34784 22.8396 12 22.8396C14.6522 22.8396 17.1957 21.786 19.0711 19.9107C20.9464 18.0353 22 15.4918 22 12.8396C22 10.1874 20.9464 7.6439 19.0711 5.76853C17.1957 3.89317 14.6522 2.8396 12 2.8396C9.34784 2.8396 6.8043 3.89317 4.92893 5.76853C3.05357 7.6439 2 10.1874 2 12.8396V12.8396Z" stroke="#121212" stroke-width="2" stroke-linecap="square"/>
<path d="M12 12.8395V9.26807" stroke="#121212" stroke-width="2" stroke-linecap="square"/>
<path d="M12.3926 13.6797L16.4641 17.3045" stroke="#121212" stroke-width="2" stroke-linecap="square"/>
</svg>
