<svg width="411" height="549" viewBox="0 0 411 549" fill="none" xmlns="http://www.w3.org/2000/svg">
<g opacity="0.8">
<path d="M273.288 46.0769C272.851 46.4854 272.504 46.9802 272.268 47.5299C272.032 48.0795 271.912 48.6722 271.917 49.2704C271.878 50.681 272.369 52.0549 273.293 53.1217C274.986 54.8195 276.477 56.7071 277.737 58.747L277.828 58.907C278.389 59.9284 278.686 61.0737 278.693 62.239V62.9444C278.632 75.0956 282.533 86.9359 289.805 96.6706C297.851 106.926 302.137 119.631 301.948 132.664C300.963 167.646 291.717 201.898 274.963 232.623C271.947 238.341 267.311 243.041 261.634 246.134C255.957 249.227 249.494 250.575 243.054 250.009C242.159 261.615 238.727 312.321 240.211 390.146C241.453 455.487 247.503 530.373 248.584 543.372L251.272 543.692C252.964 528.928 262.029 449.238 268.914 377.229C271.025 355.16 272.735 333.797 274.249 314.939C276.845 282.758 278.693 259.503 280.904 252.264C292.865 215.12 302.689 177.322 310.329 139.056C313.016 124.606 321.319 111.81 333.419 103.469C339.878 98.6361 345.281 92.5359 349.299 85.5416C353.317 78.5473 355.865 70.8064 356.786 62.7929C360.949 34.0862 346.985 8.21388 325.656 5.12426C307.776 2.52793 289.953 16.6173 282.319 39.3913C282.284 39.5038 282.238 39.6126 282.181 39.7159C282.146 39.7895 282.107 39.876 282.064 39.9885C281.703 41.367 280.915 42.5959 279.813 43.4991C278.71 44.4023 277.351 44.9335 275.928 45.0167C274.95 45.0428 274.013 45.419 273.288 46.0769ZM324.583 12.4762C325.826 12.6559 327.055 12.9205 328.261 13.2681C332.319 14.5629 336.078 16.6543 339.318 19.4198C342.557 22.1854 345.212 25.5695 347.128 29.3739C352.193 39.5058 354.037 50.9447 352.413 62.1551C350.788 73.3654 345.773 83.8105 338.041 92.088C334.808 95.8018 330.696 98.6454 326.08 100.358C321.464 102.07 316.492 102.597 311.62 101.89C306.747 101.183 302.13 99.2649 298.191 96.311C294.252 93.3572 291.118 89.4621 289.074 84.9827C283.831 74.9084 281.98 63.4109 283.795 52.1999C287.369 27.5478 305.665 9.72842 324.583 12.4762Z" fill="white"/>
<path d="M267.07 49.1717C267.002 51.8928 268.001 54.5326 269.852 56.528C271.236 57.9174 272.463 59.454 273.513 61.1105L273.582 61.2403C273.753 61.5549 273.843 61.9076 273.842 62.2659V63.0188C273.802 76.2366 278.075 89.1065 286.014 99.6746C293.365 109.061 297.278 120.683 297.101 132.605C296.149 166.744 287.132 200.174 270.787 230.161C259.64 249.041 242.158 245.073 241.427 244.9C241.087 244.814 240.734 244.804 240.39 244.869C240.046 244.934 239.721 245.073 239.436 245.276C239.152 245.48 238.915 245.742 238.741 246.045C238.567 246.348 238.46 246.685 238.428 247.033C238.38 247.565 233.668 301.266 235.364 390.264C236.723 461.879 243.85 544.948 243.919 545.779C243.969 546.334 244.207 546.855 244.595 547.255C244.982 547.655 245.495 547.91 246.048 547.977L253.115 548.817C253.431 548.855 253.753 548.83 254.06 548.743C254.367 548.657 254.654 548.51 254.905 548.312C255.155 548.115 255.364 547.869 255.52 547.59C255.675 547.312 255.774 547.005 255.81 546.688C255.91 545.822 266.148 457.115 273.742 377.71C275.854 355.62 277.568 334.226 279.082 315.351C281.54 284.671 283.483 260.439 285.543 253.701C297.549 216.389 307.41 178.421 315.08 139.983C317.525 126.809 325.088 115.14 336.115 107.528C343.132 102.315 349.01 95.7214 353.387 88.1537C357.764 80.5859 360.547 72.2034 361.567 63.5208C365.821 34.204 352.281 7.52242 330.9 1.34317C329.405 0.907886 327.881 0.57822 326.339 0.356584C306.14 -2.57293 286.183 12.7843 277.762 37.7263C277.689 37.8864 277.606 38.0682 277.52 38.2932C276.871 40.0241 276.585 40.0501 275.218 40.2491C273.265 40.4147 271.422 41.2262 269.982 42.5555C269.076 43.4053 268.351 44.4294 267.85 45.5663C267.35 46.7033 267.084 47.9296 267.07 49.1717ZM282.059 39.9894C282.102 39.8769 282.141 39.7904 282.176 39.7169C282.233 39.6135 282.279 39.5047 282.314 39.3923C289.948 16.6182 307.771 2.52886 325.651 5.12518C346.98 8.21481 360.944 34.0871 356.781 62.7938C355.86 70.8073 353.313 78.5483 349.295 85.5425C345.277 92.5368 339.873 98.637 333.414 103.469C321.314 111.811 313.011 124.607 310.324 139.056C302.684 177.323 292.86 215.121 280.899 252.265C278.688 259.504 276.823 282.759 274.244 314.94C272.73 333.798 271.02 355.183 268.909 377.23C262.024 449.239 252.959 528.929 251.267 543.693L248.58 543.373C247.498 530.391 241.448 455.47 240.206 390.147C238.735 312.322 242.154 261.629 243.049 250.01C249.489 250.576 255.953 249.228 261.629 246.135C267.306 243.042 271.942 238.342 274.958 232.624C291.712 201.899 300.958 167.647 301.943 132.665C302.132 119.632 297.846 106.927 289.801 96.6715C282.528 86.9368 278.627 75.0966 278.688 62.9453V62.24C278.681 61.0746 278.384 59.9293 277.823 58.9079L277.732 58.7479C276.472 56.708 274.981 54.8204 273.288 53.1226C272.364 52.0559 271.873 50.6819 271.912 49.2713C271.907 48.6731 272.027 48.0805 272.263 47.5308C272.499 46.9811 272.847 46.4864 273.284 46.0778C274.007 45.4209 274.942 45.0448 275.919 45.0177C277.342 44.9353 278.703 44.4045 279.806 43.5013C280.909 42.598 281.698 41.3686 282.059 39.9894Z" fill="#FBF1DD"/>
<path d="M289.065 84.9834C291.108 89.4627 294.243 93.3578 298.182 96.3117C302.121 99.2655 306.738 101.184 311.611 101.891C316.483 102.598 321.455 102.071 326.071 100.359C330.687 98.646 334.799 95.8025 338.032 92.0886C345.764 83.8111 350.779 73.366 352.404 62.1557C354.028 50.9454 352.184 39.5065 347.119 29.3746C345.203 25.5701 342.548 22.186 339.308 19.4205C336.069 16.6549 332.31 14.5635 328.252 13.2687C327.046 12.9211 325.817 12.6565 324.574 12.4768C305.651 9.72906 287.36 27.5485 283.773 52.2005C281.961 63.4129 283.818 74.9105 289.065 84.9834ZM342.882 31.7069C347.438 40.9166 349.088 51.2936 347.612 61.462C346.136 71.6304 341.604 81.1101 334.617 88.6442C331.825 91.7075 328.349 94.0685 324.472 95.5354C320.596 97.0024 316.427 97.5338 312.306 97.0866C311.294 96.9361 310.292 96.7193 309.308 96.4375C305.857 95.3177 302.664 93.5219 299.916 91.1549C297.167 88.7878 294.917 85.8969 293.297 82.651C288.561 73.5002 286.902 63.0658 288.567 52.8973C291.761 30.8934 307.607 14.913 323.873 17.2713C327.954 18.0124 331.802 19.706 335.105 22.2144C338.408 24.7227 341.073 27.975 342.882 31.7069Z" fill="#FBF1DD"/>
<path d="M286.767 89.757C288.992 92.9551 291.414 96.0118 294.019 98.9091C296.99 102.657 299.264 106.907 300.735 111.458C306.685 128.421 302.777 147.867 302.223 165.336C302.22 165.352 302.224 165.369 302.233 165.382C302.243 165.395 302.257 165.404 302.273 165.407C302.289 165.41 302.306 165.407 302.319 165.397C302.332 165.388 302.342 165.374 302.344 165.358C304.607 156.109 306.198 146.709 307.104 137.231C307.156 136.768 307.204 136.3 307.252 135.837C307.313 135.826 307.37 135.796 307.413 135.751C307.457 135.706 307.485 135.648 307.494 135.586C308.48 129.847 310.414 124.312 313.219 119.208C315.815 114.335 319.779 110.662 322.695 106.079C322.762 105.978 322.792 105.857 322.78 105.737C322.768 105.616 322.715 105.503 322.63 105.417C322.665 105.356 322.684 105.288 322.685 105.217C322.686 105.147 322.668 105.078 322.634 105.017C322.6 104.955 322.551 104.904 322.491 104.867C322.431 104.83 322.363 104.81 322.293 104.807C322.056 104.781 321.816 104.781 321.579 104.807C320.246 104.681 318.906 104.64 317.568 104.686C316.269 104.619 314.967 104.651 313.673 104.781C312.052 104.816 310.433 104.67 308.844 104.348C306.114 103.545 303.485 102.433 301.007 101.034C298.878 98.5326 296.425 96.2002 294.283 93.7943C287.73 86.8302 283.467 78.0263 282.067 68.5668C282.002 68.0086 281.154 67.9566 281.163 68.5668C280.991 76.0177 282.934 83.3647 286.767 89.757ZM310.826 118.39L310.852 118.33L310.826 118.39Z" fill="#FBF1DD"/>
<path d="M274.568 50.8473C274.854 52.4094 275.961 53.1104 277.017 54.1663C278.903 56.1711 280.075 58.7412 280.354 61.4793C280.388 61.674 280.652 61.6394 280.713 61.4793C281.648 58.7268 281.59 55.7336 280.548 53.0195C280.042 52.011 279.757 50.906 279.713 49.7785C280.383 47.5761 281.686 45.6196 283.461 44.1531C283.569 44.0406 283.439 43.8329 283.292 43.9238C281.955 44.8934 280.474 45.6482 278.904 46.1609C278.022 46.2581 277.16 46.4933 276.351 46.8576C275.7 47.2791 275.185 47.8803 274.869 48.5884C274.552 49.2965 274.448 50.0811 274.568 50.8473Z" fill="#FBF1DD"/>
<path d="M297.753 19.0979C302.986 13.9224 309.687 10.4863 316.944 9.25779C325.408 8.32094 333.923 10.5092 340.887 15.4111C340.925 15.4307 340.97 15.4364 341.012 15.4272C341.055 15.418 341.093 15.3945 341.121 15.3605C341.148 15.3266 341.163 15.2843 341.163 15.2408C341.163 15.1972 341.148 15.155 341.12 15.1211C338.119 11.8327 334.362 9.32573 330.173 7.81765C325.984 6.30957 321.491 5.84587 317.083 6.46672C313.064 6.92138 309.199 8.2714 305.771 10.4174C302.508 12.6989 299.754 15.6326 297.684 19.033C297.649 19.0632 297.714 19.0979 297.753 19.0979Z" fill="#FBF1DD"/>
<path d="M246.412 410.196C246.233 400.494 246.132 390.791 246.109 381.087C246.087 372.142 247.619 361.614 245.59 352.912C245.541 352.738 245.437 352.584 245.294 352.473C245.151 352.362 244.976 352.301 244.794 352.298C244.613 352.295 244.436 352.351 244.29 352.457C244.143 352.563 244.034 352.713 243.98 352.886C241.786 361.562 243.244 372.116 243.322 381.048C243.409 391.144 243.58 401.241 243.837 411.338C244.097 421.429 244.408 431.524 244.936 441.607C244.802 450.979 245.608 460.341 247.342 469.552C247.342 469.565 247.347 469.577 247.356 469.586C247.365 469.594 247.377 469.6 247.39 469.6C247.402 469.6 247.414 469.594 247.423 469.586C247.432 469.577 247.437 469.565 247.437 469.552C248.189 459.484 248.092 449.37 247.147 439.318C246.905 429.599 246.594 419.901 246.412 410.196Z" fill="#FBF1DD"/>
<path d="M246.122 334.552C245.892 333.955 244.966 333.613 244.603 334.318C243.897 336.174 243.632 338.167 243.828 340.143C243.798 342.609 244.04 345.063 244.261 347.521C244.296 347.923 244.94 348.105 245.031 347.633C245.464 345.47 245.871 343.332 246.135 341.142C246.639 338.974 246.635 336.718 246.122 334.552Z" fill="#FBF1DD"/>
<path d="M251.548 387.255C250.888 392.04 250.923 396.895 251.652 401.669C251.899 406.473 252.487 411.254 253.409 415.975C253.426 416.041 253.466 416.099 253.522 416.137C253.578 416.176 253.647 416.193 253.714 416.185C253.782 416.177 253.845 416.145 253.89 416.094C253.936 416.044 253.962 415.978 253.963 415.91C254.123 410.821 253.798 405.758 253.608 400.674C253.826 396.184 253.536 391.684 252.743 387.26C252.707 387.128 252.63 387.012 252.522 386.929C252.415 386.846 252.283 386.801 252.147 386.801C252.011 386.8 251.879 386.845 251.771 386.927C251.662 387.009 251.584 387.124 251.548 387.255Z" fill="#FBF1DD"/>
<path d="M252.14 381.284C252.898 379.732 253.306 378.033 253.337 376.306C253.367 374.579 253.02 372.867 252.318 371.289C252.244 371.166 252.133 371.07 252.001 371.015C251.868 370.96 251.722 370.95 251.583 370.985C251.444 371.019 251.32 371.098 251.23 371.209C251.139 371.32 251.087 371.457 251.08 371.6C251.405 374.789 251.564 377.993 251.556 381.198C251.513 381.553 252.036 381.592 252.14 381.284Z" fill="#FBF1DD"/>
<path d="M248.544 280.029C249.114 275.359 250.554 270.837 252.789 266.697C254.9 263.17 257.784 260.168 261.223 257.917C262.374 257.125 263.508 256.363 264.577 255.541C270.234 252.151 275.007 247.466 278.502 241.872C281.058 237.769 283.231 233.439 284.992 228.938C287.156 223.593 287.364 218.089 288.982 212.68C288.994 212.62 288.984 212.557 288.952 212.504C288.92 212.451 288.869 212.412 288.81 212.394C288.751 212.377 288.687 212.382 288.631 212.41C288.576 212.437 288.533 212.484 288.51 212.542C286.176 218.082 283.517 223.48 280.548 228.708C278.206 233.578 275.142 238.067 271.461 242.023C268.385 245.344 264.792 248.146 260.821 250.318C257.069 252.309 252.3 252.421 248.839 254.806C247.389 256.051 246.246 257.614 245.5 259.374C244.753 261.133 244.422 263.041 244.533 264.949C244.044 270.786 243.836 276.658 243.603 282.508C243.17 293.426 241.703 305.334 243.806 316.126C243.82 316.179 243.851 316.225 243.894 316.258C243.937 316.29 243.99 316.308 244.044 316.308C244.098 316.308 244.151 316.29 244.194 316.258C244.237 316.225 244.268 316.179 244.282 316.126C246.267 305.595 247.525 294.939 248.047 284.235C248.2 282.833 248.365 281.431 248.544 280.029Z" fill="#FBF1DD"/>
<path d="M253.707 277.99C253.705 277.821 253.649 277.657 253.548 277.522C253.446 277.387 253.304 277.288 253.142 277.24C252.98 277.191 252.806 277.196 252.647 277.253C252.488 277.31 252.351 277.417 252.257 277.558C248.819 285.087 248.438 293.656 251.193 301.461C251.216 301.547 251.27 301.622 251.344 301.672C251.418 301.722 251.507 301.744 251.596 301.734C251.685 301.723 251.767 301.681 251.827 301.615C251.887 301.549 251.922 301.464 251.924 301.375C252.469 297.48 252.43 293.534 252.789 289.63C253.458 285.787 253.765 281.89 253.707 277.99Z" fill="#FBF1DD"/>
<path d="M332.575 100.683C332.709 100.635 332.882 100.731 333.008 100.713C333.133 100.696 333.259 100.661 333.388 100.648C333.648 100.632 333.904 100.579 334.15 100.493C334.622 100.328 335.275 99.995 335.357 99.4497C335.392 99.311 335.373 99.1644 335.304 99.0392C335.235 98.914 335.121 98.8196 334.985 98.7747C334.479 98.5626 333.856 98.9347 333.466 99.2506C333.279 99.3972 333.112 99.5674 332.969 99.7569C332.891 99.8694 332.787 99.9646 332.709 100.073C332.636 100.221 332.555 100.366 332.467 100.506C332.406 100.575 332.484 100.722 332.575 100.683Z" fill="#FBF1DD"/>
<path d="M325.249 105.685C325.565 105.659 325.878 105.603 326.184 105.517C326.756 105.367 327.311 105.16 327.841 104.898C328.94 104.526 329.9 103.829 330.593 102.899C330.879 102.323 330.442 101.501 329.728 101.713C329.619 101.747 329.511 101.791 329.407 101.834C329.234 101.86 328.745 101.899 328.624 101.929C328.478 101.965 328.333 102.008 328.191 102.059C327.759 102.215 327.326 102.401 326.893 102.591C326.067 102.922 325.279 103.342 324.544 103.842C324.394 103.989 324.291 104.176 324.247 104.381C324.203 104.585 324.219 104.798 324.294 104.994C324.369 105.19 324.499 105.359 324.668 105.482C324.838 105.605 325.04 105.675 325.249 105.685Z" fill="#FBF1DD"/>
<path d="M303.812 109.415C304.114 111.514 304.687 113.565 305.517 115.516C306.011 117.749 305.998 120.051 306.482 122.275C306.493 122.317 306.516 122.355 306.548 122.384C306.58 122.414 306.621 122.433 306.664 122.439C306.707 122.446 306.75 122.439 306.79 122.421C306.829 122.402 306.862 122.373 306.885 122.336C307.761 120.137 307.967 117.728 307.478 115.412C307.149 113.344 306.569 110.155 304.661 108.96C304.577 108.911 304.483 108.884 304.386 108.882C304.289 108.88 304.194 108.903 304.109 108.949C304.023 108.994 303.951 109.061 303.899 109.143C303.848 109.224 303.818 109.318 303.812 109.415Z" fill="white"/>
<path d="M7.92578 63.7369H8.19838C10.6606 63.685 13.5381 63.5553 16.8528 63.3995C33.4779 62.6379 58.6017 61.4869 72.3232 69.4359C72.622 69.6085 72.8803 69.8428 73.0812 70.1233C73.282 70.4038 73.4207 70.724 73.4879 71.0623C73.555 71.4007 73.5492 71.7494 73.4707 72.0854C73.3923 72.4213 73.243 72.7366 73.0329 73.0102C61.5614 87.9866 64.3006 113.253 79.554 133.08C84.216 139.497 90.1088 144.921 96.8888 149.036C103.669 153.151 111.2 155.875 119.044 157.049C133.923 158.39 147.687 165.497 157.396 176.85C157.98 177.547 158.59 178.265 159.213 179.014L159.335 179.17C162.385 183.548 164.552 188.479 165.713 193.687C167.011 198.447 167.634 200.438 170.594 201.316C180.283 204.202 193.437 216.734 198.643 221.987L200.374 223.753L200.421 223.8C213.403 237.111 227.826 251.356 243.356 266.207C262.396 284.381 390.55 472.476 407.526 497.435L409.317 495.618C404.125 484.839 372.536 419.407 341.454 361.518C304.629 292.91 276.836 250.387 270.379 240.707C266.437 243.422 261.938 245.224 257.21 245.98C252.483 246.736 247.646 246.428 243.053 245.077C239.902 244.153 236.876 242.845 234.044 241.183C204.173 222.465 179.204 196.886 161.213 166.573C154.897 155.419 152.55 142.452 154.557 129.792C155.438 121.909 154.74 113.929 152.505 106.319C150.269 98.708 146.541 91.6186 141.537 85.4639C134.53 76.1812 125.154 68.9558 114.392 64.5462C110.616 63.0533 106.663 62.0513 102.631 61.5647C102.551 61.5564 102.471 61.5434 102.393 61.5258C97.209 60.5299 91.9737 59.8234 86.7112 59.4097C60.3743 57.3028 33.8735 58.7583 7.92578 63.7369ZM110.848 69.2932L111.372 69.4403C121.979 72.9353 131.278 79.5641 138.04 88.4521C144.803 97.3401 148.712 108.07 149.252 119.225C149.517 124.085 148.629 128.939 146.661 133.391C144.693 137.843 141.701 141.766 137.928 144.842C122.865 156.43 98.3297 149.892 83.2364 130.263C68.1431 110.635 68.1215 85.2605 83.1845 73.6636C87.1249 70.8064 91.6848 68.9213 96.4924 68.1617C101.3 67.4022 106.219 67.7899 110.848 69.2932Z" fill="white"/>
<path d="M0.0417212 61.936C-0.0528876 62.6958 0.0138361 63.467 0.237527 64.1992C0.461218 64.9314 0.836857 65.6082 1.3399 66.1853C2.25216 67.0766 3.35153 67.7534 4.55813 68.1666C5.76473 68.5797 7.04823 68.7189 8.31535 68.574C10.8424 68.522 13.8888 68.3835 17.1169 68.2364C32.2145 67.5397 54.5645 66.5056 67.5721 72.4079C56.7238 89.284 59.9432 115.472 75.7549 136.018C80.8209 142.954 87.2185 148.812 94.5739 153.248C101.929 157.685 110.095 160.611 118.594 161.856C132.22 163.068 144.83 169.565 153.727 179.956C154.298 180.636 154.891 181.332 155.497 182.046C158.17 185.933 160.062 190.302 161.07 194.911C162.368 199.706 163.58 204.236 169.253 205.928C178.106 208.568 191.382 221.471 195.216 225.349L196.882 227.079L196.96 227.157C209.941 240.481 224.433 254.787 240.024 269.681C259.609 288.387 403.744 500.429 405.198 502.571C405.399 502.867 405.664 503.115 405.973 503.296C406.281 503.478 406.626 503.589 406.983 503.621C407.34 503.654 407.699 503.606 408.036 503.483C408.372 503.36 408.677 503.164 408.928 502.908L413.986 497.772C414.336 497.418 414.567 496.964 414.65 496.473C414.732 495.982 414.66 495.478 414.445 495.029C414.099 494.306 379.602 422.288 345.742 359.198C303.66 280.784 273.274 236.257 272.971 235.82C272.774 235.532 272.517 235.29 272.217 235.111C271.917 234.931 271.582 234.819 271.235 234.781C270.887 234.743 270.536 234.781 270.205 234.892C269.873 235.002 269.57 235.183 269.315 235.422C264.723 239.146 259.06 241.303 253.154 241.577C247.249 241.851 241.41 240.228 236.493 236.945C207.354 218.676 182.996 193.714 165.445 164.136C159.671 153.94 157.526 142.087 159.361 130.514C160.341 121.981 159.61 113.339 157.213 105.092C154.815 96.8453 150.798 89.1587 145.397 82.4815C137.885 72.4657 127.779 64.6927 116.171 60.0018C114.593 59.3874 113.006 58.8507 111.411 58.3921C108.759 57.62 106.048 57.0658 103.306 56.7348C97.963 55.7147 92.5673 54.9924 87.144 54.5712C58.6314 52.323 29.9439 54.1471 1.9457 59.9887C1.46977 60.0852 1.0338 60.3224 0.694308 60.6696C0.354812 61.0168 0.127437 61.4581 0.0417212 61.936ZM102.648 61.5033C106.68 61.9898 110.633 62.9918 114.41 64.4847C125.172 68.8943 134.548 76.1197 141.554 85.4025C146.558 91.5572 150.286 98.6465 152.522 106.257C154.757 113.868 155.455 121.847 154.575 129.73C152.568 142.391 154.914 155.357 161.23 166.512C179.222 196.825 204.191 222.404 234.061 241.121C236.894 242.783 239.919 244.091 243.071 245.016C247.664 246.366 252.5 246.675 257.228 245.919C261.955 245.163 266.454 243.361 270.397 240.645C276.853 250.325 304.647 292.849 341.471 361.456C372.54 419.346 404.151 484.782 409.335 495.557L407.543 497.374C390.568 472.415 262.404 284.32 243.373 266.145C227.843 251.307 213.412 237.062 200.439 223.739L200.391 223.691L198.66 221.926C193.468 216.672 180.3 204.141 170.611 201.255C167.652 200.389 167.016 198.399 165.73 193.626C164.569 188.418 162.403 183.486 159.352 179.108L159.231 178.952C158.608 178.221 157.998 177.503 157.413 176.789C147.704 165.435 133.94 158.329 119.061 156.987C111.218 155.813 103.686 153.089 96.9062 148.974C90.1262 144.859 84.2334 139.435 79.5714 133.019C64.318 113.187 61.5789 87.9253 73.0504 72.9488C73.2605 72.6752 73.4097 72.3598 73.4882 72.0239C73.5667 71.688 73.5725 71.3392 73.5053 71.0009C73.4382 70.6625 73.2995 70.3423 73.0986 70.0618C72.8978 69.7814 72.6394 69.547 72.3407 69.3745C58.6191 61.4254 33.4953 62.5765 16.8702 63.3381C13.5339 63.4939 10.6564 63.6237 8.21581 63.6756H7.94321C33.8904 58.6821 60.3926 57.212 86.7329 59.3051C91.9954 59.7187 97.2308 60.4252 102.415 61.4211C102.487 61.4527 102.56 61.4801 102.635 61.5033H102.648Z" fill="#FBF1DD"/>
<path d="M83.2369 130.263C98.3302 149.891 122.865 156.429 137.928 144.841C141.701 141.766 144.694 137.842 146.662 133.39C148.63 128.938 149.517 124.084 149.253 119.224C148.713 108.069 144.804 97.3394 138.041 88.4514C131.278 79.5634 121.98 72.9346 111.372 69.4396L110.849 69.2925C106.22 67.7892 101.301 67.4015 96.4929 68.161C91.6853 68.9205 87.1254 70.8057 83.185 73.6628C68.122 85.2468 68.1436 110.639 83.2369 130.263ZM134.034 91.1923C140.428 99.1883 144.071 109.035 144.419 119.267C144.817 123.432 144.142 127.629 142.458 131.459C140.774 135.288 138.137 138.623 134.799 141.144C131.461 143.666 127.533 145.291 123.389 145.863C119.245 146.436 115.023 145.938 111.126 144.417C101.516 141.382 93.1081 135.395 87.0968 127.307C73.6348 109.804 73.2108 87.4623 86.1578 77.5011C89.5089 75.1111 93.3765 73.5454 97.4464 72.9311C101.516 72.3168 105.674 72.6713 109.581 73.9658C119.368 76.9373 127.941 82.9766 134.034 91.1923Z" fill="#FBF1DD"/>
<path d="M259.609 276.682C259.16 274.825 259.262 272.877 259.902 271.076C260.542 269.276 261.693 267.701 263.214 266.544C264.735 265.387 266.56 264.698 268.466 264.561C270.372 264.424 272.276 264.845 273.947 265.774C275.617 266.702 276.981 268.096 277.872 269.787C278.762 271.477 279.141 273.391 278.962 275.293C278.783 277.196 278.054 279.005 276.863 280.5C275.672 281.994 274.072 283.11 272.258 283.71C269.649 284.451 266.852 284.127 264.481 282.81C262.11 281.493 260.358 279.289 259.609 276.682Z" fill="white"/>
<path d="M248.16 268.488C248.203 265.104 251.691 261.746 258.333 257.743C265.118 253.654 271.578 249.522 277.983 254.991L269.562 243.503C269.562 243.503 251.474 255.225 236.126 245.021C220.777 234.818 188.436 210.836 188.436 210.836C188.436 210.836 229.384 250.14 248.263 269.643C248.2 269.261 248.165 268.875 248.16 268.488Z" fill="#FBF1DD"/>
<path d="M271.709 261.079C269.452 260.417 267.047 260.46 264.815 261.2C261.671 262.366 259.116 264.729 257.71 267.773C256.303 270.817 256.158 274.294 257.308 277.444C258.261 280.659 260.448 283.366 263.392 284.972C266.336 286.577 269.796 286.951 273.015 286.012C274.575 285.491 276.008 284.649 277.222 283.54C278.436 282.431 279.405 281.08 280.064 279.573C281.422 276.473 281.585 272.98 280.522 269.766C279.46 266.553 277.247 263.845 274.309 262.165C273.487 261.705 272.614 261.34 271.709 261.079ZM275.923 271.291C276.626 273.346 276.53 275.591 275.655 277.578C275.022 279.014 273.93 280.199 272.552 280.949C271.163 280.926 269.805 280.531 268.62 279.806C267.434 279.081 266.464 278.052 265.81 276.825C265.506 276.302 265.24 275.756 265.014 275.194C268.055 276.102 271.322 275.878 274.21 274.562C274.504 274.424 274.59 273.879 274.171 273.835C270.8 273.583 267.492 272.79 264.374 271.486C264.542 269.598 265.244 267.796 266.399 266.293C266.525 266.115 266.609 265.911 266.646 265.696C267.533 265.455 268.459 265.392 269.371 265.51C270.283 265.628 271.163 265.925 271.959 266.384C273.853 267.46 275.269 269.213 275.923 271.291Z" fill="#FBF1DD"/>
<path d="M115.924 154.876C124.528 155.979 132.97 158.098 141.074 161.19C143.548 162.849 145.884 164.705 148.058 166.742C152.377 170.398 156.483 174.299 160.356 178.425C160.495 178.577 160.611 178.741 160.746 178.897C163.834 182.57 166.184 186.804 167.669 191.368C168.599 194.557 169.015 198.477 172.104 200.455C173.96 201.36 175.881 202.126 177.851 202.744C180.123 203.735 182.416 204.622 184.701 205.578C184.73 205.593 184.764 205.595 184.795 205.584C184.826 205.574 184.851 205.551 184.865 205.522C184.88 205.493 184.882 205.459 184.871 205.428C184.861 205.397 184.838 205.372 184.809 205.358C180.415 203.342 176.473 200.458 173.221 196.881C171.513 193.411 170.03 189.835 168.781 186.175C168.418 185.141 167.994 184.129 167.509 183.146C165.66 177.684 162.789 172.624 159.049 168.235C156.959 165.798 153.787 162.761 151.156 159.394C149.284 156.372 148.102 152.973 147.695 149.441C147.759 143.628 148.837 137.87 150.879 132.427C150.879 132.405 150.854 132.388 150.841 132.427C150.252 133.292 149.685 134.158 149.149 135.105C148.516 136.179 147.938 137.284 147.418 138.416C141.286 148.485 129.352 151.969 117.863 152.263C107.806 150.346 97.8626 148.096 89.8399 141.207C89.7993 141.169 89.7459 141.147 89.6901 141.146C89.6343 141.145 89.5802 141.165 89.5381 141.201C89.4961 141.238 89.4691 141.289 89.4625 141.344C89.4559 141.4 89.4701 141.456 89.5024 141.501C95.4566 150.112 106.093 153.18 115.924 154.876Z" fill="#FBF1DD"/>
<path d="M57.1055 62.8028C61.2629 63.4625 65.3388 64.5604 69.265 66.0784C71.2097 66.7056 73.0744 67.5581 74.8211 68.6185C77.7636 70.6826 75.3014 72.4178 73.6138 74.6766C69.0918 80.6827 68.3605 89.5232 67.123 96.6891C67.0927 96.8665 67.3609 96.979 67.4302 96.7972C69.1437 91.1745 71.1543 85.6467 73.4536 80.2371C75.0201 77.2599 80.0008 73.5775 79.7195 69.8518C79.4728 66.5328 74.4965 65.3298 71.9868 64.4557C67.2029 62.8408 62.1295 62.2654 57.1055 62.7681V62.8028Z" fill="#FBF1DD"/>
<path d="M79.772 65.9608C80.1611 66.2742 80.5834 66.5442 81.0313 66.7657C81.4321 67.0694 81.7714 67.4468 82.0309 67.8777C82.4383 68.7101 82.8919 69.5192 83.3896 70.3011C83.442 70.3744 83.5203 70.4251 83.6087 70.4427C83.6971 70.4604 83.789 70.4437 83.8656 70.3961C86.5831 68.6869 83.0564 63.4726 80.5034 63.8707C80.2698 63.8899 80.0467 63.9763 79.8613 64.1197C79.6759 64.263 79.536 64.457 79.4586 64.6782C79.3812 64.8994 79.3696 65.1383 79.4253 65.366C79.4809 65.5936 79.6014 65.8002 79.772 65.9608Z" fill="#FBF1DD"/>
<path d="M85.8428 65.8311C85.8861 65.8311 85.964 65.8917 85.9726 65.896L86.0333 65.9523C86.1501 66.1716 86.3141 66.3623 86.5135 66.5105L86.5612 66.5537C86.6156 66.6248 86.685 66.6831 86.7643 66.7246C86.8437 66.766 86.9311 66.7896 87.0206 66.7938C87.11 66.7979 87.1993 66.7825 87.2821 66.7485C87.365 66.7145 87.4394 66.6628 87.5001 66.597C87.571 66.5305 87.6361 66.4582 87.6949 66.3807V66.4066V66.3763C87.7498 66.3017 87.795 66.2202 87.829 66.134C88.2617 65.2123 87.4223 64.2258 86.479 63.9964C86.2476 63.9523 86.0081 63.9927 85.804 64.1104C85.6 64.2281 85.445 64.4152 85.3674 64.6376C85.2897 64.8599 85.2946 65.1028 85.3811 65.3219C85.4676 65.541 85.6299 65.7217 85.8385 65.8311H85.8428Z" fill="#FBF1DD"/>
<path d="M281.146 318.909C285.555 317.21 290.205 316.221 294.924 315.979C298.956 317.211 302.641 319.376 305.681 322.297C307.317 324.158 308.983 325.958 310.35 327.732C313.068 331.263 315.702 334.853 318.252 338.502C324.53 348.022 330.056 358.061 336.227 367.655C337.456 370.121 338.724 372.57 340.121 374.898C342.982 380.351 346.422 385.647 349.317 390.857C354.111 399.511 359.044 408.058 363.826 416.708C373.199 433.666 381.927 451.382 392.498 467.622C392.68 467.894 393.177 467.678 393.034 467.362L392.926 467.128C393.727 468.626 394.16 469.443 394.16 469.443C394.16 469.443 393.532 468.21 392.394 465.982C387.898 456.159 382.74 446.561 377.469 437.041C354.535 392.869 315.266 318.476 307.546 312.111C296.507 303.023 276.775 313.521 276.775 313.521L278.991 316.598C278.873 316.905 278.843 317.24 278.906 317.564C278.969 317.887 279.121 318.186 279.346 318.427C279.57 318.668 279.858 318.841 280.177 318.926C280.495 319.011 280.831 319.005 281.146 318.909Z" fill="#FBF1DD"/>
<path d="M311.341 332.202C305.781 324.543 297.927 313.997 287.109 318.251C286.741 318.398 286.81 319.008 287.243 318.969C299.29 317.875 306.638 330.865 312.544 339.342C319.152 348.827 325.158 358.749 331.956 368.096C332.064 368.243 332.328 368.135 332.255 367.953C326.813 355.205 319.787 343.193 311.341 332.202Z" fill="#FBF1DD"/>
<path d="M295.616 322.781C294.643 322.232 293.699 323.647 294.53 324.391C297.096 326.633 299.853 328.602 302.319 330.986C304.786 333.37 306.893 335.932 309.208 338.377C309.424 338.602 309.866 338.32 309.732 338.035C306.627 331.675 301.717 326.369 295.616 322.781Z" fill="#FBF1DD"/>
<path d="M297.98 330.19C297.888 330.171 297.793 330.176 297.705 330.206C297.616 330.235 297.536 330.287 297.474 330.356C297.411 330.426 297.368 330.511 297.348 330.602C297.328 330.694 297.333 330.788 297.361 330.878C297.764 332.228 299.499 333.227 300.65 333.907C301.057 334.14 301.515 333.604 301.247 333.227C300.498 332.111 299.356 330.479 297.98 330.19Z" fill="#FBF1DD"/>
<path d="M362.901 418.166C359.959 413.263 356.817 406.318 352.031 403.02C351.998 402.993 351.956 402.977 351.913 402.975C351.87 402.973 351.828 402.984 351.791 403.008C351.755 403.031 351.728 403.066 351.712 403.106C351.697 403.147 351.695 403.191 351.707 403.233C352.949 408.719 357.652 413.999 360.603 418.737C364.018 424.219 367.587 429.581 371.067 435.02C371.183 435.206 371.499 435.055 371.426 434.847C368.893 429.134 366.047 423.565 362.901 418.166Z" fill="#FBF1DD"/>
<path d="M346.366 392.97C346.263 392.885 346.137 392.836 346.004 392.829C345.872 392.823 345.741 392.858 345.631 392.932C345.52 393.005 345.436 393.111 345.391 393.236C345.346 393.36 345.341 393.496 345.379 393.623C346.608 396.413 348.356 398.944 350.528 401.083C350.628 401.209 350.887 401.122 350.805 400.949C349.846 398.031 348.339 395.323 346.366 392.97Z" fill="#FBF1DD"/>
<path d="M343.267 388.121C342.982 388.026 342.782 388.355 342.834 388.593C343 389.015 343.207 389.419 343.453 389.8C343.681 390.221 343.886 390.654 344.068 391.098C344.093 391.174 344.145 391.239 344.215 391.28C344.284 391.321 344.366 391.335 344.445 391.321C344.524 391.306 344.595 391.263 344.645 391.2C344.695 391.136 344.721 391.057 344.717 390.977C344.805 390.409 344.713 389.827 344.453 389.315C344.193 388.802 343.778 388.385 343.267 388.121Z" fill="#FBF1DD"/>
<path d="M256.646 263.887C258.885 261.59 261.612 259.826 264.625 258.725C265.157 258.461 264.841 257.747 264.409 257.604C262.348 257.103 260.178 257.31 258.249 258.192C256.321 259.075 254.745 260.581 253.777 262.468C252.597 264.244 251.975 266.332 251.989 268.464C252.002 270.596 252.652 272.676 253.855 274.437C254.036 274.705 254.551 274.584 254.495 274.225C254.154 272.445 254.168 270.615 254.537 268.841C254.906 267.067 255.623 265.383 256.646 263.887Z" fill="#FBF1DD"/>
<path d="M275.486 281.935C275.486 281.935 275.486 281.888 275.455 281.901C269.722 285.86 263.01 280.602 261.717 274.687C261.434 273.298 261.48 271.862 261.851 270.494C262.223 269.125 262.909 267.863 263.856 266.808C264.803 265.752 265.983 264.933 267.303 264.415C268.623 263.897 270.045 263.696 271.457 263.826C271.834 263.826 271.89 263.216 271.513 263.164C269.826 262.882 268.096 263.019 266.474 263.564C264.853 264.108 263.39 265.044 262.216 266.287C261.041 267.53 260.19 269.044 259.739 270.694C259.287 272.344 259.249 274.079 259.627 275.747C261.405 281.987 270.315 288.911 275.486 281.935Z" fill="white"/>
<path d="M132.671 155.252C134.58 155.77 136.522 156.163 138.482 156.429C140.512 156.979 142.476 157.814 144.54 158.29C144.627 158.312 144.722 158.195 144.657 158.121C143.103 156.609 141.227 155.467 139.169 154.782C137.111 154.097 134.925 153.887 132.775 154.166C132.665 154.203 132.569 154.271 132.497 154.361C132.425 154.451 132.381 154.561 132.37 154.676C132.359 154.791 132.381 154.906 132.435 155.009C132.488 155.111 132.57 155.196 132.671 155.252Z" fill="white"/>
<path d="M140.244 153.397C140.677 153.488 141.07 153.159 141.499 153.142C141.919 153.118 142.334 153.238 142.676 153.484C142.741 153.545 142.825 153.583 142.914 153.59C143.003 153.596 143.092 153.573 143.165 153.522C143.239 153.471 143.292 153.397 143.318 153.311C143.343 153.225 143.338 153.133 143.303 153.051C143.179 152.696 142.952 152.387 142.65 152.162C142.349 151.938 141.987 151.809 141.611 151.792C140.967 151.749 139.768 152.077 139.88 152.921C139.882 153.029 139.918 153.134 139.983 153.219C140.049 153.305 140.14 153.367 140.244 153.397Z" fill="white"/>
</g>
</svg>
