<svg width="173" height="30" viewBox="0 0 173 30" fill="none" xmlns="http://www.w3.org/2000/svg">
<path d="M40.423 5.02197C36.0868 5.02197 32.5691 8.82728 32.5691 13.5175C32.5691 18.2078 36.0868 22.0131 40.423 22.0131C44.7593 22.0131 48.277 18.2078 48.277 13.5175C48.277 8.82728 44.7593 5.02197 40.423 5.02197Z" fill="#DEC7A6"/>
<path d="M58.7467 14.9333C62.1815 14.9333 65.6992 14.2254 67.9115 9.26963C67.9115 9.26963 69.875 24.8448 50.8927 24.8448C43.2047 24.8448 37.6018 23.0971 34.2777 18.805C36.4901 15.315 40.7324 11.9521 45.7489 7.27295C47.4359 9.11476 53.6748 14.9333 58.7467 14.9333Z" fill="#DEC7A6"/>
<path d="M27.547 5.02197C23.2107 5.02197 19.693 8.82728 19.693 13.5175C19.693 18.2078 23.2107 22.0131 27.547 22.0131C31.8833 22.0131 35.401 18.2078 35.401 13.5175C35.401 8.82728 31.8833 5.02197 27.547 5.02197Z" fill="#DEC7A6"/>
<path d="M22.2204 7.27295C27.237 11.9466 31.4793 15.315 33.6916 18.805C30.3675 23.0971 24.7647 24.8448 17.0766 24.8448C-1.90568 24.8448 0.0578154 9.26963 0.0578154 9.26963C2.2702 14.2254 5.7879 14.9333 9.22263 14.9333C14.2945 14.9333 20.5335 9.11476 22.2204 7.27295Z" fill="#DEC7A6"/>
<path d="M88.3631 15.2884C88.2993 15.3362 88.2993 15.3841 88.3631 15.432C89.0811 15.8308 89.6076 16.3414 89.9427 16.9636C90.2777 17.5859 90.4453 18.3358 90.4453 19.2133C90.4453 20.8566 89.8709 22.0692 88.7221 22.851C87.5734 23.6169 86.0816 23.9998 84.2468 23.9998H77.8089C77.6973 23.9998 77.6095 23.9679 77.5457 23.904C77.4819 23.8402 77.45 23.7525 77.45 23.6408V7.60606C77.45 7.49437 77.4819 7.40662 77.5457 7.3428C77.6095 7.27898 77.6973 7.24707 77.8089 7.24707H84.0314C86.0736 7.24707 87.6053 7.61403 88.6264 8.34796C89.6635 9.06593 90.182 10.2785 90.182 11.9857C90.182 13.5014 89.5757 14.6023 88.3631 15.2884ZM82.0689 11.1002C81.9891 11.1002 81.9492 11.1401 81.9492 11.2199V13.6131C81.9492 13.6929 81.9891 13.7328 82.0689 13.7328H84.0314C85.1961 13.7328 85.7784 13.294 85.7784 12.4165C85.7784 11.539 85.1961 11.1002 84.0314 11.1002H82.0689ZM84.2468 20.1466C85.3796 20.1466 85.946 19.676 85.946 18.7346C85.946 17.8412 85.3875 17.3944 84.2707 17.3944H82.0689C81.9891 17.3944 81.9492 17.4343 81.9492 17.5141V20.027C81.9492 20.1068 81.9891 20.1466 82.0689 20.1466H84.2468Z" fill="white"/>
<path d="M104.308 10.7412C104.308 10.8529 104.276 10.9406 104.212 11.0045C104.148 11.0683 104.06 11.1002 103.949 11.1002H96.793C96.7132 11.1002 96.6733 11.1401 96.6733 11.2199V13.4695C96.6733 13.5493 96.7132 13.5892 96.793 13.5892H101.22C101.332 13.5892 101.42 13.6211 101.484 13.6849C101.548 13.7487 101.579 13.8365 101.579 13.9482V17.0594C101.579 17.1711 101.548 17.2588 101.484 17.3226C101.42 17.3864 101.332 17.4184 101.22 17.4184H96.793C96.7132 17.4184 96.6733 17.4582 96.6733 17.538V20.027C96.6733 20.1068 96.7132 20.1466 96.793 20.1466H103.949C104.06 20.1466 104.148 20.1786 104.212 20.2424C104.276 20.3062 104.308 20.3939 104.308 20.5056V23.6408C104.308 23.7525 104.276 23.8402 104.212 23.904C104.148 23.9679 104.06 23.9998 103.949 23.9998H92.533C92.4213 23.9998 92.3336 23.9679 92.2697 23.904C92.2059 23.8402 92.174 23.7525 92.174 23.6408V7.60606C92.174 7.49437 92.2059 7.40662 92.2697 7.3428C92.3336 7.27898 92.4213 7.24707 92.533 7.24707H103.949C104.06 7.24707 104.148 7.27898 104.212 7.3428C104.276 7.40662 104.308 7.49437 104.308 7.60606V10.7412Z" fill="white"/>
<path d="M117.023 23.9998C116.8 23.9998 116.664 23.8961 116.616 23.6886L116.09 21.8219C116.058 21.7581 116.018 21.7262 115.97 21.7262H110.897C110.849 21.7262 110.809 21.7581 110.777 21.8219L110.25 23.6886C110.203 23.8961 110.067 23.9998 109.844 23.9998H105.751C105.464 23.9998 105.36 23.8642 105.44 23.5929L110.49 7.53426C110.554 7.3428 110.689 7.24707 110.897 7.24707H115.97C116.178 7.24707 116.313 7.3428 116.377 7.53426L121.427 23.5929C121.443 23.6248 121.451 23.6727 121.451 23.7365C121.451 23.912 121.339 23.9998 121.116 23.9998H117.023ZM111.83 18.1363C111.814 18.2321 111.846 18.2799 111.926 18.2799H114.917C115.013 18.2799 115.045 18.2321 115.013 18.1363L113.481 12.7755C113.465 12.7276 113.441 12.7037 113.41 12.7037C113.378 12.7037 113.354 12.7276 113.338 12.7755L111.83 18.1363Z" fill="white"/>
<path d="M131.715 23.9998C131.507 23.9998 131.372 23.912 131.308 23.7365L128.675 17.6577C128.643 17.5939 128.595 17.5619 128.532 17.5619H127.526C127.447 17.5619 127.407 17.6018 127.407 17.6816V23.6408C127.407 23.7525 127.375 23.8402 127.311 23.904C127.247 23.9679 127.16 23.9998 127.048 23.9998H123.267C123.155 23.9998 123.067 23.9679 123.003 23.904C122.939 23.8402 122.908 23.7525 122.908 23.6408V7.60606C122.908 7.49437 122.939 7.40662 123.003 7.3428C123.067 7.27898 123.155 7.24707 123.267 7.24707H130.518C131.603 7.24707 132.552 7.47044 133.366 7.91718C134.196 8.36392 134.834 8.99414 135.281 9.80784C135.743 10.6056 135.975 11.531 135.975 12.584C135.975 13.637 135.711 14.5624 135.185 15.3602C134.674 16.142 133.964 16.7163 133.055 17.0833C132.975 17.1152 132.951 17.1711 132.983 17.2508L136.023 23.569C136.054 23.6647 136.07 23.7206 136.07 23.7365C136.07 23.8163 136.038 23.8801 135.975 23.928C135.911 23.9758 135.831 23.9998 135.735 23.9998H131.715ZM127.526 11.1002C127.447 11.1002 127.407 11.1401 127.407 11.2199V14.0199C127.407 14.0997 127.447 14.1396 127.526 14.1396H129.776C130.287 14.1396 130.702 14.004 131.021 13.7328C131.34 13.4456 131.499 13.0786 131.499 12.6319C131.499 12.1692 131.34 11.8022 131.021 11.531C130.702 11.2438 130.287 11.1002 129.776 11.1002H127.526Z" fill="white"/>
<path d="M137.991 23.9998C137.879 23.9998 137.791 23.9679 137.727 23.904C137.663 23.8402 137.632 23.7525 137.632 23.6408V7.60606C137.632 7.49437 137.663 7.40662 137.727 7.3428C137.791 7.27898 137.879 7.24707 137.991 7.24707H144.141C145.434 7.24707 146.574 7.47044 147.564 7.91718C148.569 8.36392 149.343 8.99414 149.885 9.80784C150.427 10.6215 150.699 11.5629 150.699 12.6319V18.615C150.699 19.684 150.427 20.6253 149.885 21.439C149.343 22.2527 148.569 22.8829 147.564 23.3297C146.574 23.7764 145.434 23.9998 144.141 23.9998H137.991ZM142.131 20.027C142.131 20.1068 142.171 20.1466 142.251 20.1466H144.309C144.851 20.1466 145.298 19.9392 145.649 19.5244C146 19.0936 146.183 18.5352 146.199 17.8491V13.3977C146.199 12.7116 146.024 12.1612 145.673 11.7464C145.322 11.3156 144.859 11.1002 144.285 11.1002H142.251C142.171 11.1002 142.131 11.1401 142.131 11.2199V20.027Z" fill="white"/>
<path d="M157.193 23.9998C157.097 23.9998 157.017 23.9838 156.954 23.9519C156.906 23.904 156.882 23.8482 156.882 23.7844C156.882 23.7046 156.906 23.6328 156.954 23.569L161.309 15.6952C161.341 15.6474 161.341 15.5995 161.309 15.5516L156.954 7.67785C156.906 7.59808 156.882 7.52628 156.882 7.46246C156.882 7.39864 156.906 7.35078 156.954 7.31887C157.017 7.271 157.097 7.24707 157.193 7.24707H161.333C161.541 7.24707 161.684 7.33482 161.764 7.51033L164.109 12.0336C164.157 12.0974 164.205 12.0974 164.253 12.0336L166.598 7.51033C166.694 7.33482 166.838 7.24707 167.029 7.24707H171.146C171.241 7.24707 171.313 7.271 171.361 7.31887C171.425 7.35078 171.457 7.39864 171.457 7.46246C171.457 7.52628 171.433 7.59808 171.385 7.67785L167.053 15.5516C167.037 15.5995 167.037 15.6474 167.053 15.6952L171.385 23.569C171.433 23.6328 171.457 23.7046 171.457 23.7844C171.457 23.8482 171.425 23.904 171.361 23.9519C171.313 23.9838 171.241 23.9998 171.146 23.9998H167.053C166.862 23.9998 166.718 23.912 166.622 23.7365L164.253 19.2372C164.205 19.1574 164.157 19.1574 164.109 19.2372L161.74 23.7365C161.66 23.912 161.517 23.9998 161.309 23.9998H157.193Z" fill="white"/>
</svg>
