<svg width="210" height="30" viewBox="0 0 210 30" fill="none" xmlns="http://www.w3.org/2000/svg">
<path d="M27.547 5.02197C23.2107 5.02197 19.693 8.82728 19.693 13.5175C19.693 18.2078 23.2107 22.0131 27.547 22.0131C31.8833 22.0131 35.401 18.2078 35.401 13.5175C35.401 8.82728 31.8833 5.02197 27.547 5.02197Z" fill="#DEC7A6"/>
<path d="M22.2204 7.27295C27.237 11.9466 31.4793 15.315 33.6916 18.805C30.3675 23.0971 24.7647 24.8448 17.0766 24.8448C-1.90568 24.8448 0.0578154 9.26963 0.0578154 9.26963C2.2702 14.2254 5.7879 14.9333 9.22263 14.9333C14.2945 14.9333 20.5335 9.11476 22.2204 7.27295Z" fill="#DEC7A6"/>
<text x="58" y="21" fill="white" font-family="DM Sans, Arial, sans-serif" font-size="15" font-weight="700" letter-spacing="0.08em">KISA BARBERSHOP</text>
</svg>
