<svg width="24" height="25" viewBox="0 0 24 25" fill="none" xmlns="http://www.w3.org/2000/svg">
<g clip-path="url(#clip0_2019_35229)">
<path d="M18.9223 9.76268C18.9223 13.5858 11.9992 22.8396 11.9992 22.8396C11.9992 22.8396 5.07617 13.5858 5.07617 9.76268C5.07617 5.9396 8.17617 2.8396 11.9992 2.8396C15.8223 2.8396 18.9223 5.9396 18.9223 9.76268Z" stroke="#121212" stroke-width="2" stroke-linecap="square"/>
<path d="M11.9995 7.38672C11.4702 7.38672 10.9626 7.59697 10.5884 7.97121C10.2142 8.34546 10.0039 8.85305 10.0039 9.38231C10.0039 9.91157 10.2142 10.4192 10.5884 10.7934C10.9626 11.1676 11.4702 11.3779 11.9995 11.3779C12.5288 11.3779 13.0363 11.1676 13.4106 10.7934C13.7848 10.4192 13.9951 9.91157 13.9951 9.38231C13.9951 8.85305 13.7848 8.34546 13.4106 7.97121C13.0363 7.59697 12.5288 7.38672 11.9995 7.38672V7.38672Z" stroke="#121212" stroke-width="2" stroke-linecap="square"/>
</g>
<defs>
<clipPath id="clip0_2019_35229">
<rect width="24" height="24" fill="white" transform="translate(0 0.8396)"/>
</clipPath>
</defs>
</svg>
