<svg width="448" height="492" viewBox="0 0 448 492" fill="none" xmlns="http://www.w3.org/2000/svg">
<g opacity="0.2">
<path d="M380.513 378.777L381.517 378.53C377.682 379.187 373.756 379.079 369.964 378.212C359.139 376.833 349.735 367.558 323.593 341.738L318.333 336.547C245.264 264.529 111.754 219.886 106.102 218.014C99.8912 215.958 93.2136 214.239 86.7522 212.576C71.7657 208.72 57.6023 205.085 51.975 197.821C51.832 197.641 51.6985 197.461 51.5685 197.279C51.8552 198.615 52.4552 199.864 53.3188 200.923C58.2362 207.257 71.7449 210.746 86.0508 214.438C92.4768 216.107 99.1683 217.833 105.41 219.89C111.033 221.755 244.026 266.35 316.912 338.287C319.707 341.042 322.333 343.639 324.788 346.077C357.948 378.912 362.208 383.132 380.513 378.777Z" fill="white"/>
<path d="M427.312 347.88L427.793 345.58C427.847 342.9 427.31 340.241 426.22 337.792C425.13 335.343 423.514 333.164 421.487 331.41L421.441 331.334C407.285 315.792 391.777 301.539 375.099 288.742C333.341 256.12 287.04 229.776 237.663 210.545C115.973 162.947 63.1338 165.656 54.2671 184.075C53.67 185.278 53.2135 186.545 52.9066 187.852L52.7402 188.677C52.6383 189.282 52.5938 189.896 52.6075 190.51C52.6353 192.446 53.3208 194.315 54.5512 195.81C59.5129 202.201 73.1461 205.708 87.5785 209.422C94.092 211.098 100.828 212.832 107.149 214.914C112.824 216.792 247.049 261.657 320.644 334.229L325.904 339.42C362.036 375.091 364.988 378.004 383.98 373.466C395.309 370.846 406.159 366.471 416.137 360.501L416.468 360.3C418.688 358.851 420.75 357.173 422.621 355.295C424.321 353.627 425.711 351.67 426.725 349.515C426.956 348.983 427.152 348.437 427.312 347.88Z" fill="white"/>
<path d="M423.873 329.199C409.602 313.541 393.977 299.173 377.18 286.262C335.15 253.411 288.54 226.884 238.831 207.524C133.729 166.415 63.6311 157.127 51.3271 182.681C50.6154 184.122 50.0743 185.641 49.7147 187.207L49.5599 187.985C49.2016 189.117 48.9121 190.271 48.6933 191.438C48.6314 191.752 48.5746 192.057 48.497 192.409L48.318 193.31C48.1804 194.121 48.1183 194.943 48.1331 195.766C48.1818 198.385 49.1034 200.912 50.7516 202.948C56.3419 210.15 70.3736 213.771 85.2206 217.608C91.6291 219.249 98.2251 220.964 104.371 223C109.968 224.855 242.26 269.22 314.617 340.63C317.41 343.383 320.034 345.977 322.488 348.413C356.031 381.627 361.19 386.732 381.252 381.96C393.419 377.901 405.347 373.156 416.978 367.748L418.479 362.941L418.555 362.806C420.841 361.282 422.969 359.532 424.906 357.583C426.873 355.643 428.479 353.368 429.649 350.865C429.958 350.182 430.221 349.478 430.435 348.76L430.979 346.19L431.003 346.043C431.148 342.881 430.582 339.727 429.349 336.812C428.115 333.897 426.244 331.296 423.873 329.199ZM316.917 338.294C244.031 266.357 111.049 221.755 105.415 219.897C99.1643 217.826 92.496 216.105 86.0555 214.444C71.7496 210.753 58.241 207.264 53.3235 200.93C52.4599 199.871 51.86 198.622 51.5732 197.286C51.6888 197.477 51.8367 197.648 51.9797 197.828C57.6142 205.087 71.7705 208.726 86.7569 212.583C93.2184 214.246 99.8959 215.965 106.107 218.021C111.755 219.885 245.282 264.517 318.342 336.561L323.602 341.752C349.739 367.555 359.139 376.832 369.973 378.226C373.765 379.093 377.691 379.201 381.526 378.544L380.523 378.791C362.217 383.146 357.954 378.928 324.809 346.094C322.333 343.649 319.702 341.048 316.917 338.294ZM416.435 360.326L416.103 360.526C406.125 366.496 395.275 370.871 383.946 373.491C364.951 378.031 362.002 375.117 325.871 339.445L320.611 334.254C247.015 261.682 112.79 216.817 107.115 214.939C100.799 212.849 94.0657 211.119 87.545 209.447C73.1126 205.734 59.4794 202.226 54.5177 195.835C53.2872 194.34 52.6018 192.471 52.574 190.535C52.5603 189.921 52.6048 189.307 52.7067 188.702L52.8731 187.877C53.18 186.57 53.6365 185.303 54.2336 184.1C63.1003 165.681 115.939 162.972 237.63 210.57C287.006 229.801 333.307 256.145 375.065 288.767C391.743 301.564 407.252 315.817 421.407 331.359L421.453 331.435C423.48 333.189 425.096 335.368 426.186 337.817C427.276 340.266 427.813 342.925 427.76 345.605L427.279 347.905C427.11 348.462 426.905 349.007 426.665 349.537C425.65 351.692 424.261 353.649 422.561 355.317C420.699 357.195 418.645 358.873 416.435 360.326Z" fill="#DEC7A6"/>
<path d="M280.764 231.022C229.321 196.762 202.099 185.536 192.696 182.273C188.956 195.367 186.708 212.42 195.666 222.496C211.691 240.516 244.424 248.013 278.15 276.26C311.876 304.508 336.883 329.429 336.883 329.429C336.883 329.429 350.388 344.339 376.846 319.594C373.673 316.056 366.804 308.627 356.392 298.475C347.426 291.619 339.089 283.595 330.681 276.269C325.382 271.648 320.131 266.963 314.791 262.397C310.402 258.648 305.094 255.692 300.964 251.743C300.73 251.52 301.023 251.215 301.277 251.283C302.091 251.485 302.889 251.75 303.662 252.077C303.001 251.546 302.348 251.02 301.678 250.489C302.006 250.73 302.823 251.333 304.036 252.24C308.741 254.783 313.072 257.965 316.906 261.694C318.14 262.741 319.374 263.797 320.61 264.871C341.58 280.716 361.588 297.795 380.526 316.02C381.91 317.438 383.209 318.83 384.448 320.163L358.479 347.908C357.398 349.063 356.096 349.99 354.651 350.634C353.205 351.278 351.646 351.627 350.064 351.659C348.482 351.691 346.909 351.407 345.439 350.822C343.969 350.237 342.63 349.364 341.502 348.253C317.391 324.298 291.595 302.102 264.31 281.835C236.776 262.672 207.62 245.953 177.173 231.868C175.694 231.174 174.374 230.182 173.296 228.953C172.218 227.724 171.407 226.286 170.912 224.728C170.417 223.17 170.25 221.527 170.42 219.902C170.591 218.276 171.096 216.704 171.904 215.283L190.501 182.512L190.371 182.59L179.554 198.313C175.783 203.759 170.286 207.774 163.951 209.711C157.616 211.647 150.814 211.391 144.642 208.985C125.735 199.832 99.9966 186.181 84.7461 173.149C58.0384 150.319 31.7152 138.283 12.5257 140.124C12.0019 140.17 11.4845 140.227 10.9723 140.3C10.5174 140.362 10.1036 140.596 9.81676 140.954L9.73619 141.057C9.59449 141.261 9.49556 141.491 9.4452 141.734C9.39484 141.977 9.39419 142.227 9.44325 142.47L10.8449 149.285C10.8953 149.546 11.0039 149.793 11.1628 150.006C11.3217 150.22 11.5266 150.395 11.7624 150.518C12.0027 150.645 12.2683 150.718 12.54 150.731C12.8116 150.744 13.0826 150.696 13.3338 150.592C20.1777 147.765 37.3778 142.739 49.262 157.078C54.8117 163.728 59.4963 171.056 63.2035 178.884C64.3859 182.491 66.6749 185.634 69.7456 187.865C73.1362 188.983 76.6516 189.679 80.2122 189.938C93.3409 191.707 113.18 194.378 128.225 208.268C137.971 217.308 146.686 227.397 154.213 238.353C155.893 241.068 157.9 243.568 160.189 245.795C162.826 246.958 165.534 247.952 168.297 248.772C186.973 255.051 236.585 271.74 281.332 310.48C299.51 325.877 316.749 342.348 332.956 359.807C339.541 366.895 341.196 368.549 343.539 368.231C344.29 368.121 349.263 366.075 373.196 336.159L373.955 335.208L376.344 332.203C376.622 331.848 376.899 331.493 377.175 331.134L378.695 329.201C379.038 328.767 379.333 328.392 379.624 328.009L380.822 326.472L383.743 322.687C383.998 322.351 384.248 322.023 384.493 321.712L384.793 321.319L385.661 320.189L385.756 320.062C385.887 319.88 386.03 319.7 386.148 319.545L386.423 319.186L386.563 319.003C386.825 318.655 386.992 318.246 387.048 317.815C387.105 317.384 387.05 316.945 386.888 316.542C386.762 316.228 386.572 315.943 386.329 315.707C353.69 284.441 318.365 256.104 280.764 231.022ZM350.623 318.37C349.998 317.928 349.412 317.434 348.873 316.892C348.59 316.57 349.002 316.193 349.334 316.376C349.952 316.771 350.535 317.217 351.077 317.711C351.48 318.044 351.035 318.701 350.623 318.37ZM356.969 318.921C356.062 318.253 355.213 317.509 354.433 316.697C353.539 316.017 352.78 315.177 352.196 314.218C352.154 314.142 352.138 314.055 352.148 313.969C352.158 313.882 352.194 313.801 352.252 313.737C352.31 313.672 352.387 313.627 352.471 313.607C352.556 313.588 352.644 313.595 352.725 313.627C353.737 314.091 354.625 314.788 355.317 315.66C356.184 316.473 356.935 317.4 357.55 318.417C357.576 318.494 357.578 318.578 357.557 318.657C357.536 318.736 357.492 318.807 357.431 318.862C357.37 318.917 357.294 318.952 357.213 318.965C357.133 318.977 357.05 318.966 356.975 318.932L356.969 318.921ZM363.656 318.635C360.283 315.346 356.58 312.34 352.989 309.292C349.912 307.064 347.016 304.597 344.328 301.912C343.973 301.497 344.415 300.697 344.968 300.969C352.426 304.654 358.628 312.201 364.002 318.337C364.043 318.382 364.065 318.442 364.062 318.503C364.059 318.564 364.032 318.621 363.987 318.662C363.942 318.703 363.882 318.724 363.821 318.721C363.76 318.718 363.703 318.691 363.662 318.646L363.656 318.635ZM342.585 290.779C347.706 294.65 352.573 298.848 357.155 303.346C362.236 307.922 366.945 312.895 371.238 318.218C371.417 318.449 371.135 318.806 370.882 318.615C365.88 314.615 361.1 310.346 356.562 305.827C351.64 301.146 346.536 296.524 342.014 291.478C341.932 291.399 341.883 291.292 341.877 291.178C341.871 291.064 341.908 290.952 341.981 290.865C342.055 290.777 342.159 290.721 342.272 290.707C342.385 290.693 342.499 290.722 342.591 290.789L342.585 290.779ZM331.524 281.215C333.045 282.076 334.41 283.187 335.56 284.502C337.065 285.601 338.311 287.016 339.213 288.646C339.227 288.678 339.232 288.713 339.226 288.748C339.221 288.782 339.206 288.815 339.182 288.841C339.159 288.867 339.129 288.886 339.095 288.895C339.061 288.904 339.026 288.903 338.993 288.893C337.277 288.172 335.74 287.084 334.49 285.705C333.059 284.699 331.809 283.457 330.792 282.032C330.745 281.926 330.729 281.809 330.747 281.694C330.765 281.58 330.816 281.473 330.893 281.386C330.97 281.299 331.07 281.237 331.182 281.206C331.293 281.175 331.412 281.177 331.522 281.212L331.524 281.215ZM339.121 297.137C339.078 297.038 339.067 296.928 339.091 296.822C339.114 296.717 339.171 296.622 339.253 296.551C339.334 296.48 339.436 296.437 339.544 296.429C339.652 296.42 339.759 296.446 339.851 296.503C340.382 296.868 340.863 297.301 341.28 297.792C341.716 298.208 342.07 298.702 342.323 299.249C342.329 299.263 342.332 299.279 342.33 299.294C342.328 299.31 342.323 299.325 342.314 299.338C342.305 299.35 342.293 299.361 342.279 299.367C342.265 299.374 342.249 299.378 342.233 299.377C341.603 299.308 341.007 299.055 340.519 298.65C339.944 298.256 339.466 297.738 339.119 297.133L339.121 297.137ZM342.639 305.351C344.181 306.029 345.576 307.003 346.745 308.216C348 309.325 349.183 310.513 350.285 311.774C350.326 311.819 350.349 311.878 350.35 311.94C350.35 312.001 350.328 312.061 350.287 312.107C350.247 312.153 350.19 312.182 350.129 312.189C350.068 312.196 350.007 312.18 349.957 312.144C348.59 311.105 347.189 310.124 345.827 309.077C344.468 308.245 343.233 307.226 342.157 306.051C342.1 305.976 342.069 305.885 342.068 305.791C342.067 305.697 342.096 305.605 342.151 305.528C342.206 305.452 342.283 305.395 342.373 305.366C342.462 305.336 342.558 305.336 342.648 305.365L342.639 305.351ZM19.1945 142.652C17.7466 142.749 16.2918 142.737 14.8482 142.866C13.675 143.185 12.4497 143.266 11.2448 143.105C11.1608 143.072 11.0869 143.018 11.0297 142.948C10.9724 142.878 10.9338 142.795 10.9176 142.706C10.9013 142.617 10.908 142.526 10.937 142.441C10.9659 142.355 11.0162 142.278 11.083 142.218C12.2009 141.57 13.5028 141.313 14.783 141.488C16.2955 141.428 17.8061 141.644 19.2411 142.126C19.4922 142.216 19.4894 142.651 19.2033 142.666L19.1945 142.652ZM14.2071 147.385C13.9107 147.605 13.5581 147.736 13.1901 147.764C12.8363 147.847 12.4675 147.844 12.1153 147.754C12.0275 147.721 11.9498 147.666 11.8894 147.595C11.829 147.523 11.788 147.438 11.7705 147.346C11.7531 147.254 11.7597 147.159 11.7897 147.07C11.8197 146.981 11.8721 146.902 11.9418 146.839C12.2373 146.627 12.5798 146.489 12.94 146.438C13.294 146.332 13.6702 146.326 14.0274 146.421C14.1235 146.453 14.2094 146.51 14.276 146.587C14.3427 146.663 14.3878 146.756 14.4069 146.855C14.4261 146.955 14.4185 147.058 14.3849 147.153C14.3513 147.249 14.293 147.334 14.2158 147.4L14.2071 147.385ZM16.7074 144.712C15.9166 145.048 15.0753 145.25 14.2181 145.311C13.3776 145.503 12.525 145.639 11.6662 145.716C11.5623 145.705 11.464 145.663 11.3828 145.598C11.3016 145.532 11.241 145.444 11.2085 145.345C11.176 145.245 11.1728 145.139 11.1993 145.038C11.2258 144.936 11.2811 144.845 11.3582 144.774C12.115 144.229 12.988 143.867 13.9086 143.716C14.8293 143.565 15.7722 143.63 16.6634 143.906C16.7453 143.933 16.8175 143.984 16.8711 144.052C16.9246 144.12 16.9571 144.202 16.9646 144.288C16.9721 144.374 16.9543 144.46 16.9134 144.536C16.8724 144.612 16.8101 144.674 16.7342 144.715L16.7074 144.712ZM20.1099 142.537C20.077 142.496 20.0551 142.448 20.0462 142.397C20.0373 142.346 20.0416 142.293 20.0589 142.244C20.0763 142.195 20.1059 142.151 20.145 142.117C20.1841 142.083 20.2314 142.059 20.2823 142.048C20.7778 141.956 21.2781 142.229 21.7731 142.225C21.8297 142.23 21.8833 142.253 21.9256 142.291C21.9679 142.329 21.9966 142.38 22.0075 142.436C22.0184 142.492 22.0109 142.549 21.9859 142.6C21.961 142.651 21.92 142.693 21.8694 142.719C21.5781 142.855 21.2591 142.921 20.9377 142.913C20.7828 142.918 20.6288 142.888 20.4869 142.825C20.3451 142.763 20.2192 142.669 20.1186 142.551L20.1099 142.537ZM23.1599 143.111C22.9353 142.926 22.8841 142.499 23.2068 142.373C24.2151 142.17 25.2596 142.241 26.2312 142.578C27.2214 142.689 28.1674 143.049 28.9809 143.624C28.9983 143.653 29.0135 143.679 28.9659 143.698C27.9776 143.983 26.9343 144.022 25.9274 143.811C25.0388 143.693 23.8957 143.724 23.1616 143.129L23.1599 143.111ZM75.9896 186.513C65.4473 187.499 67.7383 176.236 57.175 163.797C54.1525 160.156 50.9127 156.701 47.4736 153.451C42.3035 149.548 36.4915 146.578 30.2996 144.674C29.9611 144.578 30.0983 144.072 30.4424 144.095C35.5976 144.555 40.5253 146.431 44.6811 149.516C52.1243 153.359 58.581 158.867 63.5501 165.611C76.1709 182.602 78.1953 177.887 90.2832 183.53C105.785 190.763 108.439 193.728 108.439 193.728C108.439 193.728 86.5283 185.529 75.9823 186.517L75.9896 186.513ZM129.706 204.975C134.77 207.552 143.333 211.844 150.178 214.965C153.122 216.354 156.369 216.98 159.619 216.784C162.869 216.587 166.017 215.576 168.773 213.842C167.302 215.768 166.334 218.031 165.958 220.425C165.582 222.819 165.809 225.27 166.618 227.554C166.861 228.087 167.166 228.591 167.525 229.054C159.567 228.482 152.076 225.08 146.408 219.464C142.351 215.929 138.475 212.191 134.407 208.663C132.893 207.347 131.305 206.146 129.706 204.975ZM141.48 217.283C141.269 217.223 141.061 217.151 140.858 217.068C140.641 216.951 140.433 216.818 140.234 216.672C139.794 216.36 139.396 215.994 139.048 215.582C138.977 215.498 138.939 215.391 138.94 215.28C138.942 215.17 138.983 215.064 139.056 214.981C139.129 214.899 139.23 214.845 139.339 214.831C139.448 214.816 139.559 214.842 139.651 214.902C140.108 215.158 140.532 215.469 140.911 215.829C141.11 216.001 141.292 216.191 141.456 216.397C141.586 216.554 141.623 216.738 141.757 216.894C141.89 217.05 141.723 217.392 141.48 217.283ZM143.126 219.42C143.102 219.366 143.094 219.307 143.104 219.249C143.113 219.191 143.139 219.137 143.178 219.093C143.217 219.049 143.268 219.018 143.325 219.003C143.382 218.988 143.442 218.99 143.498 219.008C145.107 219.654 146.529 220.691 147.637 222.026C149.057 222.925 150.198 224.203 150.931 225.717C150.937 225.747 150.935 225.777 150.926 225.807C150.918 225.836 150.903 225.863 150.883 225.886C150.862 225.909 150.837 225.926 150.809 225.938C150.781 225.95 150.75 225.955 150.72 225.953C149.125 225.759 147.824 224.153 146.639 223.146C145.18 222.212 143.978 220.928 143.141 219.411L143.126 219.42ZM161.763 244.75C161.141 244.869 160.364 244.472 159.778 244.285C159.192 244.098 159.522 243.169 160.101 243.386C160.773 243.525 161.402 243.819 161.94 244.244C161.975 244.285 161.998 244.335 162.008 244.388C162.017 244.441 162.013 244.496 161.995 244.547C161.977 244.598 161.947 244.643 161.906 244.679C161.865 244.714 161.816 244.739 161.763 244.75ZM162.923 242.531C162.237 242.716 161.507 242.649 160.865 242.343C160.174 242.056 159.528 241.673 158.945 241.204C158.603 240.948 158.875 240.33 159.29 240.503C159.901 240.757 160.534 240.956 161.181 241.098C161.759 241.241 162.526 241.304 162.993 241.652C163.067 241.702 163.127 241.771 163.166 241.852C163.206 241.933 163.223 242.023 163.215 242.112C163.208 242.202 163.178 242.288 163.126 242.361C163.075 242.435 163.005 242.494 162.923 242.531ZM164.905 240.196C163.791 240.529 162.229 239.844 161.202 239.406C160.083 238.884 159.07 238.162 158.21 237.276C158.186 237.251 158.172 237.22 158.169 237.186C158.166 237.153 158.174 237.119 158.193 237.091C158.212 237.063 158.24 237.042 158.272 237.032C158.304 237.022 158.339 237.024 158.37 237.036C159.489 237.502 160.682 237.854 161.832 238.233C162.884 238.581 164.208 238.613 165.11 239.24C165.191 239.302 165.254 239.386 165.29 239.482C165.326 239.579 165.333 239.683 165.312 239.783C165.29 239.884 165.24 239.976 165.168 240.049C165.096 240.122 165.005 240.173 164.905 240.196ZM172.962 238.57C169.395 237.524 165.768 236.692 162.101 236.08C159.368 235.651 156.817 234.439 154.758 232.592C154.118 231.949 155.076 230.952 155.785 231.439C161.043 235.046 168.043 234.611 173.051 238.374C173.071 238.391 173.084 238.414 173.09 238.44C173.095 238.466 173.091 238.493 173.079 238.517C173.068 238.54 173.048 238.559 173.024 238.57C173.001 238.582 172.974 238.585 172.948 238.579L172.962 238.57ZM205.267 249.96C195.808 246.376 187.093 240.945 177.645 237.217C172.818 235.309 167.901 233.529 162.954 231.96C159.753 230.941 155.052 230.464 152.966 227.559C152.919 227.5 152.891 227.427 152.888 227.352C152.885 227.276 152.907 227.201 152.949 227.138C152.992 227.076 153.053 227.028 153.125 227.003C153.196 226.978 153.274 226.977 153.347 226.999C155.528 227.65 157.516 228.822 159.73 229.487C161.836 230.12 163.955 230.7 166.062 231.318C170.827 232.757 175.515 234.437 180.11 236.351C189.167 239.502 197.685 244.027 205.366 249.766C205.456 249.841 205.393 250.006 205.267 249.96ZM323.452 337.888C317.796 332.392 312.05 326.987 306.215 321.674C299.906 315.935 293.489 310.314 286.964 304.81C281.286 300.02 275.34 295.43 270.139 290.11C270.024 289.992 270.194 289.825 270.325 289.904C272.288 291.09 274.213 292.359 276.108 293.686L275.984 293.579L276.258 293.787C283.934 299.364 291.244 305.428 298.142 311.944C315.961 327.369 335.916 345.643 341.236 350.891C349.09 358.646 352.447 356.355 352.447 356.355C349.722 359.092 346.795 361.622 343.692 363.923C340.589 356.97 336.22 350.654 330.808 345.298C328.354 342.818 325.931 340.294 323.452 337.888ZM278.807 264.331C278.807 264.331 278.8 264.369 278.778 264.348C275.124 262.052 271.617 259.582 268.033 257.164C264.588 255.325 261.41 253.023 258.589 250.322C258.541 250.263 258.514 250.191 258.511 250.115C258.508 250.039 258.529 249.964 258.572 249.902C258.614 249.839 258.676 249.792 258.748 249.767C258.819 249.741 258.897 249.74 258.969 249.762C262.771 251.408 266.266 253.685 269.309 256.497C272.619 258.928 275.79 261.544 278.807 264.331ZM211.569 203.905C211.89 204.272 212.275 204.578 212.706 204.808C213.229 205.087 212.752 205.765 212.273 205.656C211.669 205.513 211.113 205.214 210.66 204.789C210.402 204.6 210.189 204.355 210.039 204.072C209.89 203.789 209.806 203.475 209.796 203.155C209.806 203.056 209.841 202.962 209.898 202.881C209.955 202.8 210.032 202.735 210.122 202.692C210.211 202.649 210.31 202.63 210.409 202.637C210.508 202.644 210.603 202.676 210.686 202.73C211.027 203.084 211.324 203.478 211.569 203.905ZM217.44 212.395C217.468 212.416 217.488 212.446 217.496 212.48C217.504 212.514 217.499 212.55 217.483 212.582C217.467 212.613 217.44 212.637 217.408 212.65C217.375 212.663 217.339 212.664 217.306 212.653C215.465 211.969 213.707 211.082 212.063 210.008C210.395 209.222 208.911 208.094 207.707 206.697C207.457 206.283 207.956 205.862 208.344 205.983C209.953 206.768 211.438 207.784 212.753 209C214.336 210.111 215.955 211.161 217.447 212.391L217.44 212.395ZM230.485 226.707C230.502 226.736 230.492 226.792 230.451 226.772C227.431 225.319 224.488 223.713 221.632 221.96C218.537 220.567 215.78 218.521 213.55 215.963C213.457 215.808 213.523 215.527 213.753 215.565C216.682 216.42 219.387 217.91 221.675 219.93C224.727 222.036 227.67 224.297 230.492 226.703L230.485 226.707ZM218.053 222.996C221.493 225.2 224.923 227.411 228.324 229.673C235.554 234.481 242.572 239.589 249.772 244.421C249.807 244.46 249.829 244.511 249.833 244.564C249.837 244.617 249.823 244.67 249.793 244.715C249.763 244.759 249.72 244.792 249.669 244.809C249.619 244.826 249.564 244.826 249.513 244.808C242.283 240.464 234.883 236.418 227.655 232.028C223.94 229.777 220.256 227.479 216.582 225.165C213.271 223.599 210.278 221.433 207.756 218.776C207.448 218.347 207.684 217.525 208.329 217.647C211.88 218.802 215.181 220.615 218.06 222.991L218.053 222.996ZM240.11 232.382C237.787 231.383 235.636 230.025 233.737 228.356C233.696 228.305 233.671 228.244 233.664 228.179C233.657 228.114 233.67 228.049 233.699 227.991C233.729 227.933 233.774 227.885 233.83 227.853C233.887 227.82 233.951 227.805 234.016 227.808C236.397 228.37 238.629 229.437 240.561 230.937C243.091 232.515 245.137 234.572 247.555 236.282C247.559 236.285 247.562 236.289 247.565 236.293C247.567 236.297 247.569 236.302 247.57 236.307C247.571 236.312 247.57 236.317 247.569 236.322C247.568 236.327 247.566 236.332 247.563 236.336C247.56 236.34 247.556 236.343 247.552 236.346C247.547 236.349 247.542 236.35 247.537 236.351C247.532 236.352 247.527 236.352 247.522 236.35C247.517 236.349 247.513 236.347 247.509 236.344C245.242 234.794 242.533 233.734 240.11 232.382ZM252.667 247.043C252.65 246.948 252.664 246.849 252.708 246.763C252.751 246.676 252.821 246.606 252.908 246.562C253.804 246.203 254.411 246.703 255.139 247.183C255.894 247.574 256.471 248.237 256.754 249.038C256.759 249.072 256.751 249.105 256.732 249.133C256.713 249.161 256.685 249.18 256.652 249.188C255.823 249.319 254.975 249.127 254.284 248.651C253.562 248.255 252.782 247.958 252.678 247.036L252.667 247.043ZM198.974 203.409C200.987 205.371 203.152 207.171 205.448 208.792C207.727 210.205 209.817 211.901 211.667 213.842C211.763 213.926 211.824 214.042 211.84 214.168C211.855 214.294 211.824 214.422 211.752 214.526C211.679 214.631 211.571 214.705 211.447 214.735C211.324 214.765 211.193 214.748 211.081 214.688C208.703 213.681 206.529 212.246 204.667 210.456C203.448 209.042 202.089 207.755 200.611 206.615C199.727 205.919 198.927 205.121 198.229 204.238C198.148 204.132 198.107 204.001 198.113 203.867C198.118 203.734 198.17 203.606 198.26 203.507C198.35 203.408 198.471 203.343 198.603 203.324C198.736 203.305 198.87 203.333 198.984 203.403L198.974 203.409ZM198.267 209.026C199.596 209.001 200.618 210.397 201.505 211.245C202.726 212.396 203.827 213.67 204.787 215.046C204.836 215.108 204.86 215.185 204.858 215.264C204.855 215.342 204.826 215.417 204.774 215.476C204.722 215.535 204.651 215.574 204.573 215.586C204.496 215.598 204.416 215.583 204.349 215.543C202.89 214.72 201.518 213.751 200.256 212.65C199.324 211.849 197.822 210.97 197.714 209.642C197.699 209.562 197.702 209.479 197.724 209.401C197.747 209.323 197.787 209.251 197.841 209.19C197.896 209.13 197.964 209.083 198.04 209.054C198.115 209.024 198.197 209.012 198.278 209.02L198.267 209.026ZM194.782 205.81C194.751 205.744 194.743 205.67 194.759 205.6C194.774 205.529 194.812 205.465 194.867 205.417C194.922 205.37 194.991 205.342 195.064 205.338C195.136 205.334 195.208 205.353 195.268 205.393C196.197 206.057 196.913 206.975 197.33 208.037C197.349 208.081 197.354 208.13 197.343 208.176C197.333 208.223 197.308 208.265 197.271 208.297C197.235 208.328 197.19 208.347 197.142 208.35C197.094 208.354 197.046 208.342 197.006 208.316C196.04 207.712 195.27 206.839 194.793 205.804L194.782 205.81ZM281.557 271.748C264.445 261.362 247.783 250.311 230.219 240.636C216.767 233.233 198.88 225.565 192.734 210.397C192.694 210.312 192.686 210.216 192.712 210.127C192.737 210.037 192.794 209.959 192.871 209.908C192.949 209.857 193.043 209.835 193.136 209.847C193.228 209.86 193.313 209.905 193.375 209.975C199.086 216.254 205.516 221.838 212.533 226.613C219.393 231.167 226.64 235.163 233.733 239.329C250.524 248.824 266.578 259.567 281.758 271.469C281.794 271.494 281.819 271.533 281.827 271.576C281.834 271.62 281.824 271.664 281.799 271.7C281.774 271.737 281.736 271.761 281.692 271.769C281.649 271.777 281.604 271.767 281.568 271.742L281.557 271.748ZM295.371 284.237C291.916 281.19 288.303 278.328 284.545 275.664C284.375 275.548 284.258 275.369 284.22 275.167C284.182 274.965 284.225 274.756 284.341 274.586C284.457 274.416 284.636 274.299 284.838 274.26C285.04 274.222 285.25 274.266 285.42 274.382C289.399 276.921 292.907 280.132 295.786 283.872C295.82 283.927 295.833 283.992 295.824 284.056C295.814 284.12 295.783 284.178 295.734 284.221C295.686 284.264 295.624 284.288 295.559 284.29C295.495 284.292 295.432 284.27 295.382 284.23L295.371 284.237ZM269.942 229.956C269.043 229.786 268.166 229.517 267.325 229.155C266.472 228.816 265.738 228.232 265.217 227.475C265.152 227.342 265.123 227.193 265.134 227.045C265.145 226.897 265.195 226.754 265.279 226.632C265.363 226.509 265.478 226.411 265.612 226.347C265.746 226.283 265.895 226.255 266.043 226.267C266.905 226.537 267.687 227.02 268.314 227.671C268.978 228.255 269.567 228.928 270.192 229.554C270.403 229.757 270.155 230 269.949 229.952L269.942 229.956ZM274.292 232.069C273.847 231.88 273.441 231.609 273.095 231.271C273.049 231.214 273.022 231.143 273.018 231.07C273.015 230.996 273.036 230.924 273.077 230.863C273.118 230.802 273.178 230.756 273.247 230.732C273.317 230.708 273.392 230.707 273.462 230.729C273.906 230.925 274.309 231.203 274.651 231.546C274.897 231.757 274.587 232.206 274.293 232.054L274.292 232.069ZM284.381 238.689C282.814 238.002 281.322 237.155 279.931 236.159C278.698 235.383 276.806 234.705 276.154 233.332C276.122 233.265 276.108 233.191 276.114 233.117C276.12 233.043 276.145 232.972 276.188 232.912C276.23 232.851 276.287 232.802 276.354 232.77C276.421 232.739 276.495 232.725 276.569 232.731C278.086 232.798 279.444 234.287 280.638 235.121C282.092 236.018 283.449 237.064 284.687 238.243C284.722 238.29 284.742 238.347 284.743 238.405C284.744 238.464 284.728 238.522 284.695 238.57C284.662 238.619 284.615 238.656 284.56 238.676C284.505 238.697 284.445 238.7 284.388 238.685L284.381 238.689ZM298.828 248.829C298.904 248.923 298.945 249.041 298.942 249.162C298.94 249.283 298.894 249.399 298.814 249.489C298.734 249.58 298.624 249.639 298.504 249.656C298.385 249.673 298.263 249.647 298.16 249.582C295.7 248.061 293.493 246.097 291.155 244.388C288.955 242.92 286.947 241.185 285.176 239.223C285.16 239.202 285.152 239.177 285.151 239.152C285.15 239.126 285.157 239.101 285.172 239.08C285.186 239.058 285.207 239.042 285.231 239.033C285.255 239.025 285.281 239.024 285.306 239.031C287.924 240.018 290.345 241.461 292.458 243.295C294.745 244.944 296.879 246.795 298.835 248.825L298.828 248.829Z" fill="white"/>
<path d="M388.615 313.331C355.821 281.942 320.333 253.495 282.561 228.316C230.628 193.727 203.074 182.425 193.624 179.166C193.335 179.067 193.038 178.993 192.737 178.944C192.346 178.873 191.948 178.846 191.551 178.864C190.283 178.909 189.066 179.377 188.095 180.194L187.925 180.336L176.844 196.421C176.304 197.204 175.719 197.955 175.093 198.671L175.002 198.781C171.779 203.178 167.118 206.307 161.828 207.625C156.538 208.943 150.954 208.366 146.045 205.994C127.315 196.922 101.836 183.425 86.8473 170.613C59.4757 147.215 32.2662 134.902 12.204 136.823C11.6354 136.876 11.0711 136.936 10.512 137.013C9.80742 137.105 9.13059 137.346 8.527 137.721C8.1228 137.971 7.75593 138.278 7.43729 138.631L7.39415 138.657L7.18178 138.933C6.73924 139.508 6.42374 140.17 6.25616 140.876C6.08859 141.581 6.0727 142.315 6.20963 143.027C5.90118 143.899 5.8363 144.839 6.02159 145.745L7.42736 152.518C7.57217 153.253 7.87828 153.946 8.32368 154.548C8.76909 155.15 9.34265 155.646 10.0029 155.999C10.6631 156.352 11.3937 156.554 12.1416 156.591C12.8895 156.628 13.6361 156.498 14.3277 156.211C21.9129 153.102 36.1061 149.668 46.1553 161.827C51.5061 168.262 56.0264 175.345 59.6094 182.908C61.0524 187.127 63.8215 190.764 67.5032 193.278C71.1803 194.632 75.0316 195.454 78.9409 195.72C91.5325 197.463 110.553 200.092 124.725 213.246C134.233 222.113 142.74 231.997 150.092 242.72C151.948 245.735 154.212 248.48 156.819 250.875C159.661 252.296 162.633 253.439 165.694 254.29C185.754 261.121 232.719 277.115 276.625 315.311C294.571 330.591 311.591 346.926 327.594 364.23C334.498 371.692 336.825 374.205 340.917 373.642C341.676 373.549 342.403 373.278 343.039 372.852C343.949 372.278 344.813 371.634 345.622 370.926C345.781 370.83 345.95 370.727 346.148 370.607C349.304 368.7 356.618 362.097 375.775 338.161L376.552 337.198L378.939 334.199C379.238 333.822 379.528 333.454 379.804 333.095C380.307 332.446 380.807 331.814 381.308 331.201L381.356 331.143C381.67 330.741 381.973 330.356 382.259 329.981L383.454 328.447L386.389 324.643L387.137 323.698L387.45 323.288L388.323 322.149L388.438 321.996C388.548 321.846 388.654 321.703 388.805 321.513C388.89 321.393 388.981 321.274 389.081 321.154L389.235 320.953C389.834 320.153 390.216 319.213 390.345 318.222C390.475 317.231 390.346 316.224 389.972 315.298C389.667 314.552 389.204 313.881 388.615 313.331ZM386.906 316.506C387.068 316.91 387.123 317.348 387.067 317.779C387.01 318.21 386.843 318.62 386.582 318.967L386.441 319.15L386.166 319.509C386.037 319.671 385.905 319.844 385.774 320.027L385.679 320.153L384.811 321.284L384.511 321.676C384.266 321.987 384.016 322.315 383.762 322.651L380.84 326.437L379.642 327.974C379.351 328.356 379.056 328.731 378.713 329.165L377.193 331.099C376.917 331.457 376.64 331.812 376.362 332.167L373.973 335.172L373.214 336.124C349.281 366.04 344.309 368.086 343.557 368.195C341.2 368.522 339.559 366.86 332.974 359.771C316.767 342.313 299.528 325.841 281.35 310.445C236.603 271.704 186.991 255.015 168.315 248.736C165.552 247.917 162.844 246.922 160.207 245.759C157.918 243.532 155.911 241.033 154.231 238.317C146.704 227.362 137.989 217.272 128.243 208.233C113.205 194.338 93.3662 191.667 80.2304 189.903C76.6697 189.643 73.1543 188.947 69.7637 187.83C66.693 185.598 64.404 182.456 63.2217 178.849C59.5144 171.02 54.8298 163.693 49.2801 157.042C37.3959 142.703 20.1958 147.729 13.3519 150.557C13.1007 150.661 12.8297 150.708 12.5581 150.695C12.2864 150.682 12.0208 150.61 11.7805 150.482C11.5447 150.359 11.34 150.184 11.1811 149.971C11.0223 149.757 10.9135 149.511 10.863 149.25L9.46136 142.435C9.41229 142.192 9.41295 141.941 9.46331 141.698C9.51368 141.455 9.6126 141.225 9.7543 141.022L9.83509 140.919C10.1219 140.56 10.5357 140.326 10.9907 140.264C11.5028 140.191 12.02 140.135 12.5438 140.089C31.7333 138.248 58.0566 150.284 84.7642 173.113C100.026 186.139 125.753 199.796 144.66 208.949C150.832 211.356 157.634 211.611 163.969 209.675C170.304 207.739 175.801 203.723 179.572 198.278L190.389 182.555L190.519 182.476L171.922 215.248C171.114 216.668 170.609 218.241 170.439 219.866C170.268 221.492 170.435 223.135 170.93 224.692C171.425 226.25 172.237 227.688 173.314 228.917C174.392 230.146 175.712 231.139 177.192 231.833C207.638 245.917 236.794 262.636 264.328 281.8C291.613 302.066 317.41 324.263 341.521 348.218C342.648 349.328 343.987 350.201 345.457 350.786C346.927 351.371 348.5 351.656 350.082 351.624C351.664 351.591 353.223 351.243 354.669 350.599C356.114 349.954 357.416 349.027 358.497 347.872L384.467 320.128C383.244 318.789 381.928 317.403 380.544 315.985C361.606 297.76 341.598 280.68 320.628 264.836C319.403 263.779 318.169 262.723 316.925 261.658C313.09 257.929 308.759 254.748 304.054 252.204C302.841 251.298 302.024 250.694 301.696 250.454C302.366 250.984 303.019 251.51 303.68 252.041C302.907 251.715 302.11 251.449 301.295 251.248C301.048 251.19 300.748 251.485 300.982 251.708C305.109 255.659 310.421 258.622 314.809 262.361C320.153 266.925 325.4 271.613 330.699 276.233C339.107 283.559 347.444 291.583 356.41 298.439C366.817 308.584 373.687 316.013 376.864 319.558C350.406 344.304 336.901 329.393 336.901 329.393C336.901 329.393 311.873 304.47 278.168 276.225C244.463 247.979 211.709 240.481 195.684 222.46C186.726 212.384 188.974 195.332 192.714 182.238C202.124 185.496 229.347 196.722 280.783 230.986C318.388 256.056 353.718 284.382 386.365 315.636C386.605 315.884 386.79 316.181 386.906 316.506Z" fill="#DEC7A6"/>
<path d="M167.511 229.063C167.151 228.6 166.847 228.096 166.604 227.563C165.794 225.278 165.568 222.828 165.944 220.434C166.32 218.04 167.287 215.777 168.759 213.851C166.003 215.585 162.855 216.596 159.605 216.792C156.355 216.989 153.108 216.363 150.164 214.973C143.319 211.853 134.749 207.55 129.692 204.984C131.291 206.154 132.864 207.365 134.386 208.676C138.454 212.204 142.329 215.943 146.387 219.478C152.057 225.093 159.551 228.493 167.511 229.063Z" fill="#DEC7A6"/>
<path d="M343.692 363.923C346.795 361.622 349.721 359.092 352.447 356.356C352.447 356.356 349.09 358.646 341.236 350.892C335.912 345.636 315.956 327.362 298.142 311.945C291.244 305.429 283.934 299.364 276.258 293.788L275.984 293.579L276.108 293.686C274.217 292.367 272.279 291.076 270.325 289.904C270.194 289.826 270.024 289.993 270.139 290.11C275.329 295.437 281.286 300.02 286.964 304.811C293.482 310.315 299.899 315.936 306.215 321.674C312.05 326.984 317.796 332.388 323.452 337.888C325.931 340.295 328.347 342.808 330.813 345.306C336.222 350.66 340.59 356.973 343.692 363.923Z" fill="#DEC7A6"/>
<path d="M63.5292 165.608C58.5602 158.865 52.1032 153.357 44.66 149.514C40.5043 146.429 35.5765 144.553 30.4213 144.093C30.0982 144.072 29.9612 144.578 30.2788 144.671C36.4718 146.575 42.2849 149.544 47.4563 153.447C50.8954 156.697 54.1351 160.152 57.1577 163.793C67.7232 176.235 65.43 187.495 75.9723 186.509C86.5146 185.522 108.407 193.732 108.407 193.732C108.407 193.732 105.747 190.756 90.2516 183.534C78.1565 177.895 76.1435 182.589 63.5292 165.608Z" fill="#DEC7A6"/>
<path d="M166.061 231.317C163.954 230.7 161.835 230.119 159.73 229.487C157.515 228.821 155.536 227.664 153.346 226.999C153.273 226.976 153.196 226.978 153.124 227.003C153.052 227.028 152.991 227.075 152.948 227.138C152.906 227.201 152.884 227.276 152.887 227.351C152.89 227.427 152.918 227.5 152.965 227.559C155.051 230.464 159.754 230.944 162.953 231.96C167.9 233.529 172.817 235.309 177.644 237.216C187.092 240.944 195.807 246.376 205.266 249.959C205.392 250.006 205.457 249.844 205.366 249.766C197.684 244.026 189.166 239.502 180.109 236.351C175.514 234.437 170.826 232.757 166.061 231.317Z" fill="#DEC7A6"/>
<path d="M150.719 225.952C150.75 225.954 150.781 225.949 150.809 225.938C150.837 225.926 150.862 225.908 150.882 225.886C150.903 225.863 150.918 225.836 150.926 225.806C150.935 225.777 150.936 225.746 150.931 225.716C150.198 224.203 149.057 222.925 147.636 222.025C146.529 220.691 145.107 219.654 143.497 219.008C143.442 218.989 143.382 218.988 143.325 219.003C143.268 219.018 143.217 219.049 143.178 219.093C143.139 219.136 143.113 219.19 143.103 219.248C143.094 219.306 143.102 219.366 143.126 219.419C143.968 220.935 145.176 222.215 146.639 223.145C147.824 224.152 149.111 225.768 150.719 225.952Z" fill="#DEC7A6"/>
<path d="M141.742 216.903C141.638 216.73 141.586 216.554 141.442 216.405C141.278 216.2 141.095 216.01 140.897 215.838C140.517 215.478 140.094 215.167 139.637 214.911C139.545 214.85 139.434 214.825 139.324 214.84C139.215 214.854 139.115 214.908 139.041 214.99C138.968 215.073 138.927 215.179 138.926 215.289C138.924 215.399 138.962 215.507 139.034 215.591C139.381 216.003 139.78 216.369 140.22 216.681C140.418 216.827 140.626 216.96 140.843 217.077C141.046 217.16 141.254 217.232 141.465 217.292C141.723 217.392 141.862 217.077 141.742 216.903Z" fill="#DEC7A6"/>
<path d="M285.313 239.026C285.289 239.019 285.262 239.02 285.238 239.029C285.214 239.038 285.193 239.054 285.179 239.075C285.164 239.097 285.157 239.122 285.158 239.148C285.159 239.173 285.168 239.198 285.183 239.218C286.954 241.181 288.963 242.916 291.162 244.384C293.5 246.092 295.698 248.043 298.168 249.578C298.27 249.643 298.392 249.669 298.511 249.652C298.631 249.635 298.741 249.576 298.821 249.485C298.901 249.395 298.947 249.279 298.949 249.158C298.952 249.037 298.911 248.919 298.835 248.825C296.881 246.794 294.75 244.941 292.466 243.29C290.352 241.457 287.931 240.013 285.313 239.026Z" fill="#DEC7A6"/>
<path d="M284.694 238.238C283.46 237.055 282.107 236.004 280.655 235.101C279.461 234.267 278.1 232.78 276.585 232.711C276.512 232.705 276.438 232.718 276.371 232.75C276.304 232.782 276.247 232.83 276.205 232.891C276.162 232.952 276.137 233.023 276.131 233.097C276.125 233.171 276.139 233.245 276.17 233.311C276.823 234.685 278.715 235.363 279.948 236.139C281.339 237.134 282.83 237.982 284.397 238.669C284.452 238.681 284.509 238.676 284.561 238.655C284.613 238.635 284.658 238.599 284.69 238.553C284.722 238.507 284.739 238.452 284.74 238.396C284.74 238.34 284.724 238.285 284.694 238.238Z" fill="#DEC7A6"/>
<path d="M274.657 231.542C274.315 231.198 273.912 230.921 273.469 230.724C273.399 230.702 273.323 230.703 273.254 230.727C273.184 230.752 273.124 230.798 273.083 230.859C273.042 230.919 273.022 230.992 273.025 231.065C273.028 231.139 273.055 231.209 273.102 231.266C273.448 231.604 273.853 231.875 274.298 232.064C274.586 232.206 274.896 231.757 274.657 231.542Z" fill="#DEC7A6"/>
<path d="M28.9787 143.71C29.0076 143.692 29.0363 143.675 28.9935 143.637C28.18 143.061 27.234 142.701 26.2438 142.591C25.2722 142.253 24.2277 142.182 23.2194 142.385C22.8931 142.514 22.9445 142.94 23.1728 143.123C23.8996 143.722 25.0428 143.691 25.9437 143.821C26.9493 144.032 27.9913 143.994 28.9787 143.71Z" fill="#DEC7A6"/>
<path d="M21.8783 142.733C21.929 142.707 21.97 142.665 21.9949 142.614C22.0198 142.563 22.0274 142.505 22.0165 142.45C22.0056 142.394 21.9769 142.343 21.9346 142.305C21.8923 142.267 21.8387 142.244 21.7821 142.239C21.2907 142.241 20.7867 141.97 20.2913 142.062C20.2404 142.073 20.1931 142.097 20.154 142.131C20.1149 142.165 20.0852 142.209 20.0679 142.258C20.0506 142.307 20.0463 142.36 20.0551 142.411C20.064 142.462 20.086 142.51 20.1188 142.551C20.219 142.672 20.3457 142.769 20.4892 142.835C20.6327 142.9 20.7891 142.931 20.9467 142.927C21.2681 142.935 21.5871 142.869 21.8783 142.733Z" fill="#DEC7A6"/>
<path d="M14.7846 141.491C13.5045 141.316 12.2025 141.573 11.0847 142.221C11.0179 142.282 10.9676 142.359 10.9387 142.444C10.9097 142.53 10.903 142.621 10.9192 142.71C10.9354 142.798 10.9741 142.882 11.0313 142.951C11.0886 143.021 11.1625 143.075 11.2464 143.108C12.4514 143.27 13.6767 143.189 14.8499 142.87C16.2934 142.741 17.7374 142.759 19.1962 142.655C19.4824 142.64 19.4851 142.205 19.245 142.133C17.8095 141.65 16.2981 141.432 14.7846 141.491Z" fill="#DEC7A6"/>
<path d="M11.366 144.795C11.2889 144.866 11.2338 144.957 11.2073 145.058C11.1808 145.159 11.184 145.266 11.2165 145.365C11.249 145.464 11.3094 145.552 11.3905 145.618C11.4717 145.684 11.5703 145.725 11.6742 145.736C12.533 145.659 13.3856 145.524 14.2261 145.331C15.0833 145.271 15.9244 145.069 16.7152 144.732C16.7908 144.693 16.8536 144.633 16.8959 144.559C16.9382 144.485 16.9582 144.4 16.9536 144.315C16.9489 144.23 16.9199 144.148 16.8698 144.079C16.8197 144.01 16.7509 143.957 16.6714 143.927C15.7802 143.651 14.837 143.586 13.9164 143.736C12.9958 143.887 12.1227 144.249 11.366 144.795Z" fill="#DEC7A6"/>
<path d="M12.9492 146.452C12.589 146.503 12.2466 146.641 11.951 146.853C11.8813 146.916 11.8289 146.995 11.7989 147.084C11.7689 147.173 11.7623 147.268 11.7798 147.36C11.7972 147.451 11.8383 147.537 11.8987 147.609C11.9591 147.68 12.0368 147.735 12.1246 147.768C12.4767 147.858 12.8456 147.861 13.1994 147.778C13.5674 147.75 13.92 147.619 14.2164 147.399C14.2902 147.334 14.3458 147.25 14.3778 147.157C14.4098 147.063 14.4171 146.963 14.399 146.866C14.3809 146.769 14.338 146.678 14.2746 146.603C14.2111 146.527 14.1292 146.469 14.0367 146.434C13.6795 146.34 13.3033 146.346 12.9492 146.452Z" fill="#DEC7A6"/>
<path d="M155.816 231.419C155.108 230.932 154.156 231.931 154.79 232.572C156.849 234.419 159.4 235.631 162.133 236.06C165.8 236.672 169.427 237.504 172.994 238.55C173.021 238.558 173.049 238.557 173.075 238.546C173.101 238.536 173.122 238.516 173.135 238.491C173.148 238.467 173.151 238.438 173.145 238.411C173.139 238.384 173.123 238.36 173.1 238.343C168.074 234.591 161.051 235.02 155.816 231.419Z" fill="#DEC7A6"/>
<path d="M161.83 238.229C160.68 237.851 159.487 237.498 158.368 237.032C158.337 237.02 158.302 237.018 158.27 237.029C158.238 237.039 158.21 237.059 158.191 237.087C158.173 237.115 158.164 237.149 158.167 237.183C158.17 237.216 158.185 237.248 158.208 237.272C159.068 238.158 160.081 238.88 161.2 239.403C162.223 239.848 163.79 240.526 164.903 240.193C165.004 240.17 165.096 240.119 165.168 240.045C165.241 239.972 165.291 239.879 165.312 239.778C165.334 239.677 165.326 239.572 165.289 239.475C165.252 239.378 165.189 239.294 165.106 239.233C164.207 238.609 162.876 238.567 161.83 238.229Z" fill="#DEC7A6"/>
<path d="M161.183 241.111C160.536 240.969 159.904 240.77 159.292 240.516C158.871 240.332 158.592 240.939 158.947 241.217C159.53 241.685 160.176 242.069 160.867 242.356C161.509 242.662 162.239 242.728 162.926 242.544C163.003 242.504 163.068 242.445 163.115 242.373C163.163 242.301 163.191 242.218 163.197 242.131C163.203 242.045 163.187 241.959 163.15 241.881C163.114 241.803 163.058 241.735 162.987 241.685C162.532 241.315 161.757 241.246 161.183 241.111Z" fill="#DEC7A6"/>
<path d="M159.778 244.285C160.378 244.464 161.141 244.87 161.763 244.75C161.817 244.74 161.868 244.717 161.91 244.681C161.952 244.646 161.985 244.6 162.003 244.548C162.022 244.496 162.027 244.44 162.017 244.386C162.007 244.332 161.983 244.281 161.947 244.24C161.409 243.814 160.78 243.521 160.108 243.381C159.522 243.169 159.192 244.098 159.778 244.285Z" fill="#DEC7A6"/>
<path d="M266.06 226.281C265.912 226.269 265.764 226.296 265.63 226.36C265.496 226.424 265.381 226.523 265.297 226.645C265.213 226.768 265.163 226.911 265.153 227.059C265.142 227.207 265.17 227.355 265.235 227.489C265.756 228.245 266.49 228.83 267.344 229.169C268.184 229.531 269.061 229.799 269.96 229.97C270.166 230.018 270.413 229.775 270.221 229.586C269.597 228.978 269.011 228.294 268.343 227.703C267.714 227.044 266.929 226.555 266.06 226.281Z" fill="#DEC7A6"/>
<path d="M212.53 226.615C205.513 221.841 199.082 216.256 193.371 209.977C193.31 209.907 193.225 209.862 193.132 209.85C193.04 209.838 192.946 209.859 192.868 209.91C192.79 209.962 192.733 210.039 192.708 210.129C192.683 210.219 192.691 210.315 192.731 210.399C198.892 225.559 216.778 233.226 230.216 240.638C247.771 250.299 264.446 261.362 281.554 271.75C281.59 271.772 281.633 271.78 281.674 271.771C281.715 271.762 281.751 271.738 281.775 271.704C281.799 271.669 281.808 271.626 281.802 271.585C281.796 271.543 281.773 271.506 281.74 271.48C266.566 259.579 250.519 248.835 233.734 239.339C226.636 235.165 219.39 231.169 212.53 226.615Z" fill="#DEC7A6"/>
<path d="M207.756 218.776C210.278 221.433 213.27 223.599 216.582 225.165C220.256 227.479 223.94 229.777 227.654 232.027C234.874 236.403 242.282 240.463 249.513 244.808C249.563 244.825 249.618 244.826 249.669 244.809C249.72 244.792 249.763 244.759 249.793 244.714C249.822 244.67 249.836 244.617 249.832 244.563C249.828 244.51 249.807 244.46 249.771 244.42C242.571 239.589 235.554 234.48 228.324 229.673C224.922 227.41 221.493 225.199 218.052 222.995C215.17 220.62 211.867 218.808 208.314 217.655C207.677 217.529 207.44 218.351 207.756 218.776Z" fill="#DEC7A6"/>
<path d="M197.728 209.634C197.836 210.962 199.338 211.841 200.27 212.642C201.533 213.743 202.904 214.712 204.363 215.535C204.431 215.575 204.51 215.59 204.588 215.578C204.665 215.566 204.736 215.527 204.788 215.468C204.84 215.409 204.87 215.334 204.872 215.255C204.875 215.177 204.85 215.1 204.802 215.038C203.841 213.662 202.741 212.388 201.519 211.237C200.632 210.389 199.611 208.993 198.282 209.018C198.202 209.013 198.122 209.026 198.049 209.056C197.975 209.086 197.909 209.132 197.855 209.191C197.802 209.251 197.763 209.321 197.741 209.398C197.719 209.474 197.714 209.555 197.728 209.634Z" fill="#DEC7A6"/>
<path d="M197.326 208.039C196.909 206.977 196.193 206.059 195.265 205.395C195.204 205.355 195.132 205.336 195.06 205.34C194.988 205.345 194.919 205.373 194.864 205.42C194.809 205.467 194.77 205.531 194.755 205.602C194.74 205.673 194.748 205.747 194.778 205.813C195.26 206.847 196.033 207.718 197.003 208.319C197.043 208.344 197.091 208.356 197.138 208.353C197.186 208.349 197.231 208.33 197.268 208.299C197.304 208.268 197.329 208.226 197.34 208.179C197.35 208.132 197.345 208.083 197.326 208.039Z" fill="#DEC7A6"/>
<path d="M213.746 215.569C213.516 215.531 213.443 215.817 213.544 215.968C215.774 218.526 218.531 220.571 221.625 221.964C224.481 223.717 227.424 225.324 230.444 226.777C230.485 226.796 230.509 226.738 230.478 226.712C227.654 224.307 224.709 222.048 221.654 219.943C219.371 217.922 216.671 216.429 213.746 215.569Z" fill="#DEC7A6"/>
<path d="M204.667 210.466C206.529 212.256 208.703 213.69 211.081 214.698C211.193 214.758 211.324 214.775 211.447 214.745C211.571 214.715 211.679 214.641 211.752 214.536C211.824 214.431 211.856 214.304 211.84 214.178C211.824 214.051 211.763 213.935 211.667 213.851C209.822 211.909 207.737 210.209 205.463 208.793C203.166 207.172 201.001 205.372 198.988 203.41C198.873 203.335 198.736 203.304 198.6 203.322C198.464 203.34 198.339 203.407 198.248 203.509C198.157 203.611 198.105 203.742 198.103 203.879C198.1 204.016 198.146 204.15 198.233 204.255C198.931 205.138 199.731 205.936 200.615 206.632C202.091 207.77 203.449 209.055 204.667 210.466Z" fill="#DEC7A6"/>
<path d="M208.351 205.978C207.963 205.858 207.453 206.285 207.714 206.693C208.918 208.09 210.401 209.218 212.069 210.004C213.713 211.077 215.472 211.965 217.313 212.649C217.346 212.66 217.382 212.659 217.414 212.646C217.447 212.633 217.474 212.608 217.49 212.577C217.506 212.546 217.511 212.51 217.503 212.476C217.495 212.442 217.475 212.412 217.447 212.391C215.937 211.172 214.346 210.104 212.76 208.995C211.445 207.78 209.96 206.763 208.351 205.978Z" fill="#DEC7A6"/>
<path d="M210.694 202.725C210.611 202.671 210.515 202.639 210.416 202.632C210.317 202.626 210.218 202.645 210.129 202.687C210.039 202.73 209.963 202.795 209.905 202.876C209.848 202.957 209.813 203.051 209.803 203.15C209.814 203.47 209.897 203.784 210.047 204.067C210.197 204.35 210.409 204.595 210.668 204.784C211.12 205.209 211.676 205.508 212.28 205.651C212.766 205.771 213.232 205.076 212.713 204.803C212.283 204.574 211.897 204.268 211.576 203.9C211.331 203.474 211.035 203.079 210.694 202.725Z" fill="#DEC7A6"/>
<path d="M284.556 275.658C288.313 278.322 291.927 281.183 295.381 284.23C295.429 284.286 295.497 284.32 295.57 284.325C295.643 284.33 295.715 284.306 295.77 284.259C295.826 284.211 295.86 284.143 295.865 284.07C295.87 283.997 295.846 283.925 295.799 283.87C292.919 280.129 289.412 276.918 285.432 274.379C285.263 274.269 285.057 274.23 284.859 274.27C284.661 274.309 284.486 274.425 284.371 274.592C284.257 274.758 284.212 274.963 284.247 275.162C284.281 275.361 284.392 275.539 284.556 275.658Z" fill="#DEC7A6"/>
<path d="M258.61 250.325C261.432 253.025 264.609 255.327 268.054 257.167C271.624 259.593 275.131 262.063 278.799 264.351C278.799 264.351 278.835 264.329 278.828 264.333C275.818 261.547 272.654 258.933 269.351 256.501C266.308 253.69 262.812 251.413 259.011 249.767C258.938 249.737 258.856 249.733 258.78 249.756C258.705 249.778 258.638 249.824 258.592 249.889C258.546 249.953 258.522 250.031 258.526 250.11C258.529 250.189 258.558 250.264 258.61 250.325Z" fill="#DEC7A6"/>
<path d="M256.662 249.173C256.694 249.165 256.723 249.145 256.742 249.117C256.76 249.09 256.768 249.056 256.763 249.023C256.48 248.222 255.903 247.558 255.149 247.167C254.425 246.694 253.818 246.195 252.918 246.547C252.831 246.59 252.761 246.661 252.717 246.747C252.674 246.834 252.66 246.932 252.676 247.027C252.781 247.949 253.561 248.246 254.28 248.638C254.976 249.116 255.829 249.308 256.662 249.173Z" fill="#DEC7A6"/>
<path d="M247.562 236.286C245.145 234.577 243.099 232.519 240.569 230.941C238.637 229.442 236.405 228.375 234.024 227.812C233.959 227.809 233.895 227.825 233.838 227.857C233.782 227.89 233.737 227.938 233.707 227.996C233.678 228.054 233.665 228.119 233.672 228.184C233.679 228.248 233.704 228.31 233.745 228.36C235.644 230.029 237.795 231.388 240.118 232.386C242.53 233.745 245.239 234.805 247.514 236.36C247.523 236.367 247.535 236.369 247.547 236.367C247.558 236.364 247.568 236.357 247.575 236.348C247.581 236.338 247.584 236.326 247.581 236.314C247.579 236.303 247.572 236.293 247.562 236.286Z" fill="#DEC7A6"/>
<path d="M370.875 318.604C371.129 318.796 371.41 318.438 371.231 318.207C366.942 312.892 362.237 307.926 357.162 303.357C352.58 298.859 347.713 294.661 342.591 290.789C342.502 290.738 342.397 290.719 342.295 290.736C342.193 290.753 342.1 290.804 342.031 290.881C341.962 290.959 341.922 291.057 341.918 291.161C341.913 291.264 341.944 291.366 342.005 291.449C346.54 296.507 351.64 301.131 356.554 305.797C361.092 310.323 365.873 314.598 370.875 318.604Z" fill="#DEC7A6"/>
<path d="M338.991 288.889C339.024 288.9 339.059 288.901 339.093 288.891C339.127 288.882 339.157 288.863 339.18 288.837C339.204 288.811 339.219 288.779 339.224 288.745C339.23 288.71 339.225 288.675 339.211 288.643C338.309 287.012 337.063 285.598 335.558 284.499C334.408 283.184 333.043 282.072 331.523 281.212C331.411 281.175 331.291 281.171 331.177 281.201C331.064 281.231 330.961 281.294 330.883 281.382C330.805 281.47 330.753 281.578 330.736 281.695C330.719 281.811 330.736 281.93 330.785 282.037C331.802 283.461 333.052 284.703 334.483 285.71C335.736 287.086 337.274 288.171 338.991 288.889Z" fill="#DEC7A6"/>
<path d="M344.334 301.923C347.022 304.607 349.919 307.075 352.996 309.303C356.587 312.351 360.29 315.357 363.662 318.646C363.702 318.692 363.758 318.721 363.818 318.725C363.879 318.73 363.938 318.71 363.984 318.67C364.03 318.631 364.059 318.575 364.063 318.514C364.068 318.454 364.048 318.394 364.009 318.348C358.634 312.212 352.432 304.665 344.975 300.979C344.422 300.708 343.979 301.507 344.334 301.923Z" fill="#DEC7A6"/>
<path d="M342.231 299.373C342.247 299.374 342.263 299.371 342.277 299.364C342.291 299.357 342.303 299.347 342.312 299.334C342.321 299.321 342.326 299.306 342.328 299.291C342.33 299.275 342.327 299.259 342.321 299.245C342.068 298.698 341.714 298.204 341.278 297.788C340.861 297.297 340.38 296.864 339.849 296.5C339.757 296.443 339.65 296.416 339.542 296.425C339.434 296.433 339.332 296.476 339.251 296.547C339.169 296.618 339.112 296.713 339.089 296.818C339.065 296.924 339.076 297.034 339.119 297.133C339.468 297.735 339.949 298.251 340.524 298.642C341.01 299.048 341.603 299.302 342.231 299.373Z" fill="#DEC7A6"/>
<path d="M352.753 313.634C352.673 313.602 352.584 313.595 352.5 313.614C352.415 313.634 352.338 313.679 352.281 313.744C352.223 313.808 352.186 313.889 352.176 313.975C352.166 314.062 352.182 314.149 352.224 314.225C352.808 315.184 353.567 316.024 354.461 316.704C355.241 317.516 356.09 318.26 356.997 318.928C357.071 318.962 357.153 318.974 357.234 318.963C357.314 318.952 357.39 318.918 357.451 318.864C357.513 318.811 357.557 318.741 357.58 318.663C357.603 318.585 357.602 318.501 357.578 318.424C356.963 317.407 356.212 316.48 355.345 315.667C354.653 314.795 353.765 314.098 352.753 313.634Z" fill="#DEC7A6"/>
<path d="M349.966 312.159C350.016 312.195 350.077 312.211 350.138 312.204C350.199 312.197 350.255 312.167 350.296 312.121C350.337 312.076 350.359 312.016 350.358 311.955C350.358 311.893 350.335 311.834 350.293 311.789C349.192 310.528 348.009 309.34 346.754 308.231C345.585 307.018 344.19 306.044 342.648 305.366C342.557 305.335 342.458 305.335 342.367 305.365C342.276 305.396 342.197 305.455 342.143 305.534C342.088 305.613 342.061 305.708 342.065 305.804C342.069 305.9 342.104 305.992 342.165 306.066C343.242 307.241 344.477 308.26 345.836 309.092C347.194 310.141 348.598 311.12 349.966 312.159Z" fill="#DEC7A6"/>
<path d="M349.341 316.387C349.009 316.204 348.601 316.588 348.879 316.903C349.419 317.445 350.005 317.939 350.63 318.38C351.035 318.701 351.476 318.046 351.084 317.722C350.542 317.228 349.959 316.781 349.341 316.387Z" fill="#DEC7A6"/>
<path d="M384.804 323.977C385.156 323.533 385.48 323.075 385.806 322.677C385.48 323.091 385.151 323.525 384.804 323.977Z" fill="white"/>
<path d="M384.804 323.977C385.156 323.533 385.48 323.075 385.806 322.677C385.48 323.091 385.151 323.525 384.804 323.977Z" fill="white"/>
<path d="M176.058 211.9C174.138 213.886 173.054 216.535 173.032 219.298C173.009 222.061 174.05 224.727 175.938 226.745C178.618 228.897 181.613 230.625 184.817 231.87C189.309 234.039 193.698 236.419 198.261 238.437C198.28 238.443 198.3 238.443 198.318 238.436C198.336 238.429 198.351 238.415 198.36 238.398C198.369 238.38 198.371 238.36 198.366 238.341C198.361 238.322 198.349 238.306 198.333 238.295C193.049 234.679 187.492 231.277 181.97 228.032C180.439 227.414 179.051 226.488 177.892 225.312C176.733 224.135 175.829 222.733 175.235 221.192C174.78 218.135 175.212 215.012 176.477 212.193C176.544 211.946 176.261 211.713 176.058 211.9Z" fill="white"/>
<path d="M180.118 203.512C179.392 204.575 178.834 205.743 178.463 206.975C177.951 208.294 177.512 209.641 177.15 211.009C177.127 211.101 177.255 211.182 177.312 211.088C178.027 209.938 178.677 208.748 179.258 207.524C179.942 206.338 180.438 205.053 180.728 203.715C180.771 203.364 180.324 203.275 180.118 203.512Z" fill="white"/>
<path d="M182.553 197.687C181.564 198.625 181.611 200.202 181.269 201.419C181.223 201.579 181.456 201.729 181.55 201.558C181.894 200.962 182.364 200.461 182.698 199.84C183.043 199.31 183.26 198.707 183.332 198.078C183.324 197.699 182.875 197.38 182.553 197.687Z" fill="white"/>
<path d="M366.157 334.584C362.686 337.42 359.826 341.045 356.602 344.152C351.992 348.598 348.093 347.474 342.803 345.339C342.695 345.291 342.63 345.443 342.685 345.509C351.027 356.351 362.246 341.961 366.809 335.165C366.886 335.078 366.925 334.965 366.918 334.849C366.912 334.734 366.86 334.625 366.773 334.548C366.687 334.471 366.573 334.432 366.458 334.438C366.342 334.445 366.234 334.497 366.157 334.584Z" fill="white"/>
<path d="M376.442 317.109C376.826 317.655 377.41 318.14 377.753 318.691C378.145 319.224 378.36 319.867 378.37 320.529C378.379 321.19 378.181 321.839 377.803 322.383C376.764 323.737 375.595 324.988 374.314 326.117C372.115 328.24 370.116 330.559 368.341 333.047C368.33 333.063 368.325 333.083 368.328 333.102C368.33 333.121 368.339 333.139 368.353 333.152C368.368 333.165 368.386 333.172 368.406 333.172C368.425 333.172 368.444 333.166 368.459 333.153C370.519 331.496 372.426 329.656 374.156 327.655C376.113 325.867 377.938 323.941 379.619 321.891C381.044 319.843 378.644 317.753 376.826 316.685C376.768 316.65 376.7 316.635 376.632 316.645C376.565 316.654 376.503 316.687 376.458 316.738C376.412 316.788 376.385 316.853 376.383 316.921C376.38 316.989 376.401 317.055 376.442 317.109Z" fill="white"/>
<path d="M349.634 343.288C348.4 343.567 347.125 343.615 345.874 343.429C345.817 343.426 345.762 343.441 345.716 343.472C345.669 343.504 345.634 343.549 345.615 343.602C345.596 343.655 345.594 343.712 345.611 343.766C345.627 343.819 345.66 343.867 345.705 343.9C347.89 345.184 352.543 345.045 353.505 342.139C353.527 342.069 353.529 341.993 353.509 341.921C353.49 341.85 353.45 341.785 353.395 341.736C353.339 341.686 353.271 341.654 353.197 341.643C353.124 341.632 353.049 341.642 352.981 341.673C351.801 342.066 350.882 342.966 349.634 343.288Z" fill="white"/>
<path d="M208.491 243.765C213.315 247.062 218.353 250.036 223.572 252.666C228.554 255.701 233.665 258.658 238.544 261.834C238.562 261.846 238.584 261.85 238.605 261.846C238.626 261.842 238.645 261.83 238.657 261.812C238.669 261.795 238.674 261.773 238.67 261.752C238.666 261.731 238.653 261.712 238.636 261.7C233.751 258.01 228.965 254.428 223.732 251.205C219.13 247.885 214.139 245.141 208.871 243.033C208.777 243.008 208.678 243.015 208.589 243.053C208.501 243.092 208.428 243.16 208.384 243.245C208.339 243.331 208.326 243.43 208.345 243.524C208.364 243.619 208.416 243.704 208.491 243.765Z" fill="white"/>
<path d="M200.718 239.715C201.675 240.525 202.793 241.125 203.997 241.474C204.567 241.677 205.125 241.91 205.67 242.172C206.203 242.558 206.788 242.868 207.407 243.091C207.48 243.106 207.581 243.036 207.53 242.953C207.212 242.514 206.805 242.148 206.334 241.879C205.751 241.468 205.235 240.997 204.666 240.568C203.664 239.691 202.433 239.118 201.117 238.917C201.023 238.913 200.929 238.936 200.848 238.984C200.767 239.032 200.701 239.102 200.659 239.187C200.617 239.271 200.6 239.366 200.61 239.459C200.621 239.553 200.658 239.642 200.718 239.715Z" fill="white"/>
<path d="M318.233 323.129C321.896 326.858 326.083 330.201 329.886 333.812C333.139 337.383 336.755 340.607 340.675 343.431L340.707 343.411C337.761 339.299 334.238 335.632 330.246 332.525C326.572 329.017 322.7 325.722 318.65 322.655C318.586 322.615 318.51 322.599 318.435 322.61C318.36 322.621 318.291 322.659 318.241 322.716C318.191 322.772 318.163 322.845 318.161 322.921C318.16 322.997 318.185 323.071 318.233 323.129Z" fill="white"/>
<path d="M312.486 317.557C313.574 318.643 314.732 319.655 315.953 320.588C316.133 320.74 316.403 320.444 316.229 320.278C315.158 319.175 314.018 318.143 312.814 317.187C312.764 317.151 312.702 317.136 312.641 317.143C312.58 317.15 312.524 317.179 312.483 317.225C312.443 317.271 312.421 317.33 312.421 317.392C312.422 317.453 312.445 317.512 312.486 317.557Z" fill="white"/>
<path d="M358.205 337.191C357.619 337.799 357.074 338.446 356.574 339.127C355.967 339.751 355.291 340.263 354.699 340.847C354.648 340.894 354.616 340.957 354.608 341.025C354.599 341.093 354.616 341.162 354.653 341.22C354.691 341.277 354.748 341.32 354.814 341.339C354.88 341.359 354.95 341.354 355.013 341.327C355.862 340.943 356.624 340.39 357.252 339.703C357.93 339.134 358.45 338.401 358.762 337.573C358.784 337.501 358.782 337.424 358.758 337.353C358.733 337.282 358.686 337.221 358.624 337.178C358.562 337.136 358.488 337.114 358.413 337.116C358.337 337.118 358.265 337.145 358.205 337.191Z" fill="white"/>
<path d="M349.621 339.243C348.245 339.787 346.778 340.064 345.299 340.059C345.025 340.047 344.916 340.453 345.192 340.542C346.69 341.132 348.338 341.229 349.895 340.82C351.055 340.474 352.717 339.981 352.91 338.623C352.919 338.505 352.88 338.388 352.803 338.297C352.726 338.207 352.617 338.149 352.499 338.138C351.446 337.992 350.586 338.891 349.621 339.243Z" fill="white"/>
<path d="M349.165 335.792C348.213 336.425 347.05 336.659 345.926 336.445C345.709 336.394 345.533 336.683 345.737 336.816C346.278 337.244 346.966 337.444 347.653 337.371C348.396 337.32 349.091 336.984 349.593 336.434C349.861 336.144 349.57 335.532 349.165 335.792Z" fill="white"/>
<path d="M14.925 153.476C14.8924 153.498 14.8692 153.532 14.8595 153.57C14.8497 153.609 14.854 153.649 14.8718 153.685C14.8896 153.72 14.9197 153.748 14.9563 153.763C14.993 153.778 15.0338 153.779 15.0713 153.767C19.2812 152.235 23.6922 151.327 28.1648 151.071C32.9616 151.242 37.6886 152.276 42.1189 154.123C42.2868 154.189 42.4506 153.972 42.297 153.848C35.1355 148.127 22.1557 147.012 14.925 153.476Z" fill="white"/>
<path d="M97.3976 195.469C91.9198 193.639 86.2646 192.39 80.5254 191.743C75.2614 191.361 70.1327 191.861 65.9334 188.255C65.858 188.187 65.7114 188.271 65.7529 188.364C66.9137 190.11 68.4978 191.535 70.3575 192.505C72.2171 193.474 74.2918 193.958 76.3886 193.91C83.3128 194.579 90.5031 194.58 97.3516 195.719C97.5186 195.751 97.5561 195.511 97.3976 195.469Z" fill="white"/>
<path d="M196.855 262.648C194.058 260.721 191.002 259.201 187.778 258.134C184.28 256.639 180.738 255.245 177.118 254.07C173.806 253.006 170.429 252.154 167.008 251.52C162.8 250.726 157.486 249.526 155.326 245.391C155.293 245.337 155.202 245.382 155.232 245.448C158.308 252.393 164.937 252.777 171.557 254.458C175.968 255.622 180.291 257.098 184.493 258.874C188.26 260.911 192.236 262.534 196.352 263.715C196.484 263.738 196.62 263.717 196.739 263.656C196.859 263.594 196.954 263.495 197.011 263.373C197.068 263.252 197.084 263.115 197.056 262.984C197.027 262.853 196.957 262.735 196.855 262.648Z" fill="white"/>
<path d="M204.771 265.407C203.505 264.941 202.101 264.623 200.777 264.29C200.714 264.275 200.684 264.347 200.742 264.395C202.049 265.215 203.406 265.954 204.803 266.608C205.892 267.222 207.091 267.617 208.332 267.769C208.624 267.78 208.693 267.389 208.496 267.227C207.389 266.376 206.122 265.757 204.771 265.407Z" fill="white"/>
<path d="M214.307 270.046C213.88 269.861 213.451 269.648 212.991 269.498C212.496 269.37 211.991 269.286 211.481 269.248C211.429 269.238 211.375 269.246 211.327 269.27C211.28 269.294 211.242 269.333 211.219 269.381C211.196 269.43 211.19 269.484 211.201 269.536C211.213 269.588 211.241 269.635 211.282 269.669C211.599 269.981 211.938 270.27 212.297 270.533C212.757 270.796 213.246 271.003 213.709 271.24C214.48 271.737 215.362 272.034 216.277 272.106C216.354 272.099 216.428 272.073 216.493 272.028C216.557 271.984 216.608 271.924 216.642 271.854C216.676 271.784 216.69 271.706 216.685 271.629C216.679 271.551 216.653 271.476 216.61 271.412C215.967 270.773 215.176 270.304 214.307 270.046Z" fill="white"/>
<path d="M341.754 369.26C336.731 368.82 332.895 363.241 329.652 359.888C325.551 355.646 321.37 351.491 317.153 347.359C308.9 339.254 300.526 331.258 292.026 323.421C283.526 315.585 274.782 308.078 265.669 301.001C261.215 297.543 256.678 294.185 252.035 290.984C247.944 287.674 243.39 284.98 238.52 282.989C238.363 282.941 238.304 283.153 238.395 283.246C243.019 287.233 247.998 290.79 253.269 293.872C258.065 297.266 262.762 300.793 267.362 304.453C276.772 311.922 285.8 319.868 294.563 328.082C303.19 336.162 311.44 344.662 319.571 353.239C323.793 357.699 328.026 362.151 332.348 366.506C333.423 367.944 334.832 369.099 336.453 369.872C338.074 370.645 339.858 371.012 341.652 370.942C342.552 370.826 342.769 369.351 341.754 369.26Z" fill="white"/>
<path d="M426.054 357.061C425.444 357.484 424.819 357.901 424.175 358.31L424.157 358.321C423.504 358.716 422.841 359.117 422.17 359.522L421.918 359.675C421.276 360.063 420.609 360.417 419.936 360.779L419.565 360.979C418.9 361.337 418.226 361.68 417.543 362.025L417.164 362.214C416.463 362.559 415.755 362.897 415.039 363.227L414.788 363.34C414.064 363.674 413.33 364 412.592 364.318L412.465 364.395C411.718 364.712 410.964 365.025 410.202 365.334L409.849 365.474C409.12 365.767 408.384 366.049 407.64 366.317L407.238 366.467C406.502 366.737 405.767 367.003 405.031 367.264L404.658 367.396C403.893 367.662 403.13 367.921 402.37 368.173L402.204 368.224C401.449 368.474 400.696 368.714 399.946 368.945L399.701 369.019C398.954 369.251 398.21 369.47 397.47 369.678L397.086 369.792C396.367 369.994 395.653 370.19 394.945 370.382L394.524 370.499C393.812 370.69 393.102 370.873 392.394 371.048L392.106 371.119C391.368 371.299 390.642 371.471 389.926 371.634C376.927 374.568 370.44 374.28 359.092 365.161L358.686 364.831C358.443 364.633 358.196 364.427 357.949 364.222C353.017 360.137 347.184 354.456 339.589 346.796C339.153 346.35 338.71 345.904 338.278 345.441L337.99 345.153C336.601 343.747 335.154 342.276 333.648 340.741C331.474 338.529 329.17 336.184 326.722 333.681L323.717 330.618L323.386 330.281L323.362 330.241C322.592 329.456 321.807 328.67 321.02 327.89L320.539 327.413C273.184 280.701 200.132 244.787 156.286 225.888C131.398 215.209 113.628 208.988 110.533 207.924L110.234 207.82C103.961 205.678 97.2081 203.876 90.6712 202.121L88.5691 201.56C75.1221 197.945 62.6335 194.376 56.7314 188.14C56.5747 187.979 56.4377 187.825 56.2854 187.646C56.2461 187.581 56.1816 187.532 56.1316 187.473C56.0271 187.35 55.9297 187.221 55.8289 187.095C55.728 186.969 55.6649 186.889 55.5887 186.787C55.36 186.482 55.1479 186.172 54.9503 185.854L54.8914 185.756C54.9001 186.873 55.1321 187.977 55.5736 189.002L55.6019 189.049C58.9659 196.78 74.0513 200.833 90.0538 205.099C96.637 206.866 103.446 208.688 109.825 210.874C115.558 212.824 251.196 259.716 324.258 334.127L329.407 339.385C365.339 376.015 368.273 379.012 387.79 374.585C400.263 371.941 412.176 367.135 422.992 360.385C424.919 359.01 426.663 357.396 428.184 355.582L428.014 355.684C427.469 356.102 426.907 356.516 426.328 356.92L426.054 357.061Z" fill="white"/>
<path d="M56.5433 177.557C56.421 178.167 56.3586 178.787 56.3572 179.408C56.3266 181.368 56.9735 183.278 58.1885 184.816C62.6073 190.732 74.3697 194.322 87.4247 197.858C88.775 198.224 90.1426 198.585 91.5275 198.943C98.1143 200.708 104.923 202.53 111.302 204.716C114.413 205.79 122.726 208.692 134.851 213.475L134.863 213.291L134.88 212.961L134.917 212.411L134.945 212.05C134.959 211.829 134.98 211.595 135.013 211.348L135.037 211.038C135.072 210.688 135.102 210.33 135.156 209.947L135.182 209.73C135.219 209.417 135.258 209.098 135.303 208.765L135.362 208.35C135.4 208.071 135.455 207.802 135.49 207.495L135.567 207.01C135.613 206.721 135.667 206.428 135.719 206.13L135.812 205.631C135.875 205.297 135.943 204.961 136.015 204.617L136.099 204.202C136.208 203.713 136.317 203.218 136.439 202.711L136.483 202.532C136.595 202.09 136.709 201.642 136.831 201.184L136.974 200.679C137.074 200.323 137.177 199.965 137.302 199.594L137.47 199C137.582 198.647 137.697 198.292 137.814 197.94L138.011 197.354C138.146 196.966 138.288 196.581 138.432 196.193L138.623 195.694C138.837 195.136 139.061 194.577 139.301 194.013L139.331 193.941C139.56 193.408 139.799 192.875 140.051 192.338L140.306 191.815C140.494 191.426 140.688 191.038 140.889 190.645L141.211 190.037C141.406 189.668 141.613 189.301 141.82 188.935L142.175 188.317C142.401 187.934 142.639 187.544 142.882 187.165L143.216 186.634C143.571 186.091 143.937 185.541 144.316 184.984L144.337 184.971C144.734 184.421 145.151 183.873 145.569 183.335L145.969 182.847C146.27 182.473 146.582 182.102 146.9 181.732L147.41 181.158C147.721 180.818 148.034 180.48 148.359 180.146C148.539 179.954 148.724 179.763 148.911 179.576C149.256 179.235 149.612 178.896 149.973 178.555L150.502 178.063C150.987 177.627 151.489 177.195 152.008 176.773L152.195 176.611C152.781 176.139 153.392 175.675 154.016 175.224L154.571 174.84C155.024 174.522 155.485 174.209 155.97 173.895L156.691 173.459C157.139 173.189 157.589 172.917 158.047 172.64C158.303 172.485 158.563 172.328 158.84 172.2C159.009 172.097 159.172 171.999 159.352 171.915C123.153 161.934 95.0148 158.52 77.3864 161.672C67.6906 163.407 61.1771 167.123 58.2512 172.832C57.6069 174.046 57.1047 175.332 56.7548 176.661L56.5433 177.557Z" fill="white"/>
<path d="M389.712 288.908L388.955 289.065C388.595 289.145 388.242 289.23 387.886 289.317L387.176 289.486L386.078 289.78C385.862 289.837 385.652 289.89 385.436 289.956C385.017 290.077 384.602 290.205 384.187 290.333L383.729 290.472C383.169 290.653 382.611 290.837 382.063 291.031L381.846 291.112C381.372 291.281 380.902 291.457 380.438 291.634L379.913 291.848C379.559 291.988 379.202 292.13 378.849 292.28C378.647 292.362 378.458 292.447 378.251 292.537C377.932 292.676 377.612 292.816 377.297 292.962L376.683 293.249L375.781 293.681L375.161 293.992L374.299 294.439L373.687 294.77C373.413 294.936 373.127 295.074 372.849 295.232L372.264 295.585L371.439 296.085L370.901 296.409C370.62 296.579 370.339 296.75 370.061 296.917L369.524 297.242L368.659 297.824L368.202 298.135C367.854 298.375 367.544 298.602 367.219 298.838L366.916 299.055C366.49 299.367 366.067 299.686 365.647 300.009L365.589 300.044L364.422 300.972L364.071 301.263L363.232 301.962L362.814 302.328L362.081 302.973L361.639 303.373L360.955 304.003L360.511 304.424L359.858 305.055L359.428 305.483L358.791 306.124L358.375 306.552L357.753 307.209L357.36 307.634C357.148 307.861 356.941 308.089 356.736 308.321L356.377 308.721L355.731 309.461L355.422 309.82C355.176 310.107 354.935 310.4 354.695 310.688L354.499 310.925C353.888 311.673 353.296 312.42 352.726 313.173L352.506 313.469C352.298 313.743 352.093 314.014 351.896 314.291L351.631 314.668L351.093 315.407L350.803 315.823L350.313 316.528L350.026 316.958L349.561 317.647L349.279 318.084L348.837 318.77L348.563 319.196L348.136 319.883L347.893 320.296L347.469 320.995L347.237 321.386L346.806 322.139L346.612 322.478C346.443 322.768 346.279 323.059 346.119 323.348L346.012 323.545C345.613 324.265 345.232 324.974 344.868 325.67L344.727 325.942L344.332 326.673L344.158 327.02L343.829 327.681L343.654 328.043L343.349 328.671L343.175 329.042L342.899 329.637L342.725 330.008L342.463 330.585L342.301 330.944L342.058 331.505L341.905 331.853L341.667 332.406L341.529 332.731L341.295 333.296L341.179 333.577L340.914 334.23L340.851 334.386L340.538 335.181L340.253 335.93L340.172 336.146L339.981 336.646L339.892 336.897L339.74 337.313L339.648 337.576L339.514 337.957L339.432 338.189L339.31 338.548L339.235 338.776L339.126 339.093L339.054 339.314L338.961 339.601L338.901 339.795L338.815 340.069L338.762 340.233L338.679 340.495L338.642 340.621L338.568 340.873L338.541 340.958C367.513 370.376 371.432 372.419 389.255 368.375C398.573 366.302 407.621 363.161 416.218 359.013C420.957 356.776 425.329 353.831 429.182 350.279C430.962 348.602 432.434 346.626 433.531 344.44C433.794 343.905 434.019 343.353 434.205 342.786L434.761 340.447C434.896 337.741 434.424 335.039 433.381 332.539C432.337 330.039 430.747 327.804 428.728 325.997L428.683 325.921C416.94 312.511 404.139 300.066 390.403 288.707L389.712 288.908Z" fill="white"/>
<path d="M164.113 173.307C139.965 183.473 138.15 209.167 138.045 214.76C176.779 230.245 270.256 271.485 325.715 327.977L329.051 331.376C331.475 333.85 333.763 336.18 335.915 338.365C338.462 330.572 342.015 323.143 346.483 316.268C355.601 301.287 370.216 290.465 387.206 286.114C344.302 250.741 296.187 222.213 244.566 201.541C218.253 190.748 191.399 181.325 164.113 173.307Z" fill="white"/>
<path d="M85.2972 180.216C85.6613 179.336 85.8401 178.39 85.8225 177.437C85.8049 176.484 85.5913 175.545 85.1949 174.679C84.7698 173.753 84.1586 172.925 83.3996 172.245C82.6405 171.565 81.7497 171.049 80.7826 170.728C78.8856 170.068 76.8095 170.145 74.9664 170.943C73.1232 171.742 71.6477 173.204 70.8324 175.04C70.468 175.92 70.2889 176.866 70.3065 177.819C70.3241 178.772 70.5381 179.711 70.9347 180.577C71.36 181.503 71.9709 182.331 72.73 183.011C73.489 183.691 74.3798 184.207 75.3468 184.528C76.6528 184.975 78.0514 185.082 79.4103 184.839C80.7008 184.625 81.9165 184.089 82.9454 183.281C83.9743 182.473 84.7832 181.419 85.2972 180.216ZM78.7619 180.72C78.7004 181.03 78.7054 181.349 78.7766 181.657C77.9866 181.789 77.176 181.724 76.4171 181.468C75.868 181.29 75.3614 181 74.9287 180.618C74.4961 180.236 74.1467 179.769 73.902 179.246C73.7004 178.801 73.5891 178.321 73.5746 177.832C73.56 177.344 73.6425 176.858 73.8173 176.402C75.0029 176.173 76.2312 176.356 77.2981 176.922C77.9107 177.317 78.3818 177.896 78.6434 178.576C78.905 179.256 78.9434 180.002 78.7532 180.706L78.7619 180.72ZM82.371 178.74C82.3656 177.822 82.1549 176.916 81.7542 176.09C81.3536 175.264 80.7732 174.538 80.0556 173.965C81.0173 174.358 81.7971 175.097 82.2426 176.035C82.6174 176.886 82.6601 177.845 82.3623 178.726L82.371 178.74Z" fill="#DEC7A6"/>
<path d="M406.634 341.058C405.811 340.175 404.81 339.477 403.698 339.01C402.585 338.542 401.386 338.316 400.18 338.347C399.101 338.398 398.047 338.681 397.088 339.175C396.129 339.67 395.287 340.366 394.621 341.215C393.229 343.142 392.561 345.498 392.734 347.87C392.906 350.241 393.909 352.475 395.565 354.18C396.388 355.063 397.389 355.761 398.502 356.228C399.614 356.696 400.813 356.922 402.02 356.891C402.354 356.876 402.687 356.84 403.017 356.781C404.823 356.45 406.446 355.469 407.579 354.023C408.97 352.096 409.638 349.74 409.466 347.369C409.293 344.998 408.29 342.763 406.634 341.058ZM403.092 348.891C403.125 350.403 402.318 351.821 402.517 353.282C402.531 353.368 402.55 353.454 402.573 353.538C402.339 353.591 402.101 353.625 401.861 353.639C401.114 353.653 400.374 353.507 399.689 353.21C399.003 352.913 398.39 352.472 397.891 351.918C396.862 350.868 396.196 349.516 395.991 348.061C395.785 346.606 396.05 345.123 396.748 343.829C398.082 344.406 400.125 344.057 401.27 344.916C401.852 345.4 402.318 346.008 402.633 346.696C402.949 347.384 403.106 348.134 403.092 348.891Z" fill="#DEC7A6"/>
<path d="M431.129 323.866C419.858 310.981 407.606 298.987 394.483 287.994L391.846 285.766L391.26 285.269C347.605 248.901 298.502 219.627 245.749 198.521C217.665 187.189 191.853 178.05 168.933 171.318L168.958 171.303L164.413 170.008L163.87 169.843C103.187 152.629 64.6272 153.161 55.282 171.367C54.5196 172.816 53.9276 174.349 53.5179 175.935L53.3206 176.798L51.6605 184.094C51.6448 184.158 51.637 184.227 51.6271 184.292C51.4165 186.275 51.7041 188.279 52.4639 190.123C52.4897 190.205 52.5213 190.285 52.5586 190.362L52.6284 190.477C56.7461 199.52 71.7621 203.531 89.1463 208.193C95.6788 209.941 102.432 211.753 108.699 213.892C114.415 215.854 249.353 262.469 321.862 336.347L327 341.588C360.634 375.874 366.39 381.746 383.94 378.61C385.353 378.357 386.844 378.046 388.428 377.685C401.344 374.991 413.67 369.999 424.821 362.947C431.36 358.334 435.85 351.36 437.345 343.498L437.895 341.151L437.922 341.007C438.16 337.823 437.672 334.625 436.496 331.656C435.319 328.687 433.484 326.023 431.129 323.866ZM243.098 230.929C301.675 264.55 323.773 302.732 331.98 324.282C320.086 313.322 307.598 303.076 294.833 293.396C287.893 288.132 280.888 282.907 273.581 278.224C266.681 273.798 259.376 268.1 251.4 265.856C251.358 265.842 251.321 265.903 251.354 265.942C257.256 272.307 265.354 276.565 272.207 281.611C279.222 286.78 286.322 291.789 293.218 297.144C297.051 300.12 300.81 303.186 304.56 306.286C306.36 307.96 308.137 309.669 309.857 311.455C312.818 314.52 315.633 317.752 318.507 320.925C262.471 268.065 175.163 229.616 138.049 214.767C138.06 214.126 138.09 213.206 138.187 212.079C143.377 208.715 175.134 191.92 243.098 230.929ZM56.3452 179.406C56.3466 178.784 56.409 178.164 56.5313 177.555L56.7206 176.712C57.0705 175.382 57.5727 174.097 58.217 172.882C61.161 167.163 67.6565 163.458 77.3522 161.723C94.8332 158.595 122.644 161.917 158.417 171.722C153.846 174.068 149.759 177.254 146.368 181.114C144.382 183.097 142.722 185.382 141.45 187.884C141.038 188.497 140.641 189.112 140.274 189.727C136.565 196.997 134.331 204.929 133.703 213.067C122.186 208.541 114.279 205.772 111.256 204.739C104.882 202.56 98.0728 200.738 91.4816 198.966C90.1073 198.599 88.7396 198.237 87.3788 197.881C74.3237 194.345 62.5614 190.755 58.1426 184.839C56.9357 183.288 56.3032 181.366 56.3524 179.401L56.3452 179.406ZM422.947 360.328C412.131 367.078 400.218 371.883 387.745 374.527C368.222 378.944 365.29 375.96 329.362 339.328L324.213 334.07C251.16 259.683 115.517 212.814 109.798 210.855C103.426 208.68 96.6166 206.858 90.0269 205.08C74.0424 200.803 58.939 196.761 55.5751 189.03L55.5511 188.991C55.1096 187.965 54.8776 186.861 54.8689 185.744L54.9277 185.842C55.1218 186.163 55.3375 186.471 55.5662 186.776C55.6316 186.884 55.7243 186.98 55.8064 187.083C55.8884 187.186 56.0046 187.338 56.109 187.462C56.1483 187.527 56.2128 187.576 56.2629 187.635C56.4065 187.799 56.5457 187.956 56.7089 188.128C62.611 194.364 75.0996 197.933 88.5466 201.548L90.6487 202.109C97.1813 203.857 103.938 205.667 110.211 207.808L110.51 207.913C113.622 208.986 131.376 215.197 156.263 225.876C200.109 244.775 273.166 280.696 320.517 327.401L320.997 327.879C321.784 328.659 322.569 329.445 323.339 330.23L323.363 330.27L323.695 330.606L326.699 333.67C329.148 336.173 331.452 338.517 333.626 340.729C335.133 342.26 336.58 343.731 337.967 345.141L338.255 345.43C338.706 345.881 339.148 346.328 339.566 346.784C347.154 354.448 352.998 360.124 357.926 364.211C358.173 364.416 358.42 364.621 358.663 364.819L359.07 365.149C370.424 374.279 376.89 374.565 389.904 371.622C390.621 371.461 391.347 371.29 392.084 371.107L392.371 371.037C393.072 370.866 393.782 370.683 394.501 370.487L394.923 370.37C395.629 370.18 396.342 369.984 397.063 369.781L397.447 369.667C398.186 369.456 398.93 369.236 399.678 369.007L399.924 368.933C400.676 368.701 401.429 368.461 402.182 368.213L402.348 368.162C403.105 367.911 403.868 367.651 404.635 367.384L405.009 367.252C405.745 366.994 406.481 366.728 407.215 366.455L407.617 366.305C408.355 366.027 409.091 365.745 409.826 365.463L410.18 365.323C410.939 365.015 411.693 364.701 412.443 364.383L412.569 364.307C413.307 363.988 414.041 363.663 414.765 363.329L415.017 363.216C415.734 362.887 416.442 362.549 417.142 362.202L417.52 362.013C418.203 361.669 418.877 361.325 419.542 360.968L419.914 360.768C420.586 360.405 421.244 360.037 421.895 359.663L422.148 359.511C422.818 359.105 423.482 358.704 424.135 358.309L424.153 358.298C424.805 357.904 425.421 357.473 426.032 357.049L426.288 356.894C426.866 356.491 427.428 356.077 427.973 355.659L428.143 355.556C426.619 357.36 424.873 358.963 422.947 360.328ZM434.739 340.499L434.184 342.839C433.998 343.405 433.772 343.958 433.509 344.493C432.412 346.679 430.941 348.655 429.16 350.332C425.307 353.884 420.935 356.829 416.196 359.066C407.599 363.214 398.551 366.355 389.233 368.428C371.653 372.418 367.601 370.48 339.684 342.197C341.158 335.958 343.425 329.934 346.431 324.271C349.526 318.882 353.176 313.831 357.324 309.202C365.968 298.875 378.005 291.96 391.28 289.693C391.327 289.689 391.365 289.671 391.41 289.664C404.758 300.77 417.206 312.917 428.636 325.989L428.681 326.065C430.705 327.868 432.299 330.1 433.348 332.599C434.396 335.098 434.873 337.8 434.743 340.506L434.739 340.499Z" fill="#DEC7A6"/>
<path d="M388.89 292.664C376.878 292.082 358.474 310.722 358.474 310.722C395.653 307.972 409.77 328.953 416.589 338.653C423.409 348.353 413.472 356.482 413.472 356.482C437.306 347.165 434.881 337.453 427.012 328.004C419.143 318.555 388.89 292.664 388.89 292.664Z" fill="#DEC7A6"/>
<path d="M151.003 172.417L150.982 172.43C151.525 172.518 151.003 172.417 151.003 172.417Z" fill="#DEC7A6"/>
<path d="M105.678 169.293C129.942 176.237 131.283 204.316 131.283 204.316C134.666 180.083 150.442 172.678 150.967 172.439C149.741 172.235 143.161 171.077 113.393 165.673C70.316 157.846 62.1572 172.908 62.1572 172.908C71.3511 165.651 88.4696 164.367 105.678 169.293Z" fill="#DEC7A6"/>
<path d="M88.5112 170.326C87.6485 170.178 86.9507 171.353 86.9225 172.202C86.8773 173.382 87.5364 174.032 87.7777 175.083C88.0354 176.282 88.0731 177.517 87.8889 178.729C87.4358 181.265 86.3219 183.637 84.6597 185.605C84.6519 185.615 84.6471 185.628 84.6464 185.64C84.6457 185.653 84.6488 185.666 84.6554 185.677C84.6621 185.688 84.6718 185.696 84.6834 185.702C84.6951 185.707 84.7082 185.708 84.7207 185.706C86.1805 185.104 87.4736 184.16 88.4904 182.952C89.5071 181.744 90.2175 180.309 90.5614 178.768C91.4354 175.807 91.4116 170.823 88.5112 170.326Z" fill="#DEC7A6"/>
<path d="M372.288 361.747C367.817 360.501 363.539 358.645 359.573 356.232C359.492 356.188 359.422 356.324 359.484 356.395C362.584 360.411 366.81 363.414 371.622 365.021C376.743 366.083 382.062 365.647 386.942 363.766C387.212 363.652 387.332 363.23 387.049 363.13C382.558 361.354 377.025 362.814 372.288 361.747Z" fill="#DEC7A6"/>
<path d="M367.542 356.275C369.38 357.694 371.542 358.634 373.834 359.011C374.903 359.347 376.032 359.449 377.144 359.309C378.256 359.169 379.324 358.79 380.276 358.198C380.635 357.888 380.707 357.16 380.358 356.957C378.848 356.088 376.487 356.761 374.705 356.721C372.393 356.64 370.1 356.279 367.875 355.645C367.575 355.565 367.277 356.066 367.542 356.275Z" fill="#DEC7A6"/>
<path d="M373.219 352.094C372.764 351.946 372.266 352.799 372.698 353.074C373.647 353.737 374.721 354.202 375.854 354.441C377.008 354.767 378.24 354.679 379.337 354.192C379.852 353.88 379.893 353.058 379.43 352.879C378.448 352.688 377.446 352.62 376.448 352.678C375.353 352.604 374.27 352.408 373.219 352.094Z" fill="#DEC7A6"/>
<path d="M377.051 347.552C377.502 347.605 377.843 346.768 377.472 346.53C377.168 346.334 376.843 346.176 376.502 346.057C375.869 345.824 375.34 347.084 375.984 347.311C376.329 347.433 376.687 347.514 377.051 347.552Z" fill="#DEC7A6"/>
<path d="M71.0393 188.456C71.3118 188.483 71.5175 187.985 71.2937 187.834C68.9334 186.548 66.6641 185.102 64.5012 183.506C62.8846 182.469 61.6704 180.912 61.0595 179.091C60.9143 177.521 61.064 175.937 61.5013 174.422C61.5068 174.403 61.5067 174.383 61.5008 174.365C61.495 174.346 61.4836 174.33 61.4684 174.318C61.4532 174.306 61.4347 174.299 61.4154 174.298C61.396 174.296 61.3767 174.301 61.3599 174.31C58.4914 175.788 58.9328 180.273 60.043 182.256C61.3154 184.027 62.9583 185.498 64.8574 186.569C66.7565 187.64 68.866 188.284 71.0393 188.456Z" fill="#DEC7A6"/>
<path d="M67.2787 182.438C67.4909 182.36 67.6672 182.207 67.7745 182.008C67.8818 181.809 67.9126 181.578 67.8611 181.357C67.4526 180.226 66.3917 180.01 65.6426 179.252C65.1745 178.731 64.8147 178.122 64.5841 177.461C64.3535 176.8 64.2567 176.099 64.2993 175.401C64.2971 174.949 63.7083 174.798 63.4518 175.253C63.0338 175.964 62.8045 176.769 62.7856 177.593C62.7667 178.417 62.959 179.233 63.344 179.962C64.0667 181.263 65.6715 182.908 67.2787 182.438Z" fill="#DEC7A6"/>
<path d="M68.748 176.276C68.2821 175.722 67.8678 175.127 67.5105 174.498C67.3344 174.141 66.6867 174.503 66.7641 174.949C66.7912 175.407 66.8554 175.862 66.9563 176.31C67.1019 176.725 67.3022 177.119 67.5516 177.482C67.7261 177.835 67.9806 178.143 68.2951 178.38C68.6096 178.617 68.9752 178.778 69.3627 178.849C69.4727 178.835 69.5784 178.797 69.6728 178.739C69.7672 178.681 69.8483 178.604 69.9106 178.512C69.9729 178.42 70.0152 178.317 70.0344 178.207C70.0537 178.098 70.0496 177.986 70.0224 177.879C69.6737 177.288 69.2448 176.749 68.748 176.276Z" fill="#DEC7A6"/>
<path d="M405.482 335.796C405.245 335.876 405.159 336.263 405.387 336.346C407.055 336.7 408.59 337.519 409.812 338.708C411.034 339.898 411.894 341.41 412.292 343.069C412.643 345.406 412.446 347.793 411.717 350.042C410.988 352.29 409.746 354.338 408.089 356.024C407.832 356.308 408.008 356.778 408.345 356.569C410.633 355.135 412.475 353.092 413.664 350.668C414.854 348.245 415.345 345.538 415.08 342.851C415.017 341.714 414.703 340.606 414.161 339.605C413.618 338.604 412.862 337.735 411.944 337.061C411.027 336.387 409.972 335.924 408.855 335.705C407.738 335.486 406.586 335.517 405.482 335.796Z" fill="#DEC7A6"/>
<path d="M220.293 248.552C224.742 251.581 229.617 253.929 234.758 255.521C235.178 255.597 235.336 254.905 235.109 254.668C231.097 251.403 226.58 248.811 221.735 246.996C216.9 244.193 211.788 241.897 206.48 240.146C206.279 240.09 206.079 240.428 206.244 240.569C210.686 243.634 215.387 246.305 220.293 248.552Z" fill="#DEC7A6"/>
<path d="M240.931 260.731C242.017 261.793 243.358 262.558 244.824 262.952C245.289 262.996 245.559 262.311 245.362 261.952C244.39 260.715 243.124 259.74 241.679 259.117C240.398 258.253 238.996 257.582 237.52 257.125C237.371 257.083 237.181 257.33 237.292 257.465C238.344 258.721 239.569 259.82 240.931 260.731Z" fill="#DEC7A6"/>
<path d="M145.846 213.758C150.761 216.461 155.89 218.756 161.181 220.619C166.113 222.61 171.405 226.339 176.957 226.514C177.423 226.527 177.93 225.728 177.581 225.339C174.03 221.33 167.85 219.896 163.077 218.005C157.686 215.58 151.983 213.919 146.132 213.067C145.83 213.039 145.593 213.6 145.846 213.758Z" fill="#DEC7A6"/>
<path d="M186.332 230.147C186.41 230.137 186.484 230.107 186.546 230.059C186.608 230.012 186.657 229.948 186.687 229.875C186.717 229.803 186.726 229.724 186.715 229.646C186.705 229.568 186.673 229.495 186.624 229.433C185.225 228.194 183.406 227.533 181.538 227.584C181.435 227.577 181.384 227.736 181.451 227.799C182.719 229.176 184.465 230.015 186.332 230.147Z" fill="#DEC7A6"/>
<path d="M133.492 172.304C131.581 170.608 128.354 170.541 125.841 170.139C122.53 169.645 119.178 169.496 115.836 169.693C115.8 169.714 115.758 169.784 115.805 169.795C118.989 170.46 122.162 171.147 125.367 171.765C127.905 172.677 130.592 173.104 133.287 173.024C133.356 172.999 133.417 172.958 133.467 172.904C133.516 172.851 133.553 172.786 133.573 172.716C133.593 172.646 133.596 172.572 133.582 172.5C133.568 172.429 133.537 172.362 133.492 172.304Z" fill="white"/>
<path d="M140.486 173.665C140.426 173.577 140.345 173.506 140.252 173.456C139.256 172.906 138.1 172.722 136.983 172.936C136.616 172.772 136.212 172.71 135.813 172.757C135.414 172.804 135.035 172.958 134.716 173.203C134.496 173.336 134.475 173.684 134.676 173.764C135.067 173.922 135.397 174.215 135.77 174.408C136.148 174.594 136.48 174.863 136.739 175.196C137.206 175.815 137.097 177.092 137.744 177.454L137.789 177.471C137.276 178.107 136.825 178.79 136.442 179.512C134.379 183.61 132.647 187.867 131.261 192.241C131.23 192.344 131.337 192.432 131.407 192.32C132.815 189.957 133.895 187.369 135.143 184.921C135.916 183.308 136.775 181.737 137.714 180.215C138.628 178.811 139.855 177.842 140.812 176.55C142.042 174.886 141.536 174.034 140.486 173.665Z" fill="white"/>
<path d="M169.113 178.818C165.275 177.748 161.203 177.859 157.428 179.136C153.057 181.509 149.367 184.962 146.71 189.166C146.437 189.528 146.814 189.842 147.108 189.595C151.461 185.88 155.767 181.406 161.015 180.946C164.774 180.925 168.521 181.387 172.163 182.322C179.658 183.611 186.975 186.934 194.695 187.013C194.856 187.019 194.96 186.759 194.839 186.665C188.177 181.297 177.597 180.12 169.113 178.818Z" fill="white"/>
<path d="M201.892 188.753C201.184 188.46 200.462 188.203 199.728 187.984C198.887 187.857 198.03 187.875 197.195 188.038C197.088 188.048 196.954 188.218 197.044 188.316C197.506 188.94 198.065 189.487 198.698 189.936C199.378 190.281 200.083 190.576 200.806 190.818C202.006 191.304 203.596 192.46 205.039 191.613C205.16 191.536 205.255 191.423 205.309 191.291C205.364 191.158 205.376 191.011 205.344 190.872C204.938 189.369 203.064 189.168 201.892 188.753Z" fill="white"/>
<path d="M211.898 192.907C210.977 192.759 210.038 192.752 209.114 192.887C209.058 192.891 209.01 192.984 209.06 193.018C209.727 193.59 210.476 194.06 211.282 194.412C211.926 194.663 212.912 195.121 213.668 194.58C213.762 194.52 213.835 194.432 213.878 194.329C213.92 194.226 213.93 194.112 213.905 194.003C213.642 193.153 212.609 193.073 211.898 192.907Z" fill="white"/>
<path d="M343.654 275.946C344.279 276.011 344.663 275.065 344.387 274.577C341.71 271.255 338.266 268.632 334.351 266.935C330.794 264.719 327.088 262.751 323.26 261.044C323.009 260.93 322.804 261.389 322.986 261.56C326.397 264.776 330.041 267.734 333.89 270.41C336.634 273.038 339.99 274.941 343.654 275.946Z" fill="white"/>
<path d="M350.104 282.274C350.619 282.652 350.916 282.606 351.563 282.544C351.718 282.525 351.861 282.448 351.962 282.328C352.063 282.209 352.115 282.055 352.109 281.899C352.132 281.43 352.021 280.964 351.789 280.556C351.419 280.078 350.965 279.672 350.449 279.357C349.509 278.745 348.508 278.233 347.462 277.829C347.191 277.732 346.961 278.132 347.09 278.379C347.654 279.416 348.321 280.394 349.081 281.297C349.384 281.661 349.727 281.988 350.104 282.274Z" fill="white"/>
<path d="M357.617 288.324C358.562 289.072 359.454 290.197 360.846 289.592C360.982 289.505 361.094 289.385 361.171 289.243C361.248 289.101 361.288 288.941 361.286 288.78C361.316 287.201 359.622 286.59 358.675 285.927C358.175 285.53 357.626 285.2 357.042 284.944C356.366 284.698 355.582 284.842 354.957 284.525C354.791 284.439 354.658 284.756 354.771 284.869C355.295 285.394 355.503 286.333 356.005 286.911C356.488 287.44 357.029 287.914 357.617 288.324Z" fill="white"/>
<path d="M144.714 194.204C141.705 197.308 134.43 213.628 140.889 214.042C141.151 214.031 141.407 213.954 141.631 213.818C141.855 213.682 142.042 213.492 142.173 213.265L142.375 212.922C142.504 212.735 142.58 212.517 142.595 212.29C142.611 212.063 142.565 211.836 142.462 211.633C141.98 210.901 141.286 210.625 141.027 209.625C140.79 207.845 140.878 206.037 141.286 204.288C142.208 200.869 143.393 197.527 144.83 194.291C144.862 194.213 144.786 194.136 144.714 194.204Z" fill="white"/>
<path d="M379.005 284.612C372.028 278.678 364.649 273.232 356.921 268.315C352.853 265.471 348.732 262.353 344.425 259.619C336.412 253.768 328.301 248.065 320.002 242.677C311.185 236.794 301.977 231.52 292.442 226.893C282.486 222.451 272.263 218.632 261.833 215.458C261.66 215.4 261.529 215.72 261.697 215.786C281.574 224.553 300.515 235.303 318.233 247.873C324.671 252.16 330.996 256.628 337.251 261.208C341.46 264.701 345.834 267.951 350.223 271.221C356.272 275.729 362.148 280.513 368.199 285.015C368.209 285.231 368.302 285.434 368.458 285.584C368.615 285.733 368.822 285.816 369.038 285.817L369.171 285.825C366.468 287.29 363.963 289.094 361.716 291.194C361.092 291.709 360.472 292.247 359.85 292.815C359.698 292.958 359.574 293.128 359.484 293.317C356.712 296.151 354.131 299.167 351.759 302.344C345.877 310.047 341.264 318.641 338.096 327.8C337.923 328.328 338.503 328.539 338.733 328.04C339.953 325.333 341.327 322.67 342.802 320.06C345.928 315.457 348.719 310.771 352.161 306.592C352.723 305.942 353.283 305.289 353.867 304.665C354.395 304.089 354.936 303.526 355.481 302.97C355.828 302.632 356.184 302.299 356.547 301.971C358.876 299.879 361.224 297.849 363.626 295.909C368.369 292.532 373.407 289.59 378.679 287.119C378.853 287.04 379.009 286.925 379.135 286.782C379.262 286.64 379.358 286.471 379.416 286.289C379.474 286.107 379.493 285.915 379.472 285.725C379.451 285.535 379.39 285.352 379.293 285.187C379.257 284.971 379.157 284.77 379.005 284.612Z" fill="white"/>
<path d="M404.942 311.413C399.689 305.913 393.8 301.056 387.4 296.944C387.325 296.901 387.204 297.019 387.269 297.102C391.896 302.594 396.971 307.693 402.442 312.344C407.649 317.902 413.335 322.992 419.433 327.555C419.604 327.668 419.856 327.392 419.715 327.207C415.431 321.378 410.472 316.077 404.942 311.413Z" fill="white"/>
<path d="M428.305 338.712C427.181 334.935 424.756 331.679 421.459 329.521L421.452 329.525C423.239 332.311 430.179 339.726 426.52 344.238C426.411 344.368 426.516 344.565 426.65 344.519C429.257 343.627 429.022 340.761 428.305 338.712Z" fill="white"/>
<path d="M424.895 346.544C424.866 346.586 424.918 346.624 424.947 346.582L425.436 345.941C425.49 345.909 425.413 345.837 425.372 345.891L424.895 346.544Z" fill="white"/>
<path d="M345.799 287.802C344.575 285.684 342.683 284.032 340.419 283.106C338.171 281.727 335.761 280.632 333.243 279.846C332.972 279.764 332.67 280.267 332.931 280.429C335.226 281.888 337.535 283.289 339.767 284.855C341.536 286.095 343.186 288.067 345.368 288.417C345.631 288.445 345.89 288.042 345.799 287.802Z" fill="white"/>
<path d="M347.323 289.525C348.286 290.302 348.952 291.544 349.906 292.396C350.63 293.242 351.634 293.799 352.735 293.965C352.888 293.945 353.035 293.892 353.167 293.811C353.298 293.73 353.411 293.623 353.497 293.495C353.584 293.367 353.642 293.222 353.669 293.07C353.695 292.918 353.689 292.763 353.651 292.613C353.138 291.656 352.305 290.91 351.298 290.505C350.817 290.255 350.324 290.031 349.819 289.833C349.076 289.623 348.347 289.369 347.635 289.071C347.398 288.924 347.097 289.347 347.323 289.525Z" fill="white"/>
<path d="M340.31 295.754C341.48 296.559 342.985 298.323 344.614 297.776C344.788 297.713 344.938 297.598 345.043 297.446C345.148 297.294 345.203 297.114 345.2 296.929C345.127 294.959 342.875 294.1 341.584 293.349C340.039 292.331 338.281 291.68 336.446 291.448C336.109 291.42 335.787 291.988 336.003 292.272C337.276 293.621 338.724 294.792 340.31 295.754Z" fill="white"/>
<path d="M335.754 300.178C336.057 300.821 336.517 301.378 337.092 301.796C337.554 302.064 338.295 302.482 338.882 302.256C338.988 302.217 339.077 302.14 339.131 302.041C339.185 301.941 339.201 301.825 339.175 301.714C338.955 301.187 338.407 300.933 338.065 300.514C337.636 300.069 337.236 299.597 336.867 299.101C336.421 298.396 335.341 299.437 335.754 300.178Z" fill="white"/>
<path d="M221.845 197.59C220.129 196.881 218.308 196.462 216.455 196.348C216.343 196.362 216.238 196.406 216.149 196.474C216.059 196.542 215.99 196.633 215.947 196.737C215.904 196.841 215.89 196.954 215.905 197.065C215.92 197.177 215.965 197.282 216.034 197.37C217.511 198.468 219.2 199.247 220.995 199.655C222.603 200.239 224.194 201.119 226.051 200.41C226.329 200.301 226.535 199.915 226.355 199.659C225.318 198.139 223.505 198.039 221.845 197.59Z" fill="white"/>
<path d="M232.603 201.816C231.808 201.462 230.958 201.246 230.09 201.178C229.786 201.155 229.696 201.634 229.926 201.77C230.644 202.143 231.343 202.484 232.056 202.851C232.66 203.165 233.35 203.777 234.071 203.74C234.134 203.732 234.194 203.711 234.248 203.678C234.302 203.644 234.348 203.6 234.383 203.548C234.419 203.496 234.443 203.437 234.454 203.375C234.465 203.313 234.462 203.249 234.447 203.188C234.029 202.513 233.37 202.022 232.603 201.816Z" fill="white"/>
</g>
</svg>
