<svg width="174" height="31" viewBox="0 0 174 31" fill="none" xmlns="http://www.w3.org/2000/svg">
<path d="M41.2993 5.84338C36.963 5.84338 33.4453 9.64869 33.4453 14.339C33.4453 19.0292 36.963 22.8345 41.2993 22.8345C45.6356 22.8345 49.1533 19.0292 49.1533 14.339C49.1533 9.64869 45.6356 5.84338 41.2993 5.84338Z" fill="#DEC7A6"/>
<path d="M59.6233 15.7549C63.058 15.7549 66.5757 15.0469 68.7881 10.0912C68.7881 10.0912 70.7516 25.6664 51.7693 25.6664C44.0813 25.6664 38.4784 23.9186 35.1543 19.6266C37.3667 16.1365 41.6089 12.7737 46.6255 8.09448C48.3125 9.9363 54.5514 15.7549 59.6233 15.7549Z" fill="#DEC7A6"/>
<path d="M28.4243 5.84338C24.088 5.84338 20.5703 9.64869 20.5703 14.339C20.5703 19.0292 24.088 22.8345 28.4243 22.8345C32.7606 22.8345 36.2783 19.0292 36.2783 14.339C36.2783 9.64869 32.7606 5.84338 28.4243 5.84338Z" fill="#DEC7A6"/>
<path d="M23.0972 8.09448C28.1138 12.7682 32.3561 16.1365 34.5685 19.6266C31.2444 23.9186 25.6415 25.6664 17.9534 25.6664C-1.02885 25.6664 0.934646 10.0912 0.934646 10.0912C3.14703 15.0469 6.66473 15.7549 10.0995 15.7549C15.1714 15.7549 21.4103 9.9363 23.0972 8.09448Z" fill="#DEC7A6"/>
<path d="M89.2394 16.1103C89.1755 16.1581 89.1755 16.206 89.2394 16.2539C89.9573 16.6527 90.4838 17.1633 90.8189 17.7855C91.154 18.4078 91.3215 19.1577 91.3215 20.0352C91.3215 21.6785 90.7471 22.8911 89.5983 23.6729C88.4496 24.4388 86.9578 24.8217 85.123 24.8217H78.6852C78.5735 24.8217 78.4857 24.7898 78.4219 24.7259C78.3581 24.6621 78.3262 24.5744 78.3262 24.4627V8.42796C78.3262 8.31627 78.3581 8.22852 78.4219 8.1647C78.4857 8.10088 78.5735 8.06897 78.6852 8.06897H84.9076C86.9498 8.06897 88.4815 8.43593 89.5026 9.16986C90.5397 9.88783 91.0582 11.1004 91.0582 12.8076C91.0582 14.3233 90.4519 15.4242 89.2394 16.1103ZM82.9451 11.9221C82.8654 11.9221 82.8255 11.962 82.8255 12.0418V14.435C82.8255 14.5148 82.8654 14.5547 82.9451 14.5547H84.9076C86.0723 14.5547 86.6547 14.1159 86.6547 13.2384C86.6547 12.3609 86.0723 11.9221 84.9076 11.9221H82.9451ZM85.123 20.9685C86.2558 20.9685 86.8222 20.4979 86.8222 19.5565C86.8222 18.6631 86.2638 18.2163 85.1469 18.2163H82.9451C82.8654 18.2163 82.8255 18.2562 82.8255 18.336V20.8489C82.8255 20.9287 82.8654 20.9685 82.9451 20.9685H85.123Z" fill="#121212"/>
<path d="M105.184 11.5631C105.184 11.6748 105.152 11.7625 105.088 11.8264C105.024 11.8902 104.937 11.9221 104.825 11.9221H97.6692C97.5894 11.9221 97.5495 11.962 97.5495 12.0418V14.2914C97.5495 14.3712 97.5894 14.4111 97.6692 14.4111H102.097C102.208 14.4111 102.296 14.443 102.36 14.5068C102.424 14.5706 102.456 14.6584 102.456 14.77V17.8813C102.456 17.993 102.424 18.0807 102.36 18.1445C102.296 18.2083 102.208 18.2403 102.097 18.2403H97.6692C97.5894 18.2403 97.5495 18.2801 97.5495 18.3599V20.8489C97.5495 20.9287 97.5894 20.9685 97.6692 20.9685H104.825C104.937 20.9685 105.024 21.0005 105.088 21.0643C105.152 21.1281 105.184 21.2158 105.184 21.3275V24.4627C105.184 24.5744 105.152 24.6621 105.088 24.7259C105.024 24.7898 104.937 24.8217 104.825 24.8217H93.4092C93.2975 24.8217 93.2098 24.7898 93.146 24.7259C93.0821 24.6621 93.0502 24.5744 93.0502 24.4627V8.42796C93.0502 8.31627 93.0821 8.22852 93.146 8.1647C93.2098 8.10088 93.2975 8.06897 93.4092 8.06897H104.825C104.937 8.06897 105.024 8.10088 105.088 8.1647C105.152 8.22852 105.184 8.31627 105.184 8.42796V11.5631Z" fill="#121212"/>
<path d="M117.9 24.8217C117.676 24.8217 117.541 24.718 117.493 24.5105L116.966 22.6438C116.934 22.58 116.894 22.5481 116.847 22.5481H111.773C111.725 22.5481 111.685 22.58 111.653 22.6438L111.127 24.5105C111.079 24.718 110.943 24.8217 110.72 24.8217H106.627C106.34 24.8217 106.236 24.6861 106.316 24.4148L111.366 8.35616C111.43 8.1647 111.565 8.06897 111.773 8.06897H116.847C117.054 8.06897 117.19 8.1647 117.253 8.35616L122.303 24.4148C122.319 24.4467 122.327 24.4946 122.327 24.5584C122.327 24.7339 122.215 24.8217 121.992 24.8217H117.9ZM112.706 18.9582C112.69 19.054 112.722 19.1018 112.802 19.1018H115.794C115.889 19.1018 115.921 19.054 115.889 18.9582L114.358 13.5974C114.342 13.5495 114.318 13.5256 114.286 13.5256C114.254 13.5256 114.23 13.5495 114.214 13.5974L112.706 18.9582Z" fill="#121212"/>
<path d="M132.591 24.8217C132.383 24.8217 132.248 24.7339 132.184 24.5584L129.551 18.4796C129.52 18.4158 129.472 18.3838 129.408 18.3838H128.403C128.323 18.3838 128.283 18.4237 128.283 18.5035V24.4627C128.283 24.5744 128.251 24.6621 128.187 24.7259C128.124 24.7898 128.036 24.8217 127.924 24.8217H124.143C124.031 24.8217 123.943 24.7898 123.879 24.7259C123.816 24.6621 123.784 24.5744 123.784 24.4627V8.42796C123.784 8.31627 123.816 8.22852 123.879 8.1647C123.943 8.10088 124.031 8.06897 124.143 8.06897H131.394C132.479 8.06897 133.429 8.29234 134.242 8.73908C135.072 9.18582 135.71 9.81604 136.157 10.6297C136.62 11.4275 136.851 12.3529 136.851 13.4059C136.851 14.4589 136.588 15.3843 136.061 16.1821C135.551 16.9639 134.841 17.5382 133.931 17.9052C133.851 17.9371 133.827 17.993 133.859 18.0727L136.899 24.3909C136.931 24.4866 136.947 24.5425 136.947 24.5584C136.947 24.6382 136.915 24.702 136.851 24.7499C136.787 24.7977 136.707 24.8217 136.612 24.8217H132.591ZM128.403 11.9221C128.323 11.9221 128.283 11.962 128.283 12.0418V14.8418C128.283 14.9216 128.323 14.9615 128.403 14.9615H130.652C131.163 14.9615 131.578 14.8259 131.897 14.5547C132.216 14.2675 132.375 13.9005 132.375 13.4538C132.375 12.9911 132.216 12.6241 131.897 12.3529C131.578 12.0657 131.163 11.9221 130.652 11.9221H128.403Z" fill="#121212"/>
<path d="M138.867 24.8217C138.755 24.8217 138.667 24.7898 138.604 24.7259C138.54 24.6621 138.508 24.5744 138.508 24.4627V8.42796C138.508 8.31627 138.54 8.22852 138.604 8.1647C138.667 8.10088 138.755 8.06897 138.867 8.06897H145.017C146.31 8.06897 147.451 8.29234 148.44 8.73908C149.445 9.18582 150.219 9.81604 150.761 10.6297C151.304 11.4434 151.575 12.3848 151.575 13.4538V19.4369C151.575 20.5059 151.304 21.4472 150.761 22.2609C150.219 23.0746 149.445 23.7048 148.44 24.1516C147.451 24.5983 146.31 24.8217 145.017 24.8217H138.867ZM143.007 20.8489C143.007 20.9287 143.047 20.9685 143.127 20.9685H145.185C145.727 20.9685 146.174 20.7611 146.525 20.3463C146.876 19.9155 147.06 19.3571 147.076 18.671V14.2196C147.076 13.5335 146.9 12.9831 146.549 12.5683C146.198 12.1375 145.735 11.9221 145.161 11.9221H143.127C143.047 11.9221 143.007 11.962 143.007 12.0418V20.8489Z" fill="#121212"/>
<path d="M158.069 24.8217C157.973 24.8217 157.894 24.8057 157.83 24.7738C157.782 24.7259 157.758 24.6701 157.758 24.6063C157.758 24.5265 157.782 24.4547 157.83 24.3909L162.186 16.5171C162.217 16.4693 162.217 16.4214 162.186 16.3735L157.83 8.49975C157.782 8.41998 157.758 8.34818 157.758 8.28436C157.758 8.22054 157.782 8.17268 157.83 8.14077C157.894 8.0929 157.973 8.06897 158.069 8.06897H162.21C162.417 8.06897 162.561 8.15672 162.64 8.33223L164.986 12.8555C165.034 12.9193 165.081 12.9193 165.129 12.8555L167.475 8.33223C167.57 8.15672 167.714 8.06897 167.905 8.06897H172.022C172.118 8.06897 172.189 8.0929 172.237 8.14077C172.301 8.17268 172.333 8.22054 172.333 8.28436C172.333 8.34818 172.309 8.41998 172.261 8.49975L167.929 16.3735C167.913 16.4214 167.913 16.4693 167.929 16.5171L172.261 24.3909C172.309 24.4547 172.333 24.5265 172.333 24.6063C172.333 24.6701 172.301 24.7259 172.237 24.7738C172.189 24.8057 172.118 24.8217 172.022 24.8217H167.929C167.738 24.8217 167.594 24.7339 167.499 24.5584L165.129 20.0591C165.081 19.9793 165.034 19.9793 164.986 20.0591L162.616 24.5584C162.537 24.7339 162.393 24.8217 162.186 24.8217H158.069Z" fill="#121212"/>
</svg>
