<svg width="256" height="256" viewBox="0 0 256 256" fill="none" xmlns="http://www.w3.org/2000/svg">
<path d="M152.057 90.7154C135.855 90.7154 122.71 104.934 122.71 122.46C122.71 139.985 135.855 154.204 152.057 154.204C168.26 154.204 181.405 139.985 181.405 122.46C181.405 104.934 168.26 90.7154 152.057 90.7154Z" fill="#DEC7A6"/>
<path d="M220.525 127.75C233.36 127.75 246.504 125.105 254.771 106.587C254.771 106.587 262.107 164.785 191.178 164.785C162.451 164.785 141.516 158.255 129.095 142.217C137.362 129.176 153.213 116.611 171.958 99.1266C178.262 106.009 201.574 127.75 220.525 127.75Z" fill="#DEC7A6"/>
<path d="M103.945 90.7154C87.7423 90.7154 74.5981 104.934 74.5981 122.46C74.5981 139.985 87.7423 154.204 103.945 154.204C120.148 154.204 133.292 139.985 133.292 122.46C133.292 104.934 120.148 90.7154 103.945 90.7154Z" fill="#DEC7A6"/>
<path d="M84.042 99.1266C102.787 116.59 118.638 129.176 126.905 142.217C114.484 158.255 93.5488 164.785 64.8218 164.785C-6.10714 164.785 1.22961 106.587 1.22961 106.587C9.49638 125.105 22.6406 127.75 35.4747 127.75C54.4263 127.75 77.7386 106.009 84.042 99.1266Z" fill="#DEC7A6"/>
</svg>
